%TF.GenerationSoftware,KiCad,Pcbnew,7.0.10*%
%TF.CreationDate,2024-02-15T23:55:06+08:00*%
%TF.ProjectId,Project 2 - Breadboard power supply,50726f6a-6563-4742-9032-202d20427265,rev?*%
%TF.SameCoordinates,Original*%
%TF.FileFunction,Copper,L2,Bot*%
%TF.FilePolarity,Positive*%
%FSLAX46Y46*%
G04 Gerber Fmt 4.6, Leading zero omitted, Abs format (unit mm)*
G04 Created by KiCad (PCBNEW 7.0.10) date 2024-02-15 23:55:06*
%MOMM*%
%LPD*%
G01*
G04 APERTURE LIST*
G04 Aperture macros list*
%AMRoundRect*
0 Rectangle with rounded corners*
0 $1 Rounding radius*
0 $2 $3 $4 $5 $6 $7 $8 $9 X,Y pos of 4 corners*
0 Add a 4 corners polygon primitive as box body*
4,1,4,$2,$3,$4,$5,$6,$7,$8,$9,$2,$3,0*
0 Add four circle primitives for the rounded corners*
1,1,$1+$1,$2,$3*
1,1,$1+$1,$4,$5*
1,1,$1+$1,$6,$7*
1,1,$1+$1,$8,$9*
0 Add four rect primitives between the rounded corners*
20,1,$1+$1,$2,$3,$4,$5,0*
20,1,$1+$1,$4,$5,$6,$7,0*
20,1,$1+$1,$6,$7,$8,$9,0*
20,1,$1+$1,$8,$9,$2,$3,0*%
G04 Aperture macros list end*
%TA.AperFunction,ComponentPad*%
%ADD10O,1.700000X1.700000*%
%TD*%
%TA.AperFunction,ComponentPad*%
%ADD11R,1.700000X1.700000*%
%TD*%
%TA.AperFunction,ComponentPad*%
%ADD12C,1.600000*%
%TD*%
%TA.AperFunction,ComponentPad*%
%ADD13O,1.600000X1.600000*%
%TD*%
%TA.AperFunction,ComponentPad*%
%ADD14O,1.905000X2.000000*%
%TD*%
%TA.AperFunction,ComponentPad*%
%ADD15R,1.905000X2.000000*%
%TD*%
%TA.AperFunction,ComponentPad*%
%ADD16C,1.397000*%
%TD*%
%TA.AperFunction,ComponentPad*%
%ADD17R,3.000000X3.000000*%
%TD*%
%TA.AperFunction,ComponentPad*%
%ADD18C,3.000000*%
%TD*%
%TA.AperFunction,ComponentPad*%
%ADD19RoundRect,0.875000X-0.875000X-0.875000X0.875000X-0.875000X0.875000X0.875000X-0.875000X0.875000X0*%
%TD*%
%TA.AperFunction,ComponentPad*%
%ADD20RoundRect,0.750000X-0.750000X-1.000000X0.750000X-1.000000X0.750000X1.000000X-0.750000X1.000000X0*%
%TD*%
%TA.AperFunction,ComponentPad*%
%ADD21R,3.500000X3.500000*%
%TD*%
%TA.AperFunction,ComponentPad*%
%ADD22R,1.800000X1.800000*%
%TD*%
%TA.AperFunction,ComponentPad*%
%ADD23C,1.800000*%
%TD*%
%TA.AperFunction,Conductor*%
%ADD24C,0.350000*%
%TD*%
%TA.AperFunction,Conductor*%
%ADD25C,0.250000*%
%TD*%
G04 APERTURE END LIST*
D10*
%TO.P,J4,3,Pin_3*%
%TO.N,/5V*%
X66040000Y-102500000D03*
%TO.P,J4,2,Pin_2*%
%TO.N,/PWR_OUTPUT*%
X63500000Y-102500000D03*
D11*
%TO.P,J4,1,Pin_1*%
%TO.N,/3.3V*%
X60960000Y-102500000D03*
%TD*%
D10*
%TO.P,J3,3,Pin_3*%
%TO.N,/5V*%
X66040000Y-55300000D03*
%TO.P,J3,2,Pin_2*%
%TO.N,/PWR_OUTPUT*%
X63500000Y-55300000D03*
D11*
%TO.P,J3,1,Pin_1*%
%TO.N,/3.3V*%
X60960000Y-55300000D03*
%TD*%
D12*
%TO.P,R3,1*%
%TO.N,GND*%
X74155000Y-92425000D03*
D13*
%TO.P,R3,2*%
%TO.N,Net-(U2-ADJ)*%
X81775000Y-92425000D03*
%TD*%
D14*
%TO.P,U1,3,VO*%
%TO.N,/5V*%
X57920000Y-68550000D03*
%TO.P,U1,2,GND*%
%TO.N,GND*%
X60460000Y-68550000D03*
D15*
%TO.P,U1,1,VI*%
%TO.N,/12V*%
X63000000Y-68550000D03*
%TD*%
D11*
%TO.P,C1,1*%
%TO.N,/12V*%
X63850000Y-62725000D03*
D10*
%TO.P,C1,2*%
%TO.N,GND*%
X66390000Y-62725000D03*
%TD*%
D12*
%TO.P,R1,1*%
%TO.N,Net-(U2-ADJ)*%
X74155000Y-72350000D03*
D13*
%TO.P,R1,2*%
%TO.N,/3.3V*%
X81775000Y-72350000D03*
%TD*%
D15*
%TO.P,U2,1,ADJ*%
%TO.N,Net-(U2-ADJ)*%
X61500000Y-87750000D03*
D14*
%TO.P,U2,2,VO*%
%TO.N,/3.3V*%
X58960000Y-87750000D03*
%TO.P,U2,3,VI*%
%TO.N,/12V*%
X56420000Y-87750000D03*
%TD*%
D16*
%TO.P,SW1,1,1*%
%TO.N,/PWR_INPUT*%
X74215900Y-67300000D03*
%TO.P,SW1,2,2*%
%TO.N,/12V*%
X76715900Y-67300000D03*
%TO.P,SW1,3,3*%
%TO.N,unconnected-(SW1-Pad3)*%
X79215900Y-67300000D03*
%TD*%
D12*
%TO.P,C2,1*%
%TO.N,/5V*%
X56775000Y-62000000D03*
%TO.P,C2,2*%
%TO.N,GND*%
X59275000Y-62000000D03*
%TD*%
D11*
%TO.P,J2,1,Pin_1*%
%TO.N,GND*%
X86390000Y-99950000D03*
D10*
%TO.P,J2,2,Pin_2*%
%TO.N,/PWR_OUTPUT*%
X86390000Y-102490000D03*
%TD*%
D11*
%TO.P,J1,1,Pin_1*%
%TO.N,GND*%
X86390000Y-55300000D03*
D10*
%TO.P,J1,2,Pin_2*%
%TO.N,/PWR_OUTPUT*%
X86390000Y-57840000D03*
%TD*%
D12*
%TO.P,C3,1*%
%TO.N,/3.3V*%
X54275000Y-94200000D03*
%TO.P,C3,2*%
%TO.N,GND*%
X56775000Y-94200000D03*
%TD*%
D17*
%TO.P,J5,1,Pin_1*%
%TO.N,GND*%
X75035000Y-100300000D03*
D18*
%TO.P,J5,2,Pin_2*%
%TO.N,/PWR_OUTPUT*%
X80115000Y-100300000D03*
%TD*%
D19*
%TO.P,J6,3*%
%TO.N,GND*%
X65900000Y-83067500D03*
D20*
%TO.P,J6,2*%
X62900000Y-78367500D03*
D21*
%TO.P,J6,1*%
%TO.N,/PWR_INPUT*%
X68900000Y-78367500D03*
%TD*%
D17*
%TO.P,J7,1,Pin_1*%
%TO.N,GND*%
X75160000Y-57500000D03*
D18*
%TO.P,J7,2,Pin_2*%
%TO.N,/PWR_OUTPUT*%
X80240000Y-57500000D03*
%TD*%
D12*
%TO.P,R2,1*%
%TO.N,Net-(D1-A)*%
X74155000Y-87450000D03*
D13*
%TO.P,R2,2*%
%TO.N,/12V*%
X81775000Y-87450000D03*
%TD*%
D22*
%TO.P,D1,1,K*%
%TO.N,GND*%
X79575000Y-79700000D03*
D23*
%TO.P,D1,2,A*%
%TO.N,Net-(D1-A)*%
X79575000Y-77160000D03*
%TD*%
D24*
%TO.N,/3.3V*%
X54275000Y-92435000D02*
X58960000Y-87750000D01*
X54275000Y-94200000D02*
X54275000Y-92435000D01*
X69160000Y-68766508D02*
X69160000Y-63500000D01*
X58960000Y-78966508D02*
X69160000Y-68766508D01*
X58960000Y-87750000D02*
X58960000Y-78966508D01*
X83500000Y-70625000D02*
X81775000Y-72350000D01*
X83500000Y-63500000D02*
X83500000Y-70625000D01*
X69160000Y-63500000D02*
X83500000Y-63500000D01*
X60960000Y-55300000D02*
X69160000Y-63500000D01*
D25*
%TO.N,Net-(U2-ADJ)*%
X82900000Y-86984009D02*
X82900000Y-91300000D01*
X82900000Y-91300000D02*
X81775000Y-92425000D01*
X74155000Y-78239009D02*
X82900000Y-86984009D01*
X74155000Y-72350000D02*
X74155000Y-78239009D01*
%TD*%
%TA.AperFunction,Conductor*%
%TO.N,GND*%
G36*
X88693039Y-53019685D02*
G01*
X88738794Y-53072489D01*
X88750000Y-53124000D01*
X88750000Y-59626000D01*
X88730315Y-59693039D01*
X88677511Y-59738794D01*
X88626000Y-59750000D01*
X84749999Y-59750000D01*
X84500000Y-59999999D01*
X84500000Y-60000000D01*
X84500000Y-98000000D01*
X88448638Y-98000000D01*
X88515677Y-98019685D01*
X88536319Y-98036319D01*
X88713681Y-98213681D01*
X88747166Y-98275004D01*
X88750000Y-98301362D01*
X88750000Y-104698638D01*
X88730315Y-104765677D01*
X88713681Y-104786319D01*
X88536319Y-104963681D01*
X88474996Y-104997166D01*
X88448638Y-105000000D01*
X53051362Y-105000000D01*
X52984323Y-104980315D01*
X52963681Y-104963681D01*
X52786319Y-104786319D01*
X52752834Y-104724996D01*
X52750000Y-104698638D01*
X52750000Y-103397870D01*
X59609500Y-103397870D01*
X59609501Y-103397876D01*
X59615908Y-103457483D01*
X59666202Y-103592328D01*
X59666206Y-103592335D01*
X59752452Y-103707544D01*
X59752455Y-103707547D01*
X59867664Y-103793793D01*
X59867671Y-103793797D01*
X60002517Y-103844091D01*
X60002516Y-103844091D01*
X60009444Y-103844835D01*
X60062127Y-103850500D01*
X61857872Y-103850499D01*
X61917483Y-103844091D01*
X62052331Y-103793796D01*
X62167546Y-103707546D01*
X62253796Y-103592331D01*
X62302810Y-103460916D01*
X62344681Y-103404984D01*
X62410145Y-103380566D01*
X62478418Y-103395417D01*
X62506673Y-103416569D01*
X62628599Y-103538495D01*
X62725384Y-103606265D01*
X62822165Y-103674032D01*
X62822167Y-103674033D01*
X62822170Y-103674035D01*
X63036337Y-103773903D01*
X63264592Y-103835063D01*
X63441034Y-103850500D01*
X63499999Y-103855659D01*
X63500000Y-103855659D01*
X63500001Y-103855659D01*
X63558966Y-103850500D01*
X63735408Y-103835063D01*
X63963663Y-103773903D01*
X64177830Y-103674035D01*
X64371401Y-103538495D01*
X64538495Y-103371401D01*
X64668425Y-103185842D01*
X64723002Y-103142217D01*
X64792500Y-103135023D01*
X64854855Y-103166546D01*
X64871575Y-103185842D01*
X65001500Y-103371395D01*
X65001505Y-103371401D01*
X65168599Y-103538495D01*
X65265384Y-103606265D01*
X65362165Y-103674032D01*
X65362167Y-103674033D01*
X65362170Y-103674035D01*
X65576337Y-103773903D01*
X65804592Y-103835063D01*
X65981034Y-103850500D01*
X66039999Y-103855659D01*
X66040000Y-103855659D01*
X66040001Y-103855659D01*
X66098966Y-103850500D01*
X66275408Y-103835063D01*
X66503663Y-103773903D01*
X66717830Y-103674035D01*
X66911401Y-103538495D01*
X67078495Y-103371401D01*
X67214035Y-103177830D01*
X67313903Y-102963663D01*
X67375063Y-102735408D01*
X67395659Y-102500000D01*
X67394784Y-102490000D01*
X85034341Y-102490000D01*
X85054936Y-102725403D01*
X85054938Y-102725413D01*
X85116094Y-102953655D01*
X85116096Y-102953659D01*
X85116097Y-102953663D01*
X85215366Y-103166546D01*
X85215965Y-103167830D01*
X85215967Y-103167834D01*
X85324281Y-103322521D01*
X85351505Y-103361401D01*
X85518599Y-103528495D01*
X85532885Y-103538498D01*
X85712165Y-103664032D01*
X85712167Y-103664033D01*
X85712170Y-103664035D01*
X85926337Y-103763903D01*
X86154592Y-103825063D01*
X86342918Y-103841539D01*
X86389999Y-103845659D01*
X86390000Y-103845659D01*
X86390001Y-103845659D01*
X86429234Y-103842226D01*
X86625408Y-103825063D01*
X86853663Y-103763903D01*
X87067830Y-103664035D01*
X87261401Y-103528495D01*
X87428495Y-103361401D01*
X87564035Y-103167830D01*
X87663903Y-102953663D01*
X87725063Y-102725408D01*
X87745659Y-102490000D01*
X87725063Y-102254592D01*
X87666584Y-102036344D01*
X87663905Y-102026344D01*
X87663904Y-102026343D01*
X87663903Y-102026337D01*
X87564035Y-101812171D01*
X87428495Y-101618599D01*
X87306179Y-101496283D01*
X87272696Y-101434963D01*
X87277680Y-101365271D01*
X87319551Y-101309337D01*
X87350529Y-101292422D01*
X87482086Y-101243354D01*
X87482093Y-101243350D01*
X87597187Y-101157190D01*
X87597190Y-101157187D01*
X87683350Y-101042093D01*
X87683354Y-101042086D01*
X87733596Y-100907379D01*
X87733598Y-100907372D01*
X87739999Y-100847844D01*
X87740000Y-100847827D01*
X87740000Y-100200000D01*
X86823686Y-100200000D01*
X86849493Y-100159844D01*
X86890000Y-100021889D01*
X86890000Y-99878111D01*
X86849493Y-99740156D01*
X86823686Y-99700000D01*
X87740000Y-99700000D01*
X87740000Y-99052172D01*
X87739999Y-99052155D01*
X87733598Y-98992627D01*
X87733596Y-98992620D01*
X87683354Y-98857913D01*
X87683350Y-98857906D01*
X87597190Y-98742812D01*
X87597187Y-98742809D01*
X87482093Y-98656649D01*
X87482086Y-98656645D01*
X87347379Y-98606403D01*
X87347372Y-98606401D01*
X87287844Y-98600000D01*
X86640000Y-98600000D01*
X86640000Y-99514498D01*
X86532315Y-99465320D01*
X86425763Y-99450000D01*
X86354237Y-99450000D01*
X86247685Y-99465320D01*
X86140000Y-99514498D01*
X86140000Y-98600000D01*
X85492155Y-98600000D01*
X85432627Y-98606401D01*
X85432620Y-98606403D01*
X85297913Y-98656645D01*
X85297906Y-98656649D01*
X85182812Y-98742809D01*
X85182809Y-98742812D01*
X85096649Y-98857906D01*
X85096645Y-98857913D01*
X85046403Y-98992620D01*
X85046401Y-98992627D01*
X85040000Y-99052155D01*
X85040000Y-99700000D01*
X85956314Y-99700000D01*
X85930507Y-99740156D01*
X85890000Y-99878111D01*
X85890000Y-100021889D01*
X85930507Y-100159844D01*
X85956314Y-100200000D01*
X85040000Y-100200000D01*
X85040000Y-100847844D01*
X85046401Y-100907372D01*
X85046403Y-100907379D01*
X85096645Y-101042086D01*
X85096649Y-101042093D01*
X85182809Y-101157187D01*
X85182812Y-101157190D01*
X85297906Y-101243350D01*
X85297913Y-101243354D01*
X85429470Y-101292421D01*
X85485403Y-101334292D01*
X85509821Y-101399756D01*
X85494970Y-101468029D01*
X85473819Y-101496284D01*
X85351503Y-101618600D01*
X85215965Y-101812169D01*
X85215964Y-101812171D01*
X85116098Y-102026335D01*
X85116094Y-102026344D01*
X85054938Y-102254586D01*
X85054936Y-102254596D01*
X85034341Y-102489999D01*
X85034341Y-102490000D01*
X67394784Y-102490000D01*
X67375063Y-102264592D01*
X67315445Y-102042093D01*
X67313905Y-102036344D01*
X67313904Y-102036343D01*
X67313903Y-102036337D01*
X67226007Y-101847844D01*
X73035000Y-101847844D01*
X73041401Y-101907372D01*
X73041403Y-101907379D01*
X73091645Y-102042086D01*
X73091649Y-102042093D01*
X73177809Y-102157187D01*
X73177812Y-102157190D01*
X73292906Y-102243350D01*
X73292913Y-102243354D01*
X73427620Y-102293596D01*
X73427627Y-102293598D01*
X73487155Y-102299999D01*
X73487172Y-102300000D01*
X74785000Y-102300000D01*
X74785000Y-101021802D01*
X74946169Y-101060000D01*
X75079267Y-101060000D01*
X75211461Y-101044549D01*
X75285000Y-101017782D01*
X75285000Y-102300000D01*
X76582828Y-102300000D01*
X76582844Y-102299999D01*
X76642372Y-102293598D01*
X76642379Y-102293596D01*
X76777086Y-102243354D01*
X76777093Y-102243350D01*
X76892187Y-102157190D01*
X76892190Y-102157187D01*
X76978350Y-102042093D01*
X76978354Y-102042086D01*
X77028596Y-101907379D01*
X77028598Y-101907372D01*
X77034999Y-101847844D01*
X77035000Y-101847827D01*
X77035000Y-100550000D01*
X75753483Y-100550000D01*
X75788549Y-100432871D01*
X75796288Y-100300001D01*
X78109390Y-100300001D01*
X78129804Y-100585433D01*
X78190628Y-100865037D01*
X78190630Y-100865043D01*
X78190631Y-100865046D01*
X78263345Y-101060000D01*
X78290635Y-101133166D01*
X78427770Y-101384309D01*
X78427775Y-101384317D01*
X78599254Y-101613387D01*
X78599270Y-101613405D01*
X78801594Y-101815729D01*
X78801612Y-101815745D01*
X79030682Y-101987224D01*
X79030690Y-101987229D01*
X79281833Y-102124364D01*
X79281832Y-102124364D01*
X79281836Y-102124365D01*
X79281839Y-102124367D01*
X79549954Y-102224369D01*
X79549960Y-102224370D01*
X79549962Y-102224371D01*
X79829566Y-102285195D01*
X79829568Y-102285195D01*
X79829572Y-102285196D01*
X80083220Y-102303337D01*
X80114999Y-102305610D01*
X80115000Y-102305610D01*
X80115001Y-102305610D01*
X80143595Y-102303564D01*
X80400428Y-102285196D01*
X80495144Y-102264592D01*
X80680037Y-102224371D01*
X80680037Y-102224370D01*
X80680046Y-102224369D01*
X80948161Y-102124367D01*
X81199315Y-101987226D01*
X81428395Y-101815739D01*
X81630739Y-101613395D01*
X81802226Y-101384315D01*
X81939367Y-101133161D01*
X82039369Y-100865046D01*
X82100196Y-100585428D01*
X82120610Y-100300000D01*
X82100196Y-100014572D01*
X82096358Y-99996930D01*
X82039371Y-99734962D01*
X82039370Y-99734960D01*
X82039369Y-99734954D01*
X81939367Y-99466839D01*
X81802226Y-99215685D01*
X81679822Y-99052172D01*
X81630745Y-98986612D01*
X81630729Y-98986594D01*
X81428405Y-98784270D01*
X81428387Y-98784254D01*
X81199317Y-98612775D01*
X81199309Y-98612770D01*
X80948166Y-98475635D01*
X80948167Y-98475635D01*
X80840915Y-98435632D01*
X80680046Y-98375631D01*
X80680043Y-98375630D01*
X80680037Y-98375628D01*
X80400433Y-98314804D01*
X80115001Y-98294390D01*
X80114999Y-98294390D01*
X79829566Y-98314804D01*
X79549962Y-98375628D01*
X79281833Y-98475635D01*
X79030690Y-98612770D01*
X79030682Y-98612775D01*
X78801612Y-98784254D01*
X78801594Y-98784270D01*
X78599270Y-98986594D01*
X78599254Y-98986612D01*
X78427775Y-99215682D01*
X78427770Y-99215690D01*
X78290635Y-99466833D01*
X78190628Y-99734962D01*
X78129804Y-100014566D01*
X78109390Y-100299998D01*
X78109390Y-100300001D01*
X75796288Y-100300001D01*
X75798879Y-100255509D01*
X75768029Y-100080546D01*
X75754853Y-100050000D01*
X77035000Y-100050000D01*
X77035000Y-98752172D01*
X77034999Y-98752155D01*
X77028598Y-98692627D01*
X77028596Y-98692620D01*
X76978354Y-98557913D01*
X76978350Y-98557906D01*
X76892190Y-98442812D01*
X76892187Y-98442809D01*
X76777093Y-98356649D01*
X76777086Y-98356645D01*
X76642379Y-98306403D01*
X76642372Y-98306401D01*
X76582844Y-98300000D01*
X75285000Y-98300000D01*
X75285000Y-99578197D01*
X75123831Y-99540000D01*
X74990733Y-99540000D01*
X74858539Y-99555451D01*
X74785000Y-99582217D01*
X74785000Y-98300000D01*
X73487155Y-98300000D01*
X73427627Y-98306401D01*
X73427620Y-98306403D01*
X73292913Y-98356645D01*
X73292906Y-98356649D01*
X73177812Y-98442809D01*
X73177809Y-98442812D01*
X73091649Y-98557906D01*
X73091645Y-98557913D01*
X73041403Y-98692620D01*
X73041401Y-98692627D01*
X73035000Y-98752155D01*
X73035000Y-100050000D01*
X74316517Y-100050000D01*
X74281451Y-100167129D01*
X74271121Y-100344491D01*
X74301971Y-100519454D01*
X74315147Y-100550000D01*
X73035000Y-100550000D01*
X73035000Y-101847844D01*
X67226007Y-101847844D01*
X67214035Y-101822171D01*
X67209536Y-101815745D01*
X67078494Y-101628597D01*
X66911402Y-101461506D01*
X66911395Y-101461501D01*
X66897119Y-101451505D01*
X66834518Y-101407671D01*
X66717834Y-101325967D01*
X66717830Y-101325965D01*
X66682171Y-101309337D01*
X66503663Y-101226097D01*
X66503659Y-101226096D01*
X66503655Y-101226094D01*
X66275413Y-101164938D01*
X66275403Y-101164936D01*
X66040001Y-101144341D01*
X66039999Y-101144341D01*
X65804596Y-101164936D01*
X65804586Y-101164938D01*
X65576344Y-101226094D01*
X65576335Y-101226098D01*
X65362171Y-101325964D01*
X65362169Y-101325965D01*
X65168597Y-101461505D01*
X65001505Y-101628597D01*
X64871575Y-101814158D01*
X64816998Y-101857783D01*
X64747500Y-101864977D01*
X64685145Y-101833454D01*
X64668425Y-101814158D01*
X64538494Y-101628597D01*
X64371402Y-101461506D01*
X64371395Y-101461501D01*
X64357119Y-101451505D01*
X64294518Y-101407671D01*
X64177834Y-101325967D01*
X64177830Y-101325965D01*
X64142171Y-101309337D01*
X63963663Y-101226097D01*
X63963659Y-101226096D01*
X63963655Y-101226094D01*
X63735413Y-101164938D01*
X63735403Y-101164936D01*
X63500001Y-101144341D01*
X63499999Y-101144341D01*
X63264596Y-101164936D01*
X63264586Y-101164938D01*
X63036344Y-101226094D01*
X63036335Y-101226098D01*
X62822171Y-101325964D01*
X62822169Y-101325965D01*
X62628600Y-101461503D01*
X62506673Y-101583430D01*
X62445350Y-101616914D01*
X62375658Y-101611930D01*
X62319725Y-101570058D01*
X62302810Y-101539081D01*
X62253797Y-101407671D01*
X62253793Y-101407664D01*
X62167547Y-101292455D01*
X62167544Y-101292452D01*
X62052335Y-101206206D01*
X62052328Y-101206202D01*
X61917482Y-101155908D01*
X61917483Y-101155908D01*
X61857883Y-101149501D01*
X61857881Y-101149500D01*
X61857873Y-101149500D01*
X61857864Y-101149500D01*
X60062129Y-101149500D01*
X60062123Y-101149501D01*
X60002516Y-101155908D01*
X59867671Y-101206202D01*
X59867664Y-101206206D01*
X59752455Y-101292452D01*
X59752452Y-101292455D01*
X59666206Y-101407664D01*
X59666202Y-101407671D01*
X59615908Y-101542517D01*
X59609501Y-101602116D01*
X59609500Y-101602135D01*
X59609500Y-103397870D01*
X52750000Y-103397870D01*
X52750000Y-94475243D01*
X52769685Y-94408204D01*
X52822489Y-94362449D01*
X52891647Y-94352505D01*
X52955203Y-94381530D01*
X52992977Y-94440308D01*
X52993775Y-94443150D01*
X53048258Y-94646488D01*
X53048261Y-94646497D01*
X53144431Y-94852732D01*
X53144432Y-94852734D01*
X53274954Y-95039141D01*
X53435858Y-95200045D01*
X53435861Y-95200047D01*
X53622266Y-95330568D01*
X53828504Y-95426739D01*
X54048308Y-95485635D01*
X54210230Y-95499801D01*
X54274998Y-95505468D01*
X54275000Y-95505468D01*
X54275002Y-95505468D01*
X54331673Y-95500509D01*
X54501692Y-95485635D01*
X54721496Y-95426739D01*
X54927734Y-95330568D01*
X55114139Y-95200047D01*
X55275047Y-95039139D01*
X55405568Y-94852734D01*
X55412893Y-94837024D01*
X55459064Y-94784586D01*
X55526257Y-94765433D01*
X55593138Y-94785648D01*
X55637657Y-94837024D01*
X55644864Y-94852480D01*
X55695974Y-94925472D01*
X56377046Y-94244400D01*
X56389835Y-94325148D01*
X56447359Y-94438045D01*
X56536955Y-94527641D01*
X56649852Y-94585165D01*
X56730599Y-94597953D01*
X56049526Y-95279025D01*
X56122513Y-95330132D01*
X56122521Y-95330136D01*
X56328668Y-95426264D01*
X56328682Y-95426269D01*
X56548389Y-95485139D01*
X56548400Y-95485141D01*
X56774998Y-95504966D01*
X56775002Y-95504966D01*
X57001599Y-95485141D01*
X57001610Y-95485139D01*
X57221317Y-95426269D01*
X57221331Y-95426264D01*
X57427478Y-95330136D01*
X57500471Y-95279024D01*
X56819400Y-94597953D01*
X56900148Y-94585165D01*
X57013045Y-94527641D01*
X57102641Y-94438045D01*
X57160165Y-94325148D01*
X57172953Y-94244400D01*
X57854024Y-94925471D01*
X57905136Y-94852478D01*
X58001264Y-94646331D01*
X58001269Y-94646317D01*
X58060139Y-94426610D01*
X58060141Y-94426599D01*
X58079966Y-94200002D01*
X58079966Y-94199997D01*
X58060141Y-93973400D01*
X58060139Y-93973389D01*
X58001269Y-93753682D01*
X58001264Y-93753668D01*
X57905136Y-93547521D01*
X57905132Y-93547513D01*
X57854025Y-93474526D01*
X57172953Y-94155598D01*
X57160165Y-94074852D01*
X57102641Y-93961955D01*
X57013045Y-93872359D01*
X56900148Y-93814835D01*
X56819401Y-93802046D01*
X57500472Y-93120974D01*
X57427478Y-93069863D01*
X57221331Y-92973735D01*
X57221317Y-92973730D01*
X57001610Y-92914860D01*
X57001599Y-92914858D01*
X56775002Y-92895034D01*
X56774998Y-92895034D01*
X56548400Y-92914858D01*
X56548389Y-92914860D01*
X56328682Y-92973730D01*
X56328673Y-92973734D01*
X56122516Y-93069866D01*
X56122512Y-93069868D01*
X56049526Y-93120973D01*
X56049526Y-93120974D01*
X56730599Y-93802046D01*
X56649852Y-93814835D01*
X56536955Y-93872359D01*
X56447359Y-93961955D01*
X56389835Y-94074852D01*
X56377046Y-94155598D01*
X55695974Y-93474526D01*
X55695973Y-93474526D01*
X55644868Y-93547512D01*
X55644867Y-93547514D01*
X55637656Y-93562979D01*
X55591482Y-93615417D01*
X55524288Y-93634567D01*
X55457407Y-93614350D01*
X55412893Y-93562976D01*
X55405568Y-93547266D01*
X55275047Y-93360861D01*
X55275045Y-93360858D01*
X55114143Y-93199956D01*
X55003376Y-93122396D01*
X54959752Y-93067819D01*
X54950500Y-93020821D01*
X54950500Y-92766162D01*
X54970185Y-92699123D01*
X54986814Y-92678486D01*
X55240298Y-92425002D01*
X72850034Y-92425002D01*
X72869858Y-92651599D01*
X72869860Y-92651610D01*
X72928730Y-92871317D01*
X72928735Y-92871331D01*
X73024863Y-93077478D01*
X73075974Y-93150472D01*
X73757046Y-92469400D01*
X73769835Y-92550148D01*
X73827359Y-92663045D01*
X73916955Y-92752641D01*
X74029852Y-92810165D01*
X74110599Y-92822953D01*
X73429526Y-93504025D01*
X73502513Y-93555132D01*
X73502521Y-93555136D01*
X73708668Y-93651264D01*
X73708682Y-93651269D01*
X73928389Y-93710139D01*
X73928400Y-93710141D01*
X74154998Y-93729966D01*
X74155002Y-93729966D01*
X74381599Y-93710141D01*
X74381610Y-93710139D01*
X74601317Y-93651269D01*
X74601331Y-93651264D01*
X74807478Y-93555136D01*
X74880471Y-93504024D01*
X74199400Y-92822953D01*
X74280148Y-92810165D01*
X74393045Y-92752641D01*
X74482641Y-92663045D01*
X74540165Y-92550148D01*
X74552953Y-92469400D01*
X75234024Y-93150471D01*
X75285136Y-93077478D01*
X75381264Y-92871331D01*
X75381269Y-92871317D01*
X75440139Y-92651610D01*
X75440141Y-92651599D01*
X75459966Y-92425002D01*
X75459966Y-92424997D01*
X75440141Y-92198400D01*
X75440139Y-92198389D01*
X75381269Y-91978682D01*
X75381264Y-91978668D01*
X75285136Y-91772521D01*
X75285132Y-91772513D01*
X75234025Y-91699526D01*
X74552953Y-92380598D01*
X74540165Y-92299852D01*
X74482641Y-92186955D01*
X74393045Y-92097359D01*
X74280148Y-92039835D01*
X74199401Y-92027046D01*
X74880472Y-91345974D01*
X74807478Y-91294863D01*
X74601331Y-91198735D01*
X74601317Y-91198730D01*
X74381610Y-91139860D01*
X74381599Y-91139858D01*
X74155002Y-91120034D01*
X74154998Y-91120034D01*
X73928400Y-91139858D01*
X73928389Y-91139860D01*
X73708682Y-91198730D01*
X73708673Y-91198734D01*
X73502516Y-91294866D01*
X73502512Y-91294868D01*
X73429526Y-91345973D01*
X73429526Y-91345974D01*
X74110599Y-92027046D01*
X74029852Y-92039835D01*
X73916955Y-92097359D01*
X73827359Y-92186955D01*
X73769835Y-92299852D01*
X73757046Y-92380598D01*
X73075974Y-91699526D01*
X73075973Y-91699526D01*
X73024868Y-91772512D01*
X73024866Y-91772516D01*
X72928734Y-91978673D01*
X72928730Y-91978682D01*
X72869860Y-92198389D01*
X72869858Y-92198400D01*
X72850034Y-92424997D01*
X72850034Y-92425002D01*
X55240298Y-92425002D01*
X58437437Y-89227862D01*
X58498758Y-89194379D01*
X58565378Y-89198263D01*
X58602087Y-89210866D01*
X58839601Y-89250500D01*
X58839602Y-89250500D01*
X59080398Y-89250500D01*
X59080399Y-89250500D01*
X59317913Y-89210866D01*
X59545664Y-89132679D01*
X59757439Y-89018072D01*
X59899931Y-88907165D01*
X59964923Y-88881524D01*
X60033463Y-88895090D01*
X60083788Y-88943558D01*
X60092274Y-88961687D01*
X60103702Y-88992328D01*
X60103706Y-88992335D01*
X60189952Y-89107544D01*
X60189955Y-89107547D01*
X60305164Y-89193793D01*
X60305171Y-89193797D01*
X60440017Y-89244091D01*
X60440016Y-89244091D01*
X60446944Y-89244835D01*
X60499627Y-89250500D01*
X62500372Y-89250499D01*
X62559983Y-89244091D01*
X62694831Y-89193796D01*
X62810046Y-89107546D01*
X62896296Y-88992331D01*
X62946591Y-88857483D01*
X62953000Y-88797873D01*
X62952999Y-87450001D01*
X72849532Y-87450001D01*
X72869364Y-87676686D01*
X72869366Y-87676697D01*
X72928258Y-87896488D01*
X72928261Y-87896497D01*
X73024431Y-88102732D01*
X73024432Y-88102734D01*
X73154954Y-88289141D01*
X73315858Y-88450045D01*
X73315861Y-88450047D01*
X73502266Y-88580568D01*
X73708504Y-88676739D01*
X73928308Y-88735635D01*
X74090230Y-88749801D01*
X74154998Y-88755468D01*
X74155000Y-88755468D01*
X74155002Y-88755468D01*
X74211673Y-88750509D01*
X74381692Y-88735635D01*
X74601496Y-88676739D01*
X74807734Y-88580568D01*
X74994139Y-88450047D01*
X75155047Y-88289139D01*
X75285568Y-88102734D01*
X75381739Y-87896496D01*
X75440635Y-87676692D01*
X75460468Y-87450000D01*
X75440635Y-87223308D01*
X75381739Y-87003504D01*
X75285568Y-86797266D01*
X75175599Y-86640212D01*
X75155045Y-86610858D01*
X74994141Y-86449954D01*
X74807734Y-86319432D01*
X74807732Y-86319431D01*
X74601497Y-86223261D01*
X74601488Y-86223258D01*
X74381697Y-86164366D01*
X74381693Y-86164365D01*
X74381692Y-86164365D01*
X74381691Y-86164364D01*
X74381686Y-86164364D01*
X74155002Y-86144532D01*
X74154998Y-86144532D01*
X73928313Y-86164364D01*
X73928302Y-86164366D01*
X73708511Y-86223258D01*
X73708502Y-86223261D01*
X73502267Y-86319431D01*
X73502265Y-86319432D01*
X73315858Y-86449954D01*
X73154954Y-86610858D01*
X73024432Y-86797265D01*
X73024431Y-86797267D01*
X72928261Y-87003502D01*
X72928258Y-87003511D01*
X72869366Y-87223302D01*
X72869364Y-87223313D01*
X72849532Y-87449998D01*
X72849532Y-87450001D01*
X62952999Y-87450001D01*
X62952999Y-86702128D01*
X62946591Y-86642517D01*
X62945731Y-86640212D01*
X62896297Y-86507671D01*
X62896293Y-86507664D01*
X62810047Y-86392455D01*
X62810044Y-86392452D01*
X62694835Y-86306206D01*
X62694828Y-86306202D01*
X62559982Y-86255908D01*
X62559983Y-86255908D01*
X62500383Y-86249501D01*
X62500381Y-86249500D01*
X62500373Y-86249500D01*
X62500364Y-86249500D01*
X60499629Y-86249500D01*
X60499623Y-86249501D01*
X60440016Y-86255908D01*
X60305171Y-86306202D01*
X60305164Y-86306206D01*
X60189955Y-86392452D01*
X60189952Y-86392455D01*
X60103706Y-86507664D01*
X60103700Y-86507675D01*
X60092273Y-86538313D01*
X60050402Y-86594247D01*
X59984937Y-86618663D01*
X59916664Y-86603811D01*
X59899930Y-86592832D01*
X59757447Y-86481933D01*
X59757432Y-86481923D01*
X59700482Y-86451103D01*
X59650891Y-86401883D01*
X59635500Y-86342049D01*
X59635500Y-82817500D01*
X63650000Y-82817500D01*
X64466314Y-82817500D01*
X64440507Y-82857656D01*
X64400000Y-82995611D01*
X64400000Y-83139389D01*
X64440507Y-83277344D01*
X64466314Y-83317500D01*
X63650001Y-83317500D01*
X63650001Y-84036088D01*
X63652794Y-84088691D01*
X63697237Y-84318487D01*
X63779879Y-84537475D01*
X63898339Y-84739341D01*
X63898344Y-84739348D01*
X64049211Y-84918286D01*
X64049213Y-84918288D01*
X64228151Y-85069155D01*
X64228158Y-85069160D01*
X64430024Y-85187620D01*
X64649012Y-85270262D01*
X64878809Y-85314705D01*
X64931382Y-85317498D01*
X64931421Y-85317499D01*
X65649999Y-85317499D01*
X65650000Y-85317498D01*
X65650000Y-83567500D01*
X66150000Y-83567500D01*
X66150000Y-85317499D01*
X66868576Y-85317499D01*
X66868588Y-85317498D01*
X66921191Y-85314705D01*
X67150987Y-85270262D01*
X67369975Y-85187620D01*
X67571841Y-85069160D01*
X67571848Y-85069155D01*
X67750786Y-84918288D01*
X67750788Y-84918286D01*
X67901655Y-84739348D01*
X67901660Y-84739341D01*
X68020120Y-84537475D01*
X68102762Y-84318487D01*
X68147205Y-84088691D01*
X68147205Y-84088690D01*
X68149998Y-84036117D01*
X68150000Y-84036078D01*
X68150000Y-83317500D01*
X67333686Y-83317500D01*
X67359493Y-83277344D01*
X67400000Y-83139389D01*
X67400000Y-82995611D01*
X67359493Y-82857656D01*
X67333686Y-82817500D01*
X68149999Y-82817500D01*
X68149999Y-82098923D01*
X68149998Y-82098911D01*
X68147205Y-82046308D01*
X68102762Y-81816512D01*
X68020120Y-81597524D01*
X67901660Y-81395658D01*
X67901655Y-81395651D01*
X67750788Y-81216713D01*
X67750786Y-81216711D01*
X67571848Y-81065844D01*
X67571841Y-81065839D01*
X67369975Y-80947379D01*
X67150984Y-80864736D01*
X67145840Y-80863741D01*
X67083760Y-80831680D01*
X67048869Y-80771146D01*
X67052244Y-80701358D01*
X67092814Y-80644473D01*
X67157697Y-80618552D01*
X67169374Y-80617999D01*
X70697872Y-80617999D01*
X70757483Y-80611591D01*
X70892331Y-80561296D01*
X71007546Y-80475046D01*
X71093796Y-80359831D01*
X71144091Y-80224983D01*
X71150500Y-80165373D01*
X71150499Y-76569628D01*
X71144091Y-76510017D01*
X71137054Y-76491151D01*
X71093797Y-76375171D01*
X71093793Y-76375164D01*
X71007547Y-76259955D01*
X71007544Y-76259952D01*
X70892335Y-76173706D01*
X70892328Y-76173702D01*
X70757482Y-76123408D01*
X70757483Y-76123408D01*
X70697883Y-76117001D01*
X70697881Y-76117000D01*
X70697873Y-76117000D01*
X70697864Y-76117000D01*
X67102129Y-76117000D01*
X67102123Y-76117001D01*
X67042516Y-76123408D01*
X66907671Y-76173702D01*
X66907664Y-76173706D01*
X66792455Y-76259952D01*
X66792452Y-76259955D01*
X66706206Y-76375164D01*
X66706202Y-76375171D01*
X66655908Y-76510017D01*
X66649501Y-76569616D01*
X66649501Y-76569623D01*
X66649500Y-76569635D01*
X66649500Y-80165370D01*
X66649501Y-80165376D01*
X66655908Y-80224983D01*
X66706202Y-80359828D01*
X66706206Y-80359835D01*
X66792452Y-80475044D01*
X66792455Y-80475047D01*
X66907664Y-80561293D01*
X66907673Y-80561298D01*
X66956506Y-80579511D01*
X67012440Y-80621381D01*
X67036858Y-80686845D01*
X67022007Y-80755118D01*
X66972603Y-80804524D01*
X66906598Y-80819518D01*
X66868625Y-80817501D01*
X66868579Y-80817500D01*
X66150000Y-80817500D01*
X66150000Y-82567500D01*
X65650000Y-82567500D01*
X65650000Y-80817500D01*
X64931423Y-80817500D01*
X64931411Y-80817501D01*
X64878808Y-80820294D01*
X64649012Y-80864737D01*
X64430024Y-80947379D01*
X64228158Y-81065839D01*
X64228151Y-81065844D01*
X64049213Y-81216711D01*
X64049211Y-81216713D01*
X63898344Y-81395651D01*
X63898339Y-81395658D01*
X63779879Y-81597524D01*
X63697237Y-81816512D01*
X63652794Y-82046308D01*
X63652794Y-82046309D01*
X63650001Y-82098882D01*
X63650000Y-82098921D01*
X63650000Y-82817500D01*
X59635500Y-82817500D01*
X59635500Y-79297670D01*
X59655185Y-79230631D01*
X59671814Y-79209994D01*
X60744475Y-78137333D01*
X60805796Y-78103850D01*
X60875488Y-78108834D01*
X60888972Y-78117500D01*
X62400000Y-78117500D01*
X62400000Y-78617500D01*
X60900001Y-78617500D01*
X60900001Y-79431697D01*
X60910400Y-79563832D01*
X60965377Y-79782019D01*
X61058428Y-79986874D01*
X61058431Y-79986880D01*
X61186559Y-80171823D01*
X61186569Y-80171835D01*
X61345664Y-80330930D01*
X61345676Y-80330940D01*
X61530619Y-80459068D01*
X61530625Y-80459071D01*
X61735480Y-80552122D01*
X61953667Y-80607099D01*
X62085810Y-80617499D01*
X62649999Y-80617499D01*
X62650000Y-80617498D01*
X62650000Y-79801186D01*
X62690156Y-79826993D01*
X62828111Y-79867500D01*
X62971889Y-79867500D01*
X63109844Y-79826993D01*
X63150000Y-79801186D01*
X63150000Y-80617499D01*
X63714182Y-80617499D01*
X63714197Y-80617498D01*
X63846332Y-80607099D01*
X64064519Y-80552122D01*
X64269374Y-80459071D01*
X64269380Y-80459068D01*
X64454323Y-80330940D01*
X64454335Y-80330930D01*
X64613430Y-80171835D01*
X64613440Y-80171823D01*
X64741568Y-79986880D01*
X64741571Y-79986874D01*
X64834622Y-79782019D01*
X64889599Y-79563832D01*
X64899999Y-79431696D01*
X64900000Y-79431684D01*
X64900000Y-78617500D01*
X63400000Y-78617500D01*
X63400000Y-78117500D01*
X64899999Y-78117500D01*
X64899999Y-77303317D01*
X64899998Y-77303302D01*
X64889599Y-77171167D01*
X64834622Y-76952980D01*
X64741571Y-76748125D01*
X64741568Y-76748119D01*
X64613440Y-76563176D01*
X64613430Y-76563164D01*
X64454335Y-76404069D01*
X64454323Y-76404059D01*
X64269380Y-76275931D01*
X64269374Y-76275928D01*
X64064519Y-76182877D01*
X63846332Y-76127900D01*
X63714196Y-76117500D01*
X63063670Y-76117500D01*
X62996631Y-76097815D01*
X62950876Y-76045011D01*
X62940932Y-75975853D01*
X62969957Y-75912297D01*
X62975975Y-75905833D01*
X66531807Y-72350001D01*
X72849532Y-72350001D01*
X72869364Y-72576686D01*
X72869366Y-72576697D01*
X72928258Y-72796488D01*
X72928261Y-72796497D01*
X73024431Y-73002732D01*
X73024432Y-73002734D01*
X73154954Y-73189141D01*
X73315858Y-73350045D01*
X73476623Y-73462613D01*
X73520248Y-73517189D01*
X73529500Y-73564188D01*
X73529500Y-78156264D01*
X73527775Y-78171881D01*
X73528061Y-78171908D01*
X73527326Y-78179674D01*
X73529439Y-78246881D01*
X73529500Y-78250776D01*
X73529500Y-78278366D01*
X73530003Y-78282344D01*
X73530918Y-78293976D01*
X73532290Y-78337633D01*
X73532291Y-78337636D01*
X73537880Y-78356876D01*
X73541824Y-78375920D01*
X73544336Y-78395801D01*
X73560414Y-78436412D01*
X73564197Y-78447461D01*
X73576381Y-78489397D01*
X73586580Y-78506643D01*
X73595138Y-78524112D01*
X73602514Y-78542741D01*
X73628181Y-78578069D01*
X73634593Y-78587830D01*
X73656828Y-78625426D01*
X73656833Y-78625433D01*
X73670990Y-78639589D01*
X73683628Y-78654385D01*
X73695405Y-78670595D01*
X73695406Y-78670596D01*
X73729057Y-78698434D01*
X73737698Y-78706297D01*
X81152923Y-86121522D01*
X81186408Y-86182845D01*
X81181424Y-86252537D01*
X81139552Y-86308470D01*
X81126657Y-86316207D01*
X81126956Y-86316724D01*
X81122264Y-86319432D01*
X80935858Y-86449954D01*
X80774954Y-86610858D01*
X80644432Y-86797265D01*
X80644431Y-86797267D01*
X80548261Y-87003502D01*
X80548258Y-87003511D01*
X80489366Y-87223302D01*
X80489364Y-87223313D01*
X80469532Y-87449998D01*
X80469532Y-87450001D01*
X80489364Y-87676686D01*
X80489366Y-87676697D01*
X80548258Y-87896488D01*
X80548261Y-87896497D01*
X80644431Y-88102732D01*
X80644432Y-88102734D01*
X80774954Y-88289141D01*
X80935858Y-88450045D01*
X80935861Y-88450047D01*
X81122266Y-88580568D01*
X81328504Y-88676739D01*
X81548308Y-88735635D01*
X81710230Y-88749801D01*
X81774998Y-88755468D01*
X81775000Y-88755468D01*
X81775002Y-88755468D01*
X81831673Y-88750509D01*
X82001692Y-88735635D01*
X82118408Y-88704361D01*
X82188256Y-88706024D01*
X82246119Y-88745186D01*
X82273623Y-88809415D01*
X82274500Y-88824136D01*
X82274500Y-90989545D01*
X82254815Y-91056584D01*
X82238181Y-91077226D01*
X82189821Y-91125586D01*
X82128498Y-91159071D01*
X82070048Y-91157680D01*
X82001697Y-91139366D01*
X82001693Y-91139365D01*
X82001692Y-91139365D01*
X81888346Y-91129448D01*
X81775001Y-91119532D01*
X81774998Y-91119532D01*
X81548313Y-91139364D01*
X81548302Y-91139366D01*
X81328511Y-91198258D01*
X81328502Y-91198261D01*
X81122267Y-91294431D01*
X81122265Y-91294432D01*
X80935858Y-91424954D01*
X80774954Y-91585858D01*
X80644432Y-91772265D01*
X80644431Y-91772267D01*
X80548261Y-91978502D01*
X80548258Y-91978511D01*
X80489366Y-92198302D01*
X80489364Y-92198313D01*
X80469532Y-92424998D01*
X80469532Y-92425001D01*
X80489364Y-92651686D01*
X80489366Y-92651697D01*
X80548258Y-92871488D01*
X80548261Y-92871497D01*
X80644431Y-93077732D01*
X80644432Y-93077734D01*
X80774954Y-93264141D01*
X80935858Y-93425045D01*
X80935861Y-93425047D01*
X81122266Y-93555568D01*
X81328504Y-93651739D01*
X81548308Y-93710635D01*
X81710230Y-93724801D01*
X81774998Y-93730468D01*
X81775000Y-93730468D01*
X81775002Y-93730468D01*
X81831673Y-93725509D01*
X82001692Y-93710635D01*
X82221496Y-93651739D01*
X82427734Y-93555568D01*
X82614139Y-93425047D01*
X82775047Y-93264139D01*
X82905568Y-93077734D01*
X83001739Y-92871496D01*
X83060635Y-92651692D01*
X83080468Y-92425000D01*
X83077748Y-92393915D01*
X83064438Y-92241777D01*
X83060635Y-92198308D01*
X83042318Y-92129948D01*
X83043981Y-92060103D01*
X83074410Y-92010179D01*
X83283788Y-91800801D01*
X83296042Y-91790986D01*
X83295859Y-91790764D01*
X83301868Y-91785791D01*
X83301877Y-91785786D01*
X83347949Y-91736722D01*
X83350566Y-91734023D01*
X83370120Y-91714471D01*
X83372576Y-91711303D01*
X83380156Y-91702427D01*
X83410062Y-91670582D01*
X83419713Y-91653024D01*
X83430396Y-91636761D01*
X83442673Y-91620936D01*
X83460021Y-91580844D01*
X83465151Y-91570371D01*
X83486197Y-91532092D01*
X83491180Y-91512680D01*
X83497481Y-91494280D01*
X83505437Y-91475896D01*
X83512270Y-91432748D01*
X83514633Y-91421338D01*
X83525500Y-91379019D01*
X83525500Y-91358983D01*
X83527027Y-91339582D01*
X83530160Y-91319804D01*
X83526050Y-91276324D01*
X83525500Y-91264655D01*
X83525500Y-87066751D01*
X83527224Y-87051131D01*
X83526939Y-87051104D01*
X83527673Y-87043342D01*
X83525561Y-86976121D01*
X83525500Y-86972227D01*
X83525500Y-86944665D01*
X83525500Y-86944659D01*
X83524996Y-86940677D01*
X83524081Y-86929038D01*
X83522710Y-86885382D01*
X83517119Y-86866139D01*
X83513173Y-86847087D01*
X83510664Y-86827217D01*
X83494579Y-86786592D01*
X83490806Y-86775571D01*
X83478618Y-86733619D01*
X83478617Y-86733618D01*
X83478617Y-86733616D01*
X83478616Y-86733615D01*
X83468423Y-86716380D01*
X83459861Y-86698903D01*
X83452487Y-86680278D01*
X83426816Y-86644946D01*
X83420405Y-86635186D01*
X83398170Y-86597589D01*
X83398168Y-86597587D01*
X83398165Y-86597583D01*
X83384006Y-86583424D01*
X83371368Y-86568628D01*
X83359594Y-86552422D01*
X83325940Y-86524581D01*
X83317299Y-86516718D01*
X74816819Y-78016237D01*
X74783334Y-77954914D01*
X74780500Y-77928556D01*
X74780500Y-77160006D01*
X78169700Y-77160006D01*
X78188864Y-77391297D01*
X78188866Y-77391308D01*
X78245842Y-77616300D01*
X78339075Y-77828848D01*
X78466018Y-78023150D01*
X78561167Y-78126510D01*
X78592089Y-78189164D01*
X78584228Y-78258590D01*
X78540081Y-78312746D01*
X78513271Y-78326674D01*
X78432911Y-78356646D01*
X78432906Y-78356649D01*
X78317812Y-78442809D01*
X78317809Y-78442812D01*
X78231649Y-78557906D01*
X78231645Y-78557913D01*
X78181403Y-78692620D01*
X78181401Y-78692627D01*
X78175000Y-78752155D01*
X78175000Y-79450000D01*
X79199722Y-79450000D01*
X79151375Y-79533740D01*
X79121190Y-79665992D01*
X79131327Y-79801265D01*
X79180887Y-79927541D01*
X79198797Y-79950000D01*
X78175000Y-79950000D01*
X78175000Y-80647844D01*
X78181401Y-80707372D01*
X78181403Y-80707379D01*
X78231645Y-80842086D01*
X78231649Y-80842093D01*
X78317809Y-80957187D01*
X78317812Y-80957190D01*
X78432906Y-81043350D01*
X78432913Y-81043354D01*
X78567620Y-81093596D01*
X78567627Y-81093598D01*
X78627155Y-81099999D01*
X78627172Y-81100000D01*
X79325000Y-81100000D01*
X79325000Y-80074189D01*
X79377547Y-80110016D01*
X79507173Y-80150000D01*
X79608724Y-80150000D01*
X79709138Y-80134865D01*
X79825000Y-80079068D01*
X79825000Y-81100000D01*
X80522828Y-81100000D01*
X80522844Y-81099999D01*
X80582372Y-81093598D01*
X80582379Y-81093596D01*
X80717086Y-81043354D01*
X80717093Y-81043350D01*
X80832187Y-80957190D01*
X80832190Y-80957187D01*
X80918350Y-80842093D01*
X80918354Y-80842086D01*
X80968596Y-80707379D01*
X80968598Y-80707372D01*
X80974999Y-80647844D01*
X80975000Y-80647827D01*
X80975000Y-79950000D01*
X79950278Y-79950000D01*
X79998625Y-79866260D01*
X80028810Y-79734008D01*
X80018673Y-79598735D01*
X79969113Y-79472459D01*
X79951203Y-79450000D01*
X80975000Y-79450000D01*
X80975000Y-78752172D01*
X80974999Y-78752155D01*
X80968598Y-78692627D01*
X80968596Y-78692620D01*
X80918354Y-78557913D01*
X80918350Y-78557906D01*
X80832190Y-78442812D01*
X80832187Y-78442809D01*
X80717093Y-78356649D01*
X80717086Y-78356645D01*
X80636729Y-78326674D01*
X80580795Y-78284803D01*
X80556378Y-78219338D01*
X80571230Y-78151065D01*
X80588826Y-78126516D01*
X80683979Y-78023153D01*
X80810924Y-77828849D01*
X80904157Y-77616300D01*
X80961134Y-77391305D01*
X80980300Y-77160000D01*
X80980300Y-77159993D01*
X80961135Y-76928702D01*
X80961133Y-76928691D01*
X80904157Y-76703699D01*
X80810924Y-76491151D01*
X80683983Y-76296852D01*
X80683980Y-76296849D01*
X80683979Y-76296847D01*
X80526784Y-76126087D01*
X80526779Y-76126083D01*
X80526777Y-76126081D01*
X80343634Y-75983535D01*
X80343628Y-75983531D01*
X80139504Y-75873064D01*
X80139495Y-75873061D01*
X79919984Y-75797702D01*
X79748282Y-75769050D01*
X79691049Y-75759500D01*
X79458951Y-75759500D01*
X79413164Y-75767140D01*
X79230015Y-75797702D01*
X79010504Y-75873061D01*
X79010495Y-75873064D01*
X78806371Y-75983531D01*
X78806365Y-75983535D01*
X78623222Y-76126081D01*
X78623219Y-76126084D01*
X78623216Y-76126086D01*
X78623216Y-76126087D01*
X78579382Y-76173704D01*
X78466016Y-76296852D01*
X78339075Y-76491151D01*
X78245842Y-76703699D01*
X78188866Y-76928691D01*
X78188864Y-76928702D01*
X78169700Y-77159993D01*
X78169700Y-77160006D01*
X74780500Y-77160006D01*
X74780500Y-73564188D01*
X74800185Y-73497149D01*
X74833377Y-73462613D01*
X74881836Y-73428681D01*
X74994139Y-73350047D01*
X75155047Y-73189139D01*
X75285568Y-73002734D01*
X75381739Y-72796496D01*
X75440635Y-72576692D01*
X75460468Y-72350000D01*
X75440635Y-72123308D01*
X75381739Y-71903504D01*
X75285568Y-71697266D01*
X75155047Y-71510861D01*
X75155045Y-71510858D01*
X74994141Y-71349954D01*
X74807734Y-71219432D01*
X74807732Y-71219431D01*
X74601497Y-71123261D01*
X74601488Y-71123258D01*
X74381697Y-71064366D01*
X74381693Y-71064365D01*
X74381692Y-71064365D01*
X74381691Y-71064364D01*
X74381686Y-71064364D01*
X74155002Y-71044532D01*
X74154998Y-71044532D01*
X73928313Y-71064364D01*
X73928302Y-71064366D01*
X73708511Y-71123258D01*
X73708502Y-71123261D01*
X73502267Y-71219431D01*
X73502265Y-71219432D01*
X73315858Y-71349954D01*
X73154954Y-71510858D01*
X73024432Y-71697265D01*
X73024431Y-71697267D01*
X72928261Y-71903502D01*
X72928258Y-71903511D01*
X72869366Y-72123302D01*
X72869364Y-72123313D01*
X72849532Y-72349998D01*
X72849532Y-72350001D01*
X66531807Y-72350001D01*
X69620597Y-69261211D01*
X69626017Y-69256109D01*
X69669332Y-69217737D01*
X69702218Y-69170091D01*
X69706624Y-69164104D01*
X69742326Y-69118536D01*
X69746172Y-69109988D01*
X69757197Y-69090443D01*
X69762517Y-69082735D01*
X69762516Y-69082735D01*
X69762518Y-69082734D01*
X69783036Y-69028630D01*
X69785901Y-69021716D01*
X69809646Y-68968955D01*
X69809650Y-68968947D01*
X69811338Y-68959729D01*
X69817366Y-68938111D01*
X69820688Y-68929353D01*
X69827663Y-68871904D01*
X69828790Y-68864501D01*
X69839219Y-68807593D01*
X69835725Y-68749842D01*
X69835500Y-68742357D01*
X69835500Y-67300000D01*
X73011763Y-67300000D01*
X73032265Y-67521259D01*
X73032266Y-67521261D01*
X73093074Y-67734979D01*
X73093080Y-67734994D01*
X73192122Y-67933896D01*
X73326033Y-68111224D01*
X73490244Y-68260921D01*
X73490246Y-68260923D01*
X73679166Y-68377897D01*
X73679172Y-68377900D01*
X73708106Y-68389109D01*
X73886372Y-68458170D01*
X74104796Y-68499000D01*
X74104799Y-68499000D01*
X74327001Y-68499000D01*
X74327004Y-68499000D01*
X74545428Y-68458170D01*
X74752630Y-68377899D01*
X74941555Y-68260922D01*
X75105768Y-68111222D01*
X75239678Y-67933896D01*
X75338724Y-67734984D01*
X75346634Y-67707182D01*
X75383913Y-67648089D01*
X75447223Y-67618532D01*
X75516462Y-67627894D01*
X75569649Y-67673204D01*
X75585166Y-67707183D01*
X75593074Y-67734979D01*
X75593080Y-67734994D01*
X75692122Y-67933896D01*
X75826033Y-68111224D01*
X75990244Y-68260921D01*
X75990246Y-68260923D01*
X76179166Y-68377897D01*
X76179172Y-68377900D01*
X76208106Y-68389109D01*
X76386372Y-68458170D01*
X76604796Y-68499000D01*
X76604799Y-68499000D01*
X76827001Y-68499000D01*
X76827004Y-68499000D01*
X77045428Y-68458170D01*
X77252630Y-68377899D01*
X77441555Y-68260922D01*
X77605768Y-68111222D01*
X77739678Y-67933896D01*
X77838724Y-67734984D01*
X77846634Y-67707182D01*
X77883913Y-67648089D01*
X77947223Y-67618532D01*
X78016462Y-67627894D01*
X78069649Y-67673204D01*
X78085166Y-67707183D01*
X78093074Y-67734979D01*
X78093080Y-67734994D01*
X78192122Y-67933896D01*
X78326033Y-68111224D01*
X78490244Y-68260921D01*
X78490246Y-68260923D01*
X78679166Y-68377897D01*
X78679172Y-68377900D01*
X78708106Y-68389109D01*
X78886372Y-68458170D01*
X79104796Y-68499000D01*
X79104799Y-68499000D01*
X79327001Y-68499000D01*
X79327004Y-68499000D01*
X79545428Y-68458170D01*
X79752630Y-68377899D01*
X79941555Y-68260922D01*
X80105768Y-68111222D01*
X80239678Y-67933896D01*
X80338724Y-67734984D01*
X80399534Y-67521260D01*
X80420037Y-67300000D01*
X80418401Y-67282350D01*
X80399534Y-67078740D01*
X80399533Y-67078738D01*
X80397511Y-67071633D01*
X80338724Y-66865016D01*
X80239678Y-66666104D01*
X80105768Y-66488778D01*
X80105766Y-66488775D01*
X79941555Y-66339078D01*
X79941553Y-66339076D01*
X79752633Y-66222102D01*
X79752627Y-66222099D01*
X79644980Y-66180397D01*
X79545428Y-66141830D01*
X79327004Y-66101000D01*
X79104796Y-66101000D01*
X78886372Y-66141830D01*
X78836595Y-66161113D01*
X78679172Y-66222099D01*
X78679166Y-66222102D01*
X78490246Y-66339076D01*
X78490244Y-66339078D01*
X78326033Y-66488775D01*
X78192122Y-66666103D01*
X78093080Y-66865005D01*
X78093075Y-66865018D01*
X78085166Y-66892817D01*
X78047886Y-66951910D01*
X77984576Y-66981467D01*
X77915337Y-66972105D01*
X77862151Y-66926794D01*
X77846634Y-66892817D01*
X77838725Y-66865020D01*
X77838724Y-66865016D01*
X77739678Y-66666104D01*
X77605768Y-66488778D01*
X77605766Y-66488775D01*
X77441555Y-66339078D01*
X77441553Y-66339076D01*
X77252633Y-66222102D01*
X77252627Y-66222099D01*
X77144980Y-66180397D01*
X77045428Y-66141830D01*
X76827004Y-66101000D01*
X76604796Y-66101000D01*
X76386372Y-66141830D01*
X76336595Y-66161113D01*
X76179172Y-66222099D01*
X76179166Y-66222102D01*
X75990246Y-66339076D01*
X75990244Y-66339078D01*
X75826033Y-66488775D01*
X75692122Y-66666103D01*
X75593080Y-66865005D01*
X75593075Y-66865018D01*
X75585166Y-66892817D01*
X75547886Y-66951910D01*
X75484576Y-66981467D01*
X75415337Y-66972105D01*
X75362151Y-66926794D01*
X75346634Y-66892817D01*
X75338725Y-66865020D01*
X75338724Y-66865016D01*
X75239678Y-66666104D01*
X75105768Y-66488778D01*
X75105766Y-66488775D01*
X74941555Y-66339078D01*
X74941553Y-66339076D01*
X74752633Y-66222102D01*
X74752627Y-66222099D01*
X74644980Y-66180397D01*
X74545428Y-66141830D01*
X74327004Y-66101000D01*
X74104796Y-66101000D01*
X73886372Y-66141830D01*
X73836595Y-66161113D01*
X73679172Y-66222099D01*
X73679166Y-66222102D01*
X73490246Y-66339076D01*
X73490244Y-66339078D01*
X73326033Y-66488775D01*
X73192122Y-66666103D01*
X73093080Y-66865005D01*
X73093074Y-66865020D01*
X73032266Y-67078738D01*
X73032265Y-67078740D01*
X73011763Y-67299999D01*
X73011763Y-67300000D01*
X69835500Y-67300000D01*
X69835500Y-64299500D01*
X69855185Y-64232461D01*
X69907989Y-64186706D01*
X69959500Y-64175500D01*
X82700500Y-64175500D01*
X82767539Y-64195185D01*
X82813294Y-64247989D01*
X82824500Y-64299500D01*
X82824500Y-70293835D01*
X82804815Y-70360874D01*
X82788181Y-70381516D01*
X82134053Y-71035643D01*
X82072730Y-71069128D01*
X82014285Y-71067739D01*
X82008920Y-71066301D01*
X82001692Y-71064365D01*
X82001689Y-71064364D01*
X82001686Y-71064364D01*
X81775001Y-71044532D01*
X81774998Y-71044532D01*
X81548313Y-71064364D01*
X81548302Y-71064366D01*
X81328511Y-71123258D01*
X81328502Y-71123261D01*
X81122267Y-71219431D01*
X81122265Y-71219432D01*
X80935858Y-71349954D01*
X80774954Y-71510858D01*
X80644432Y-71697265D01*
X80644431Y-71697267D01*
X80548261Y-71903502D01*
X80548258Y-71903511D01*
X80489366Y-72123302D01*
X80489364Y-72123313D01*
X80469532Y-72349998D01*
X80469532Y-72350001D01*
X80489364Y-72576686D01*
X80489366Y-72576697D01*
X80548258Y-72796488D01*
X80548261Y-72796497D01*
X80644431Y-73002732D01*
X80644432Y-73002734D01*
X80774954Y-73189141D01*
X80935858Y-73350045D01*
X80935861Y-73350047D01*
X81122266Y-73480568D01*
X81328504Y-73576739D01*
X81548308Y-73635635D01*
X81710230Y-73649801D01*
X81774998Y-73655468D01*
X81775000Y-73655468D01*
X81775002Y-73655468D01*
X81831673Y-73650509D01*
X82001692Y-73635635D01*
X82221496Y-73576739D01*
X82427734Y-73480568D01*
X82614139Y-73350047D01*
X82775047Y-73189139D01*
X82905568Y-73002734D01*
X83001739Y-72796496D01*
X83060635Y-72576692D01*
X83080468Y-72350000D01*
X83060635Y-72123308D01*
X83057262Y-72110720D01*
X83058923Y-72040874D01*
X83089353Y-71990947D01*
X83960597Y-71119703D01*
X83966017Y-71114601D01*
X84009332Y-71076229D01*
X84042211Y-71028593D01*
X84046628Y-71022590D01*
X84082325Y-70977028D01*
X84086169Y-70968485D01*
X84097197Y-70948932D01*
X84102518Y-70941226D01*
X84123049Y-70887087D01*
X84125888Y-70880233D01*
X84149650Y-70827439D01*
X84151338Y-70818221D01*
X84157366Y-70796603D01*
X84160688Y-70787845D01*
X84167663Y-70730396D01*
X84168790Y-70722993D01*
X84179219Y-70666085D01*
X84175726Y-70608340D01*
X84175500Y-70600853D01*
X84175500Y-63417981D01*
X84175500Y-63417979D01*
X84167440Y-63385284D01*
X84164743Y-63370560D01*
X84160688Y-63337159D01*
X84160688Y-63337155D01*
X84148751Y-63305683D01*
X84144297Y-63291387D01*
X84136243Y-63258708D01*
X84136242Y-63258707D01*
X84136242Y-63258705D01*
X84120592Y-63228887D01*
X84114453Y-63215245D01*
X84102518Y-63183774D01*
X84083390Y-63156063D01*
X84075654Y-63143266D01*
X84060008Y-63113454D01*
X84037683Y-63088254D01*
X84028450Y-63076468D01*
X84009333Y-63048773D01*
X84009331Y-63048770D01*
X84005625Y-63045487D01*
X83984134Y-63026447D01*
X83973554Y-63015867D01*
X83951230Y-62990669D01*
X83951224Y-62990664D01*
X83923530Y-62971548D01*
X83911745Y-62962316D01*
X83910353Y-62961083D01*
X83886546Y-62939992D01*
X83886544Y-62939991D01*
X83886545Y-62939991D01*
X83871391Y-62932038D01*
X83856736Y-62924346D01*
X83843927Y-62916603D01*
X83816226Y-62897482D01*
X83816220Y-62897479D01*
X83784756Y-62885546D01*
X83771107Y-62879403D01*
X83741296Y-62863758D01*
X83741290Y-62863756D01*
X83708607Y-62855700D01*
X83694313Y-62851246D01*
X83662846Y-62839312D01*
X83629435Y-62835255D01*
X83614708Y-62832556D01*
X83582023Y-62824500D01*
X83582021Y-62824500D01*
X83540857Y-62824500D01*
X69491164Y-62824500D01*
X69424125Y-62804815D01*
X69403483Y-62788181D01*
X65663146Y-59047844D01*
X73160000Y-59047844D01*
X73166401Y-59107372D01*
X73166403Y-59107379D01*
X73216645Y-59242086D01*
X73216649Y-59242093D01*
X73302809Y-59357187D01*
X73302812Y-59357190D01*
X73417906Y-59443350D01*
X73417913Y-59443354D01*
X73552620Y-59493596D01*
X73552627Y-59493598D01*
X73612155Y-59499999D01*
X73612172Y-59500000D01*
X74910000Y-59500000D01*
X74910000Y-58221802D01*
X75071169Y-58260000D01*
X75204267Y-58260000D01*
X75336461Y-58244549D01*
X75410000Y-58217782D01*
X75410000Y-59500000D01*
X76707828Y-59500000D01*
X76707844Y-59499999D01*
X76767372Y-59493598D01*
X76767379Y-59493596D01*
X76902086Y-59443354D01*
X76902093Y-59443350D01*
X77017187Y-59357190D01*
X77017190Y-59357187D01*
X77103350Y-59242093D01*
X77103354Y-59242086D01*
X77153596Y-59107379D01*
X77153598Y-59107372D01*
X77159999Y-59047844D01*
X77160000Y-59047827D01*
X77160000Y-57750000D01*
X75878483Y-57750000D01*
X75913549Y-57632871D01*
X75921288Y-57500001D01*
X78234390Y-57500001D01*
X78254804Y-57785433D01*
X78315628Y-58065037D01*
X78315630Y-58065043D01*
X78315631Y-58065046D01*
X78388345Y-58260000D01*
X78415635Y-58333166D01*
X78552770Y-58584309D01*
X78552775Y-58584317D01*
X78724254Y-58813387D01*
X78724270Y-58813405D01*
X78926594Y-59015729D01*
X78926612Y-59015745D01*
X79155682Y-59187224D01*
X79155690Y-59187229D01*
X79406833Y-59324364D01*
X79406832Y-59324364D01*
X79406836Y-59324365D01*
X79406839Y-59324367D01*
X79674954Y-59424369D01*
X79674960Y-59424370D01*
X79674962Y-59424371D01*
X79954566Y-59485195D01*
X79954568Y-59485195D01*
X79954572Y-59485196D01*
X80208220Y-59503337D01*
X80239999Y-59505610D01*
X80240000Y-59505610D01*
X80240001Y-59505610D01*
X80268595Y-59503564D01*
X80525428Y-59485196D01*
X80805046Y-59424369D01*
X81073161Y-59324367D01*
X81324315Y-59187226D01*
X81553395Y-59015739D01*
X81755739Y-58813395D01*
X81927226Y-58584315D01*
X82064367Y-58333161D01*
X82164369Y-58065046D01*
X82213325Y-57840000D01*
X85034341Y-57840000D01*
X85054936Y-58075403D01*
X85054938Y-58075413D01*
X85116094Y-58303655D01*
X85116096Y-58303659D01*
X85116097Y-58303663D01*
X85129855Y-58333166D01*
X85215965Y-58517830D01*
X85215967Y-58517834D01*
X85324281Y-58672521D01*
X85351505Y-58711401D01*
X85518599Y-58878495D01*
X85615384Y-58946265D01*
X85712165Y-59014032D01*
X85712167Y-59014033D01*
X85712170Y-59014035D01*
X85926337Y-59113903D01*
X86154592Y-59175063D01*
X86342918Y-59191539D01*
X86389999Y-59195659D01*
X86390000Y-59195659D01*
X86390001Y-59195659D01*
X86429234Y-59192226D01*
X86625408Y-59175063D01*
X86853663Y-59113903D01*
X87067830Y-59014035D01*
X87261401Y-58878495D01*
X87428495Y-58711401D01*
X87564035Y-58517830D01*
X87663903Y-58303663D01*
X87725063Y-58075408D01*
X87745659Y-57840000D01*
X87725063Y-57604592D01*
X87663903Y-57376337D01*
X87564035Y-57162171D01*
X87532695Y-57117413D01*
X87428496Y-56968600D01*
X87373739Y-56913843D01*
X87306179Y-56846283D01*
X87272696Y-56784963D01*
X87277680Y-56715271D01*
X87319551Y-56659337D01*
X87350529Y-56642422D01*
X87482086Y-56593354D01*
X87482093Y-56593350D01*
X87597187Y-56507190D01*
X87597190Y-56507187D01*
X87683350Y-56392093D01*
X87683354Y-56392086D01*
X87733596Y-56257379D01*
X87733598Y-56257372D01*
X87739999Y-56197844D01*
X87740000Y-56197827D01*
X87740000Y-55550000D01*
X86823686Y-55550000D01*
X86849493Y-55509844D01*
X86890000Y-55371889D01*
X86890000Y-55228111D01*
X86849493Y-55090156D01*
X86823686Y-55050000D01*
X87740000Y-55050000D01*
X87740000Y-54402172D01*
X87739999Y-54402155D01*
X87733598Y-54342627D01*
X87733596Y-54342620D01*
X87683354Y-54207913D01*
X87683350Y-54207906D01*
X87597190Y-54092812D01*
X87597187Y-54092809D01*
X87482093Y-54006649D01*
X87482086Y-54006645D01*
X87347379Y-53956403D01*
X87347372Y-53956401D01*
X87287844Y-53950000D01*
X86640000Y-53950000D01*
X86640000Y-54864498D01*
X86532315Y-54815320D01*
X86425763Y-54800000D01*
X86354237Y-54800000D01*
X86247685Y-54815320D01*
X86140000Y-54864498D01*
X86140000Y-53950000D01*
X85492155Y-53950000D01*
X85432627Y-53956401D01*
X85432620Y-53956403D01*
X85297913Y-54006645D01*
X85297906Y-54006649D01*
X85182812Y-54092809D01*
X85182809Y-54092812D01*
X85096649Y-54207906D01*
X85096645Y-54207913D01*
X85046403Y-54342620D01*
X85046401Y-54342627D01*
X85040000Y-54402155D01*
X85040000Y-55050000D01*
X85956314Y-55050000D01*
X85930507Y-55090156D01*
X85890000Y-55228111D01*
X85890000Y-55371889D01*
X85930507Y-55509844D01*
X85956314Y-55550000D01*
X85040000Y-55550000D01*
X85040000Y-56197844D01*
X85046401Y-56257372D01*
X85046403Y-56257379D01*
X85096645Y-56392086D01*
X85096649Y-56392093D01*
X85182809Y-56507187D01*
X85182812Y-56507190D01*
X85297906Y-56593350D01*
X85297913Y-56593354D01*
X85429470Y-56642421D01*
X85485403Y-56684292D01*
X85509821Y-56749756D01*
X85494970Y-56818029D01*
X85473819Y-56846284D01*
X85351503Y-56968600D01*
X85215965Y-57162169D01*
X85215964Y-57162171D01*
X85116098Y-57376335D01*
X85116094Y-57376344D01*
X85054938Y-57604586D01*
X85054936Y-57604596D01*
X85034341Y-57839999D01*
X85034341Y-57840000D01*
X82213325Y-57840000D01*
X82225196Y-57785428D01*
X82245610Y-57500000D01*
X82225196Y-57214572D01*
X82221358Y-57196930D01*
X82164371Y-56934962D01*
X82164370Y-56934960D01*
X82164369Y-56934954D01*
X82064367Y-56666839D01*
X82058262Y-56655659D01*
X81927229Y-56415690D01*
X81927224Y-56415682D01*
X81755745Y-56186612D01*
X81755729Y-56186594D01*
X81553405Y-55984270D01*
X81553387Y-55984254D01*
X81324317Y-55812775D01*
X81324309Y-55812770D01*
X81073166Y-55675635D01*
X81073167Y-55675635D01*
X80952954Y-55630798D01*
X80805046Y-55575631D01*
X80805043Y-55575630D01*
X80805037Y-55575628D01*
X80525433Y-55514804D01*
X80240001Y-55494390D01*
X80239999Y-55494390D01*
X79954566Y-55514804D01*
X79674962Y-55575628D01*
X79406833Y-55675635D01*
X79155690Y-55812770D01*
X79155682Y-55812775D01*
X78926612Y-55984254D01*
X78926594Y-55984270D01*
X78724270Y-56186594D01*
X78724254Y-56186612D01*
X78552775Y-56415682D01*
X78552770Y-56415690D01*
X78415635Y-56666833D01*
X78315628Y-56934962D01*
X78254804Y-57214566D01*
X78234390Y-57499998D01*
X78234390Y-57500001D01*
X75921288Y-57500001D01*
X75923879Y-57455509D01*
X75893029Y-57280546D01*
X75879853Y-57250000D01*
X77160000Y-57250000D01*
X77160000Y-55952172D01*
X77159999Y-55952155D01*
X77153598Y-55892627D01*
X77153596Y-55892620D01*
X77103354Y-55757913D01*
X77103350Y-55757906D01*
X77017190Y-55642812D01*
X77017187Y-55642809D01*
X76902093Y-55556649D01*
X76902086Y-55556645D01*
X76767379Y-55506403D01*
X76767372Y-55506401D01*
X76707844Y-55500000D01*
X75410000Y-55500000D01*
X75410000Y-56778197D01*
X75248831Y-56740000D01*
X75115733Y-56740000D01*
X74983539Y-56755451D01*
X74910000Y-56782217D01*
X74910000Y-55500000D01*
X73612155Y-55500000D01*
X73552627Y-55506401D01*
X73552620Y-55506403D01*
X73417913Y-55556645D01*
X73417906Y-55556649D01*
X73302812Y-55642809D01*
X73302809Y-55642812D01*
X73216649Y-55757906D01*
X73216645Y-55757913D01*
X73166403Y-55892620D01*
X73166401Y-55892627D01*
X73160000Y-55952155D01*
X73160000Y-57250000D01*
X74441517Y-57250000D01*
X74406451Y-57367129D01*
X74396121Y-57544491D01*
X74426971Y-57719454D01*
X74440147Y-57750000D01*
X73160000Y-57750000D01*
X73160000Y-59047844D01*
X65663146Y-59047844D01*
X63477419Y-56862117D01*
X63443934Y-56800794D01*
X63448918Y-56731102D01*
X63490790Y-56675169D01*
X63554290Y-56650909D01*
X63735408Y-56635063D01*
X63963663Y-56573903D01*
X64177830Y-56474035D01*
X64371401Y-56338495D01*
X64538495Y-56171401D01*
X64668425Y-55985842D01*
X64723002Y-55942217D01*
X64792500Y-55935023D01*
X64854855Y-55966546D01*
X64871575Y-55985842D01*
X65001500Y-56171395D01*
X65001505Y-56171401D01*
X65168599Y-56338495D01*
X65265384Y-56406265D01*
X65362165Y-56474032D01*
X65362167Y-56474033D01*
X65362170Y-56474035D01*
X65576337Y-56573903D01*
X65804592Y-56635063D01*
X65981034Y-56650500D01*
X66039999Y-56655659D01*
X66040000Y-56655659D01*
X66040001Y-56655659D01*
X66098966Y-56650500D01*
X66275408Y-56635063D01*
X66503663Y-56573903D01*
X66717830Y-56474035D01*
X66911401Y-56338495D01*
X67078495Y-56171401D01*
X67214035Y-55977830D01*
X67313903Y-55763663D01*
X67375063Y-55535408D01*
X67395659Y-55300000D01*
X67375063Y-55064592D01*
X67313903Y-54836337D01*
X67214035Y-54622171D01*
X67208425Y-54614158D01*
X67078494Y-54428597D01*
X66911402Y-54261506D01*
X66911395Y-54261501D01*
X66717834Y-54125967D01*
X66717830Y-54125965D01*
X66646727Y-54092809D01*
X66503663Y-54026097D01*
X66503659Y-54026096D01*
X66503655Y-54026094D01*
X66275413Y-53964938D01*
X66275403Y-53964936D01*
X66040001Y-53944341D01*
X66039999Y-53944341D01*
X65804596Y-53964936D01*
X65804586Y-53964938D01*
X65576344Y-54026094D01*
X65576335Y-54026098D01*
X65362171Y-54125964D01*
X65362169Y-54125965D01*
X65168597Y-54261505D01*
X65001505Y-54428597D01*
X64871575Y-54614158D01*
X64816998Y-54657783D01*
X64747500Y-54664977D01*
X64685145Y-54633454D01*
X64668425Y-54614158D01*
X64538494Y-54428597D01*
X64371402Y-54261506D01*
X64371395Y-54261501D01*
X64177834Y-54125967D01*
X64177830Y-54125965D01*
X64106727Y-54092809D01*
X63963663Y-54026097D01*
X63963659Y-54026096D01*
X63963655Y-54026094D01*
X63735413Y-53964938D01*
X63735403Y-53964936D01*
X63500001Y-53944341D01*
X63499999Y-53944341D01*
X63264596Y-53964936D01*
X63264586Y-53964938D01*
X63036344Y-54026094D01*
X63036335Y-54026098D01*
X62822171Y-54125964D01*
X62822169Y-54125965D01*
X62628600Y-54261503D01*
X62506673Y-54383430D01*
X62445350Y-54416914D01*
X62375658Y-54411930D01*
X62319725Y-54370058D01*
X62302810Y-54339081D01*
X62253797Y-54207671D01*
X62253793Y-54207664D01*
X62167547Y-54092455D01*
X62167544Y-54092452D01*
X62052335Y-54006206D01*
X62052328Y-54006202D01*
X61917482Y-53955908D01*
X61917483Y-53955908D01*
X61857883Y-53949501D01*
X61857881Y-53949500D01*
X61857873Y-53949500D01*
X61857864Y-53949500D01*
X60062129Y-53949500D01*
X60062123Y-53949501D01*
X60002516Y-53955908D01*
X59867671Y-54006202D01*
X59867664Y-54006206D01*
X59752455Y-54092452D01*
X59752452Y-54092455D01*
X59666206Y-54207664D01*
X59666202Y-54207671D01*
X59615908Y-54342517D01*
X59609501Y-54402116D01*
X59609500Y-54402135D01*
X59609500Y-56197870D01*
X59609501Y-56197876D01*
X59615908Y-56257483D01*
X59666202Y-56392328D01*
X59666206Y-56392335D01*
X59752452Y-56507544D01*
X59752455Y-56507547D01*
X59867664Y-56593793D01*
X59867671Y-56593797D01*
X60002517Y-56644091D01*
X60002516Y-56644091D01*
X60009444Y-56644835D01*
X60062127Y-56650500D01*
X61303836Y-56650499D01*
X61370875Y-56670184D01*
X61391517Y-56686818D01*
X65957979Y-61253280D01*
X65991464Y-61314603D01*
X65986480Y-61384295D01*
X65944608Y-61440228D01*
X65922703Y-61453343D01*
X65712422Y-61551399D01*
X65712420Y-61551400D01*
X65518926Y-61686886D01*
X65396865Y-61808947D01*
X65335542Y-61842431D01*
X65265850Y-61837447D01*
X65209917Y-61795575D01*
X65193002Y-61764598D01*
X65192016Y-61761955D01*
X65143796Y-61632669D01*
X65143795Y-61632668D01*
X65143793Y-61632664D01*
X65057547Y-61517455D01*
X65057544Y-61517452D01*
X64942335Y-61431206D01*
X64942328Y-61431202D01*
X64807482Y-61380908D01*
X64807483Y-61380908D01*
X64747883Y-61374501D01*
X64747881Y-61374500D01*
X64747873Y-61374500D01*
X64747864Y-61374500D01*
X62952129Y-61374500D01*
X62952123Y-61374501D01*
X62892516Y-61380908D01*
X62757671Y-61431202D01*
X62757664Y-61431206D01*
X62642455Y-61517452D01*
X62642452Y-61517455D01*
X62556206Y-61632664D01*
X62556202Y-61632671D01*
X62505908Y-61767517D01*
X62499501Y-61827116D01*
X62499500Y-61827135D01*
X62499500Y-63622870D01*
X62499501Y-63622876D01*
X62505908Y-63682483D01*
X62556202Y-63817328D01*
X62556206Y-63817335D01*
X62642452Y-63932544D01*
X62642455Y-63932547D01*
X62757664Y-64018793D01*
X62757671Y-64018797D01*
X62892517Y-64069091D01*
X62892516Y-64069091D01*
X62899444Y-64069835D01*
X62952127Y-64075500D01*
X64747872Y-64075499D01*
X64807483Y-64069091D01*
X64942331Y-64018796D01*
X65057546Y-63932546D01*
X65143796Y-63817331D01*
X65193002Y-63685401D01*
X65234872Y-63629468D01*
X65300337Y-63605050D01*
X65368610Y-63619901D01*
X65396865Y-63641053D01*
X65518917Y-63763105D01*
X65712421Y-63898600D01*
X65926507Y-63998429D01*
X65926516Y-63998433D01*
X66140000Y-64055634D01*
X66140000Y-63160501D01*
X66247685Y-63209680D01*
X66354237Y-63225000D01*
X66425763Y-63225000D01*
X66532315Y-63209680D01*
X66640000Y-63160501D01*
X66640000Y-64055633D01*
X66853483Y-63998433D01*
X66853492Y-63998429D01*
X67067578Y-63898600D01*
X67261082Y-63763105D01*
X67428105Y-63596082D01*
X67563599Y-63402578D01*
X67661656Y-63192296D01*
X67707828Y-63139857D01*
X67775022Y-63120705D01*
X67841903Y-63140921D01*
X67861719Y-63157020D01*
X68448181Y-63743482D01*
X68481666Y-63804805D01*
X68484500Y-63831163D01*
X68484500Y-68435344D01*
X68464815Y-68502383D01*
X68448181Y-68523025D01*
X58499424Y-78471781D01*
X58493972Y-78476914D01*
X58450669Y-78515277D01*
X58450667Y-78515280D01*
X58417800Y-78562895D01*
X58413363Y-78568925D01*
X58377674Y-78614478D01*
X58373824Y-78623033D01*
X58362808Y-78642564D01*
X58357484Y-78650278D01*
X58357482Y-78650282D01*
X58336965Y-78704377D01*
X58334102Y-78711289D01*
X58310350Y-78764068D01*
X58308661Y-78773285D01*
X58302639Y-78794889D01*
X58299311Y-78803663D01*
X58292334Y-78861121D01*
X58291207Y-78868519D01*
X58280781Y-78925416D01*
X58280781Y-78925423D01*
X58284274Y-78983171D01*
X58284500Y-78990658D01*
X58284500Y-86342049D01*
X58264815Y-86409088D01*
X58219518Y-86451103D01*
X58162567Y-86481923D01*
X58162558Y-86481929D01*
X58032158Y-86583424D01*
X57972537Y-86629829D01*
X57809449Y-86806990D01*
X57796233Y-86827219D01*
X57793808Y-86830931D01*
X57740661Y-86876287D01*
X57671430Y-86885710D01*
X57608094Y-86856207D01*
X57586192Y-86830931D01*
X57583767Y-86827219D01*
X57570551Y-86806990D01*
X57407463Y-86629829D01*
X57267454Y-86520856D01*
X57217441Y-86481929D01*
X57005665Y-86367321D01*
X57005656Y-86367318D01*
X56777916Y-86289134D01*
X56578800Y-86255908D01*
X56540399Y-86249500D01*
X56299601Y-86249500D01*
X56261200Y-86255908D01*
X56062083Y-86289134D01*
X55834343Y-86367318D01*
X55834334Y-86367321D01*
X55622558Y-86481929D01*
X55492158Y-86583424D01*
X55432537Y-86629829D01*
X55432534Y-86629831D01*
X55432534Y-86629832D01*
X55269449Y-86806990D01*
X55137743Y-87008581D01*
X55041017Y-87229094D01*
X54981904Y-87462527D01*
X54967000Y-87642389D01*
X54967000Y-87857610D01*
X54981904Y-88037472D01*
X54981904Y-88037475D01*
X54981905Y-88037476D01*
X55041017Y-88270905D01*
X55137745Y-88491422D01*
X55269449Y-88693010D01*
X55432537Y-88870171D01*
X55622561Y-89018072D01*
X55834336Y-89132679D01*
X56062087Y-89210866D01*
X56237329Y-89240108D01*
X56300214Y-89270558D01*
X56336653Y-89330173D01*
X56335078Y-89400025D01*
X56304600Y-89450098D01*
X53814424Y-91940273D01*
X53808972Y-91945406D01*
X53765668Y-91983771D01*
X53750809Y-92005296D01*
X53732800Y-92031387D01*
X53728363Y-92037417D01*
X53692674Y-92082970D01*
X53688824Y-92091525D01*
X53677808Y-92111056D01*
X53672484Y-92118770D01*
X53672482Y-92118774D01*
X53651965Y-92172869D01*
X53649102Y-92179781D01*
X53625350Y-92232560D01*
X53623661Y-92241777D01*
X53617639Y-92263381D01*
X53614311Y-92272155D01*
X53607334Y-92329613D01*
X53606207Y-92337011D01*
X53595781Y-92393908D01*
X53595781Y-92393915D01*
X53599274Y-92451663D01*
X53599500Y-92459150D01*
X53599500Y-93020821D01*
X53579815Y-93087860D01*
X53546624Y-93122396D01*
X53435856Y-93199956D01*
X53274954Y-93360858D01*
X53144432Y-93547265D01*
X53144431Y-93547267D01*
X53048261Y-93753502D01*
X53048258Y-93753511D01*
X52993775Y-93956849D01*
X52957410Y-94016510D01*
X52894563Y-94047039D01*
X52825188Y-94038744D01*
X52771310Y-93994259D01*
X52750035Y-93927707D01*
X52750000Y-93924756D01*
X52750000Y-68657610D01*
X56467000Y-68657610D01*
X56481904Y-68837472D01*
X56541017Y-69070905D01*
X56624500Y-69261228D01*
X56637745Y-69291422D01*
X56769449Y-69493010D01*
X56932537Y-69670171D01*
X57088908Y-69791879D01*
X57122022Y-69817653D01*
X57122561Y-69818072D01*
X57287891Y-69907544D01*
X57333478Y-69932215D01*
X57334336Y-69932679D01*
X57452598Y-69973278D01*
X57562083Y-70010865D01*
X57562085Y-70010865D01*
X57562087Y-70010866D01*
X57799601Y-70050500D01*
X57799602Y-70050500D01*
X58040398Y-70050500D01*
X58040399Y-70050500D01*
X58277913Y-70010866D01*
X58505664Y-69932679D01*
X58717439Y-69818072D01*
X58907463Y-69670171D01*
X59070551Y-69493010D01*
X59086489Y-69468613D01*
X59139631Y-69423258D01*
X59208862Y-69413831D01*
X59272199Y-69443330D01*
X59294106Y-69468611D01*
X59309847Y-69492704D01*
X59309851Y-69492710D01*
X59472873Y-69669797D01*
X59472883Y-69669806D01*
X59662831Y-69817649D01*
X59662840Y-69817655D01*
X59874531Y-69932215D01*
X59874545Y-69932221D01*
X60102207Y-70010379D01*
X60210000Y-70028366D01*
X60210000Y-69041683D01*
X60238819Y-69059209D01*
X60384404Y-69100000D01*
X60497622Y-69100000D01*
X60609783Y-69084584D01*
X60710000Y-69041053D01*
X60710000Y-70028365D01*
X60817792Y-70010379D01*
X61045454Y-69932221D01*
X61045468Y-69932215D01*
X61257159Y-69817655D01*
X61257162Y-69817653D01*
X61399746Y-69706675D01*
X61464740Y-69681032D01*
X61533280Y-69694598D01*
X61583605Y-69743066D01*
X61592091Y-69761196D01*
X61603701Y-69792326D01*
X61603706Y-69792335D01*
X61689952Y-69907544D01*
X61689955Y-69907547D01*
X61805164Y-69993793D01*
X61805171Y-69993797D01*
X61940017Y-70044091D01*
X61940016Y-70044091D01*
X61946944Y-70044835D01*
X61999627Y-70050500D01*
X64000372Y-70050499D01*
X64059983Y-70044091D01*
X64194831Y-69993796D01*
X64310046Y-69907546D01*
X64396296Y-69792331D01*
X64446591Y-69657483D01*
X64453000Y-69597873D01*
X64452999Y-67502128D01*
X64446591Y-67442517D01*
X64441994Y-67430193D01*
X64396297Y-67307671D01*
X64396293Y-67307664D01*
X64310047Y-67192455D01*
X64310044Y-67192452D01*
X64194835Y-67106206D01*
X64194828Y-67106202D01*
X64059982Y-67055908D01*
X64059983Y-67055908D01*
X64000383Y-67049501D01*
X64000381Y-67049500D01*
X64000373Y-67049500D01*
X64000364Y-67049500D01*
X61999629Y-67049500D01*
X61999623Y-67049501D01*
X61940016Y-67055908D01*
X61805171Y-67106202D01*
X61805164Y-67106206D01*
X61689955Y-67192452D01*
X61689952Y-67192455D01*
X61603706Y-67307664D01*
X61603702Y-67307671D01*
X61592091Y-67338804D01*
X61550220Y-67394738D01*
X61484756Y-67419155D01*
X61416483Y-67404303D01*
X61399747Y-67393324D01*
X61257168Y-67282350D01*
X61257159Y-67282344D01*
X61045468Y-67167784D01*
X61045454Y-67167778D01*
X60817791Y-67089619D01*
X60710000Y-67071633D01*
X60710000Y-68058316D01*
X60681181Y-68040791D01*
X60535596Y-68000000D01*
X60422378Y-68000000D01*
X60310217Y-68015416D01*
X60210000Y-68058946D01*
X60210000Y-67071633D01*
X60209999Y-67071633D01*
X60102208Y-67089619D01*
X59874545Y-67167778D01*
X59874531Y-67167784D01*
X59662840Y-67282344D01*
X59662831Y-67282350D01*
X59472883Y-67430193D01*
X59472873Y-67430202D01*
X59309851Y-67607289D01*
X59309846Y-67607297D01*
X59294104Y-67631390D01*
X59240955Y-67676745D01*
X59171724Y-67686165D01*
X59108389Y-67656660D01*
X59086489Y-67631384D01*
X59070555Y-67606994D01*
X58991630Y-67521259D01*
X58907463Y-67429829D01*
X58740657Y-67299999D01*
X58717441Y-67281929D01*
X58505665Y-67167321D01*
X58505656Y-67167318D01*
X58277916Y-67089134D01*
X58078800Y-67055908D01*
X58040399Y-67049500D01*
X57799601Y-67049500D01*
X57761200Y-67055908D01*
X57562083Y-67089134D01*
X57334343Y-67167318D01*
X57334334Y-67167321D01*
X57122558Y-67281929D01*
X57049486Y-67338804D01*
X56932537Y-67429829D01*
X56932534Y-67429831D01*
X56932534Y-67429832D01*
X56769449Y-67606990D01*
X56637743Y-67808581D01*
X56541017Y-68029094D01*
X56481904Y-68262527D01*
X56467000Y-68442389D01*
X56467000Y-68657610D01*
X52750000Y-68657610D01*
X52750000Y-62000001D01*
X55469532Y-62000001D01*
X55489364Y-62226686D01*
X55489366Y-62226697D01*
X55548258Y-62446488D01*
X55548261Y-62446497D01*
X55644431Y-62652732D01*
X55644432Y-62652734D01*
X55774954Y-62839141D01*
X55935858Y-63000045D01*
X55966465Y-63021476D01*
X56122266Y-63130568D01*
X56328504Y-63226739D01*
X56548308Y-63285635D01*
X56697299Y-63298670D01*
X56774998Y-63305468D01*
X56775000Y-63305468D01*
X56775002Y-63305468D01*
X56852701Y-63298670D01*
X57001692Y-63285635D01*
X57221496Y-63226739D01*
X57427734Y-63130568D01*
X57614139Y-63000047D01*
X57775047Y-62839139D01*
X57905568Y-62652734D01*
X57912893Y-62637024D01*
X57959064Y-62584586D01*
X58026257Y-62565433D01*
X58093138Y-62585648D01*
X58137657Y-62637024D01*
X58144864Y-62652480D01*
X58195974Y-62725472D01*
X58877046Y-62044400D01*
X58889835Y-62125148D01*
X58947359Y-62238045D01*
X59036955Y-62327641D01*
X59149852Y-62385165D01*
X59230599Y-62397953D01*
X58549526Y-63079025D01*
X58622513Y-63130132D01*
X58622521Y-63130136D01*
X58828668Y-63226264D01*
X58828682Y-63226269D01*
X59048389Y-63285139D01*
X59048400Y-63285141D01*
X59274998Y-63304966D01*
X59275002Y-63304966D01*
X59501599Y-63285141D01*
X59501610Y-63285139D01*
X59721317Y-63226269D01*
X59721331Y-63226264D01*
X59927478Y-63130136D01*
X60000471Y-63079024D01*
X59319400Y-62397953D01*
X59400148Y-62385165D01*
X59513045Y-62327641D01*
X59602641Y-62238045D01*
X59660165Y-62125148D01*
X59672953Y-62044400D01*
X60354024Y-62725471D01*
X60405136Y-62652478D01*
X60501264Y-62446331D01*
X60501269Y-62446317D01*
X60560139Y-62226610D01*
X60560141Y-62226599D01*
X60579966Y-62000002D01*
X60579966Y-61999997D01*
X60560141Y-61773400D01*
X60560139Y-61773389D01*
X60501269Y-61553682D01*
X60501264Y-61553668D01*
X60405136Y-61347521D01*
X60405132Y-61347513D01*
X60354025Y-61274526D01*
X59672953Y-61955598D01*
X59660165Y-61874852D01*
X59602641Y-61761955D01*
X59513045Y-61672359D01*
X59400148Y-61614835D01*
X59319401Y-61602046D01*
X60000472Y-60920974D01*
X59927478Y-60869863D01*
X59721331Y-60773735D01*
X59721317Y-60773730D01*
X59501610Y-60714860D01*
X59501599Y-60714858D01*
X59275002Y-60695034D01*
X59274998Y-60695034D01*
X59048400Y-60714858D01*
X59048389Y-60714860D01*
X58828682Y-60773730D01*
X58828673Y-60773734D01*
X58622516Y-60869866D01*
X58622512Y-60869868D01*
X58549526Y-60920973D01*
X58549526Y-60920974D01*
X59230599Y-61602046D01*
X59149852Y-61614835D01*
X59036955Y-61672359D01*
X58947359Y-61761955D01*
X58889835Y-61874852D01*
X58877046Y-61955598D01*
X58195974Y-61274526D01*
X58195973Y-61274526D01*
X58144868Y-61347512D01*
X58144867Y-61347514D01*
X58137656Y-61362979D01*
X58091482Y-61415417D01*
X58024288Y-61434567D01*
X57957407Y-61414350D01*
X57912893Y-61362976D01*
X57905568Y-61347266D01*
X57775047Y-61160861D01*
X57775045Y-61160858D01*
X57614141Y-60999954D01*
X57427734Y-60869432D01*
X57427732Y-60869431D01*
X57221497Y-60773261D01*
X57221488Y-60773258D01*
X57001697Y-60714366D01*
X57001693Y-60714365D01*
X57001692Y-60714365D01*
X57001691Y-60714364D01*
X57001686Y-60714364D01*
X56775002Y-60694532D01*
X56774998Y-60694532D01*
X56548313Y-60714364D01*
X56548302Y-60714366D01*
X56328511Y-60773258D01*
X56328502Y-60773261D01*
X56122267Y-60869431D01*
X56122265Y-60869432D01*
X55935858Y-60999954D01*
X55774954Y-61160858D01*
X55644432Y-61347265D01*
X55644431Y-61347267D01*
X55548261Y-61553502D01*
X55548258Y-61553511D01*
X55489366Y-61773302D01*
X55489364Y-61773313D01*
X55469532Y-61999998D01*
X55469532Y-62000001D01*
X52750000Y-62000001D01*
X52750000Y-53124000D01*
X52769685Y-53056961D01*
X52822489Y-53011206D01*
X52874000Y-53000000D01*
X88626000Y-53000000D01*
X88693039Y-53019685D01*
G37*
%TD.AperFunction*%
%TD*%
M02*
