%TF.GenerationSoftware,KiCad,Pcbnew,7.0.10*%
%TF.CreationDate,2024-02-15T23:55:06+08:00*%
%TF.ProjectId,Project 2 - Breadboard power supply,50726f6a-6563-4742-9032-202d20427265,rev?*%
%TF.SameCoordinates,Original*%
%TF.FileFunction,Copper,L1,Top*%
%TF.FilePolarity,Positive*%
%FSLAX46Y46*%
G04 Gerber Fmt 4.6, Leading zero omitted, Abs format (unit mm)*
G04 Created by KiCad (PCBNEW 7.0.10) date 2024-02-15 23:55:06*
%MOMM*%
%LPD*%
G01*
G04 APERTURE LIST*
G04 Aperture macros list*
%AMRoundRect*
0 Rectangle with rounded corners*
0 $1 Rounding radius*
0 $2 $3 $4 $5 $6 $7 $8 $9 X,Y pos of 4 corners*
0 Add a 4 corners polygon primitive as box body*
4,1,4,$2,$3,$4,$5,$6,$7,$8,$9,$2,$3,0*
0 Add four circle primitives for the rounded corners*
1,1,$1+$1,$2,$3*
1,1,$1+$1,$4,$5*
1,1,$1+$1,$6,$7*
1,1,$1+$1,$8,$9*
0 Add four rect primitives between the rounded corners*
20,1,$1+$1,$2,$3,$4,$5,0*
20,1,$1+$1,$4,$5,$6,$7,0*
20,1,$1+$1,$6,$7,$8,$9,0*
20,1,$1+$1,$8,$9,$2,$3,0*%
G04 Aperture macros list end*
%TA.AperFunction,ComponentPad*%
%ADD10O,1.700000X1.700000*%
%TD*%
%TA.AperFunction,ComponentPad*%
%ADD11R,1.700000X1.700000*%
%TD*%
%TA.AperFunction,ComponentPad*%
%ADD12C,1.600000*%
%TD*%
%TA.AperFunction,ComponentPad*%
%ADD13O,1.600000X1.600000*%
%TD*%
%TA.AperFunction,ComponentPad*%
%ADD14O,1.905000X2.000000*%
%TD*%
%TA.AperFunction,ComponentPad*%
%ADD15R,1.905000X2.000000*%
%TD*%
%TA.AperFunction,ComponentPad*%
%ADD16C,1.397000*%
%TD*%
%TA.AperFunction,ComponentPad*%
%ADD17R,3.000000X3.000000*%
%TD*%
%TA.AperFunction,ComponentPad*%
%ADD18C,3.000000*%
%TD*%
%TA.AperFunction,ComponentPad*%
%ADD19RoundRect,0.875000X-0.875000X-0.875000X0.875000X-0.875000X0.875000X0.875000X-0.875000X0.875000X0*%
%TD*%
%TA.AperFunction,ComponentPad*%
%ADD20RoundRect,0.750000X-0.750000X-1.000000X0.750000X-1.000000X0.750000X1.000000X-0.750000X1.000000X0*%
%TD*%
%TA.AperFunction,ComponentPad*%
%ADD21R,3.500000X3.500000*%
%TD*%
%TA.AperFunction,ComponentPad*%
%ADD22R,1.800000X1.800000*%
%TD*%
%TA.AperFunction,ComponentPad*%
%ADD23C,1.800000*%
%TD*%
%TA.AperFunction,Conductor*%
%ADD24C,0.350000*%
%TD*%
%TA.AperFunction,Conductor*%
%ADD25C,0.250000*%
%TD*%
G04 APERTURE END LIST*
D10*
%TO.P,J4,3,Pin_3*%
%TO.N,/5V*%
X66040000Y-102500000D03*
%TO.P,J4,2,Pin_2*%
%TO.N,/PWR_OUTPUT*%
X63500000Y-102500000D03*
D11*
%TO.P,J4,1,Pin_1*%
%TO.N,/3.3V*%
X60960000Y-102500000D03*
%TD*%
D10*
%TO.P,J3,3,Pin_3*%
%TO.N,/5V*%
X66040000Y-55300000D03*
%TO.P,J3,2,Pin_2*%
%TO.N,/PWR_OUTPUT*%
X63500000Y-55300000D03*
D11*
%TO.P,J3,1,Pin_1*%
%TO.N,/3.3V*%
X60960000Y-55300000D03*
%TD*%
D12*
%TO.P,R3,1*%
%TO.N,GND*%
X74155000Y-92425000D03*
D13*
%TO.P,R3,2*%
%TO.N,Net-(U2-ADJ)*%
X81775000Y-92425000D03*
%TD*%
D14*
%TO.P,U1,3,VO*%
%TO.N,/5V*%
X57920000Y-68550000D03*
%TO.P,U1,2,GND*%
%TO.N,GND*%
X60460000Y-68550000D03*
D15*
%TO.P,U1,1,VI*%
%TO.N,/12V*%
X63000000Y-68550000D03*
%TD*%
D11*
%TO.P,C1,1*%
%TO.N,/12V*%
X63850000Y-62725000D03*
D10*
%TO.P,C1,2*%
%TO.N,GND*%
X66390000Y-62725000D03*
%TD*%
D12*
%TO.P,R1,1*%
%TO.N,Net-(U2-ADJ)*%
X74155000Y-72350000D03*
D13*
%TO.P,R1,2*%
%TO.N,/3.3V*%
X81775000Y-72350000D03*
%TD*%
D15*
%TO.P,U2,1,ADJ*%
%TO.N,Net-(U2-ADJ)*%
X61500000Y-87750000D03*
D14*
%TO.P,U2,2,VO*%
%TO.N,/3.3V*%
X58960000Y-87750000D03*
%TO.P,U2,3,VI*%
%TO.N,/12V*%
X56420000Y-87750000D03*
%TD*%
D16*
%TO.P,SW1,1,1*%
%TO.N,/PWR_INPUT*%
X74215900Y-67300000D03*
%TO.P,SW1,2,2*%
%TO.N,/12V*%
X76715900Y-67300000D03*
%TO.P,SW1,3,3*%
%TO.N,unconnected-(SW1-Pad3)*%
X79215900Y-67300000D03*
%TD*%
D12*
%TO.P,C2,1*%
%TO.N,/5V*%
X56775000Y-62000000D03*
%TO.P,C2,2*%
%TO.N,GND*%
X59275000Y-62000000D03*
%TD*%
D11*
%TO.P,J2,1,Pin_1*%
%TO.N,GND*%
X86390000Y-99950000D03*
D10*
%TO.P,J2,2,Pin_2*%
%TO.N,/PWR_OUTPUT*%
X86390000Y-102490000D03*
%TD*%
D11*
%TO.P,J1,1,Pin_1*%
%TO.N,GND*%
X86390000Y-55300000D03*
D10*
%TO.P,J1,2,Pin_2*%
%TO.N,/PWR_OUTPUT*%
X86390000Y-57840000D03*
%TD*%
D12*
%TO.P,C3,1*%
%TO.N,/3.3V*%
X54275000Y-94200000D03*
%TO.P,C3,2*%
%TO.N,GND*%
X56775000Y-94200000D03*
%TD*%
D17*
%TO.P,J5,1,Pin_1*%
%TO.N,GND*%
X75035000Y-100300000D03*
D18*
%TO.P,J5,2,Pin_2*%
%TO.N,/PWR_OUTPUT*%
X80115000Y-100300000D03*
%TD*%
D19*
%TO.P,J6,3*%
%TO.N,GND*%
X65900000Y-83067500D03*
D20*
%TO.P,J6,2*%
X62900000Y-78367500D03*
D21*
%TO.P,J6,1*%
%TO.N,/PWR_INPUT*%
X68900000Y-78367500D03*
%TD*%
D17*
%TO.P,J7,1,Pin_1*%
%TO.N,GND*%
X75160000Y-57500000D03*
D18*
%TO.P,J7,2,Pin_2*%
%TO.N,/PWR_OUTPUT*%
X80240000Y-57500000D03*
%TD*%
D12*
%TO.P,R2,1*%
%TO.N,Net-(D1-A)*%
X74155000Y-87450000D03*
D13*
%TO.P,R2,2*%
%TO.N,/12V*%
X81775000Y-87450000D03*
%TD*%
D22*
%TO.P,D1,1,K*%
%TO.N,GND*%
X79575000Y-79700000D03*
D23*
%TO.P,D1,2,A*%
%TO.N,Net-(D1-A)*%
X79575000Y-77160000D03*
%TD*%
D24*
%TO.N,/PWR_OUTPUT*%
X76690000Y-103725000D02*
X80115000Y-100300000D01*
X64725000Y-103725000D02*
X76690000Y-103725000D01*
X63500000Y-102500000D02*
X64725000Y-103725000D01*
D25*
%TO.N,Net-(U2-ADJ)*%
X73705000Y-78716854D02*
X73705000Y-72800000D01*
X64671854Y-87750000D02*
X73705000Y-78716854D01*
X61500000Y-87750000D02*
X64671854Y-87750000D01*
X73705000Y-72800000D02*
X74155000Y-72350000D01*
D24*
%TO.N,/12V*%
X56420000Y-87170000D02*
X56420000Y-87750000D01*
X54250000Y-74000000D02*
X54250000Y-85000000D01*
X55250000Y-73000000D02*
X54250000Y-74000000D01*
X54250000Y-85000000D02*
X56420000Y-87170000D01*
X62250000Y-73000000D02*
X55250000Y-73000000D01*
X63000000Y-72250000D02*
X62250000Y-73000000D01*
X63000000Y-68550000D02*
X63000000Y-72250000D01*
%TO.N,/5V*%
X66040000Y-92790000D02*
X66040000Y-102500000D01*
X53300000Y-72710000D02*
X53300000Y-92250000D01*
X57460000Y-68550000D02*
X53300000Y-72710000D01*
X65500000Y-92250000D02*
X66040000Y-92790000D01*
X56775000Y-67865000D02*
X57460000Y-68550000D01*
X53300000Y-92250000D02*
X65500000Y-92250000D01*
X56775000Y-62000000D02*
X56775000Y-67865000D01*
%TO.N,/PWR_OUTPUT*%
X84300000Y-96115000D02*
X80115000Y-100300000D01*
X84300000Y-61560000D02*
X84300000Y-96115000D01*
X80240000Y-57500000D02*
X84300000Y-61560000D01*
X84200000Y-100300000D02*
X86390000Y-102490000D01*
X80115000Y-100300000D02*
X84200000Y-100300000D01*
%TO.N,/3.3V*%
X54275000Y-95815000D02*
X60960000Y-102500000D01*
X54275000Y-94200000D02*
X54275000Y-95815000D01*
%TO.N,/PWR_INPUT*%
X68900000Y-72615900D02*
X68900000Y-78367500D01*
X74215900Y-67300000D02*
X68900000Y-72615900D01*
%TO.N,/12V*%
X63850000Y-67240000D02*
X62540000Y-68550000D01*
X63850000Y-62725000D02*
X63850000Y-67240000D01*
X83750000Y-85475000D02*
X81775000Y-87450000D01*
X83750000Y-70500000D02*
X83750000Y-85475000D01*
X78263299Y-70500000D02*
X83750000Y-70500000D01*
X76715900Y-68952601D02*
X78263299Y-70500000D01*
X76715900Y-67300000D02*
X76715900Y-68952601D01*
X74250000Y-64000000D02*
X74250000Y-64834100D01*
X74250000Y-64834100D02*
X76715900Y-67300000D01*
X74200000Y-63950000D02*
X74250000Y-64000000D01*
X65075000Y-63950000D02*
X74200000Y-63950000D01*
X63850000Y-62725000D02*
X65075000Y-63950000D01*
%TO.N,/PWR_OUTPUT*%
X75990000Y-53250000D02*
X80240000Y-57500000D01*
X63500000Y-53750000D02*
X64000000Y-53250000D01*
X64000000Y-53250000D02*
X75990000Y-53250000D01*
X63500000Y-55300000D02*
X63500000Y-53750000D01*
X86390000Y-57840000D02*
X80580000Y-57840000D01*
X80580000Y-57840000D02*
X80240000Y-57500000D01*
D25*
%TO.N,Net-(D1-A)*%
X74590000Y-77160000D02*
X79575000Y-77160000D01*
X74155000Y-77595000D02*
X74590000Y-77160000D01*
X74155000Y-87450000D02*
X74155000Y-77595000D01*
D24*
%TO.N,/5V*%
X60275000Y-58500000D02*
X56775000Y-62000000D01*
X66000000Y-58500000D02*
X60275000Y-58500000D01*
X66040000Y-58460000D02*
X66000000Y-58500000D01*
X66040000Y-55300000D02*
X66040000Y-58460000D01*
%TD*%
M02*
