%TF.GenerationSoftware,KiCad,Pcbnew,7.0.10*%
%TF.CreationDate,2024-02-15T23:55:06+08:00*%
%TF.ProjectId,Project 2 - Breadboard power supply,50726f6a-6563-4742-9032-202d20427265,rev?*%
%TF.SameCoordinates,Original*%
%TF.FileFunction,Legend,Top*%
%TF.FilePolarity,Positive*%
%FSLAX46Y46*%
G04 Gerber Fmt 4.6, Leading zero omitted, Abs format (unit mm)*
G04 Created by KiCad (PCBNEW 7.0.10) date 2024-02-15 23:55:06*
%MOMM*%
%LPD*%
G01*
G04 APERTURE LIST*
%ADD10C,0.150000*%
%ADD11C,0.250000*%
%ADD12C,0.100000*%
%ADD13C,0.120000*%
%ADD14C,0.152400*%
G04 APERTURE END LIST*
D10*
X78977255Y-69719819D02*
X79167731Y-69719819D01*
X79167731Y-69719819D02*
X79262969Y-69767438D01*
X79262969Y-69767438D02*
X79358207Y-69862676D01*
X79358207Y-69862676D02*
X79405826Y-70053152D01*
X79405826Y-70053152D02*
X79405826Y-70386485D01*
X79405826Y-70386485D02*
X79358207Y-70576961D01*
X79358207Y-70576961D02*
X79262969Y-70672200D01*
X79262969Y-70672200D02*
X79167731Y-70719819D01*
X79167731Y-70719819D02*
X78977255Y-70719819D01*
X78977255Y-70719819D02*
X78882017Y-70672200D01*
X78882017Y-70672200D02*
X78786779Y-70576961D01*
X78786779Y-70576961D02*
X78739160Y-70386485D01*
X78739160Y-70386485D02*
X78739160Y-70053152D01*
X78739160Y-70053152D02*
X78786779Y-69862676D01*
X78786779Y-69862676D02*
X78882017Y-69767438D01*
X78882017Y-69767438D02*
X78977255Y-69719819D01*
X79834398Y-70719819D02*
X79834398Y-69719819D01*
X79834398Y-69719819D02*
X80405826Y-70719819D01*
X80405826Y-70719819D02*
X80405826Y-69719819D01*
X73177255Y-69719819D02*
X73367731Y-69719819D01*
X73367731Y-69719819D02*
X73462969Y-69767438D01*
X73462969Y-69767438D02*
X73558207Y-69862676D01*
X73558207Y-69862676D02*
X73605826Y-70053152D01*
X73605826Y-70053152D02*
X73605826Y-70386485D01*
X73605826Y-70386485D02*
X73558207Y-70576961D01*
X73558207Y-70576961D02*
X73462969Y-70672200D01*
X73462969Y-70672200D02*
X73367731Y-70719819D01*
X73367731Y-70719819D02*
X73177255Y-70719819D01*
X73177255Y-70719819D02*
X73082017Y-70672200D01*
X73082017Y-70672200D02*
X72986779Y-70576961D01*
X72986779Y-70576961D02*
X72939160Y-70386485D01*
X72939160Y-70386485D02*
X72939160Y-70053152D01*
X72939160Y-70053152D02*
X72986779Y-69862676D01*
X72986779Y-69862676D02*
X73082017Y-69767438D01*
X73082017Y-69767438D02*
X73177255Y-69719819D01*
X74367731Y-70196009D02*
X74034398Y-70196009D01*
X74034398Y-70719819D02*
X74034398Y-69719819D01*
X74034398Y-69719819D02*
X74510588Y-69719819D01*
X75224874Y-70196009D02*
X74891541Y-70196009D01*
X74891541Y-70719819D02*
X74891541Y-69719819D01*
X74891541Y-69719819D02*
X75367731Y-69719819D01*
X82086779Y-82238866D02*
X82848684Y-82238866D01*
X82086779Y-74738866D02*
X82848684Y-74738866D01*
X82467731Y-75119819D02*
X82467731Y-74357914D01*
X59741541Y-99119819D02*
X60360588Y-99119819D01*
X60360588Y-99119819D02*
X60027255Y-99500771D01*
X60027255Y-99500771D02*
X60170112Y-99500771D01*
X60170112Y-99500771D02*
X60265350Y-99548390D01*
X60265350Y-99548390D02*
X60312969Y-99596009D01*
X60312969Y-99596009D02*
X60360588Y-99691247D01*
X60360588Y-99691247D02*
X60360588Y-99929342D01*
X60360588Y-99929342D02*
X60312969Y-100024580D01*
X60312969Y-100024580D02*
X60265350Y-100072200D01*
X60265350Y-100072200D02*
X60170112Y-100119819D01*
X60170112Y-100119819D02*
X59884398Y-100119819D01*
X59884398Y-100119819D02*
X59789160Y-100072200D01*
X59789160Y-100072200D02*
X59741541Y-100024580D01*
X60789160Y-100024580D02*
X60836779Y-100072200D01*
X60836779Y-100072200D02*
X60789160Y-100119819D01*
X60789160Y-100119819D02*
X60741541Y-100072200D01*
X60741541Y-100072200D02*
X60789160Y-100024580D01*
X60789160Y-100024580D02*
X60789160Y-100119819D01*
X61170112Y-99119819D02*
X61789159Y-99119819D01*
X61789159Y-99119819D02*
X61455826Y-99500771D01*
X61455826Y-99500771D02*
X61598683Y-99500771D01*
X61598683Y-99500771D02*
X61693921Y-99548390D01*
X61693921Y-99548390D02*
X61741540Y-99596009D01*
X61741540Y-99596009D02*
X61789159Y-99691247D01*
X61789159Y-99691247D02*
X61789159Y-99929342D01*
X61789159Y-99929342D02*
X61741540Y-100024580D01*
X61741540Y-100024580D02*
X61693921Y-100072200D01*
X61693921Y-100072200D02*
X61598683Y-100119819D01*
X61598683Y-100119819D02*
X61312969Y-100119819D01*
X61312969Y-100119819D02*
X61217731Y-100072200D01*
X61217731Y-100072200D02*
X61170112Y-100024580D01*
X62074874Y-99119819D02*
X62408207Y-100119819D01*
X62408207Y-100119819D02*
X62741540Y-99119819D01*
X55991541Y-56619819D02*
X56610588Y-56619819D01*
X56610588Y-56619819D02*
X56277255Y-57000771D01*
X56277255Y-57000771D02*
X56420112Y-57000771D01*
X56420112Y-57000771D02*
X56515350Y-57048390D01*
X56515350Y-57048390D02*
X56562969Y-57096009D01*
X56562969Y-57096009D02*
X56610588Y-57191247D01*
X56610588Y-57191247D02*
X56610588Y-57429342D01*
X56610588Y-57429342D02*
X56562969Y-57524580D01*
X56562969Y-57524580D02*
X56515350Y-57572200D01*
X56515350Y-57572200D02*
X56420112Y-57619819D01*
X56420112Y-57619819D02*
X56134398Y-57619819D01*
X56134398Y-57619819D02*
X56039160Y-57572200D01*
X56039160Y-57572200D02*
X55991541Y-57524580D01*
X57039160Y-57524580D02*
X57086779Y-57572200D01*
X57086779Y-57572200D02*
X57039160Y-57619819D01*
X57039160Y-57619819D02*
X56991541Y-57572200D01*
X56991541Y-57572200D02*
X57039160Y-57524580D01*
X57039160Y-57524580D02*
X57039160Y-57619819D01*
X57420112Y-56619819D02*
X58039159Y-56619819D01*
X58039159Y-56619819D02*
X57705826Y-57000771D01*
X57705826Y-57000771D02*
X57848683Y-57000771D01*
X57848683Y-57000771D02*
X57943921Y-57048390D01*
X57943921Y-57048390D02*
X57991540Y-57096009D01*
X57991540Y-57096009D02*
X58039159Y-57191247D01*
X58039159Y-57191247D02*
X58039159Y-57429342D01*
X58039159Y-57429342D02*
X57991540Y-57524580D01*
X57991540Y-57524580D02*
X57943921Y-57572200D01*
X57943921Y-57572200D02*
X57848683Y-57619819D01*
X57848683Y-57619819D02*
X57562969Y-57619819D01*
X57562969Y-57619819D02*
X57467731Y-57572200D01*
X57467731Y-57572200D02*
X57420112Y-57524580D01*
X58324874Y-56619819D02*
X58658207Y-57619819D01*
X58658207Y-57619819D02*
X58991540Y-56619819D01*
X67312969Y-57369819D02*
X66836779Y-57369819D01*
X66836779Y-57369819D02*
X66789160Y-57846009D01*
X66789160Y-57846009D02*
X66836779Y-57798390D01*
X66836779Y-57798390D02*
X66932017Y-57750771D01*
X66932017Y-57750771D02*
X67170112Y-57750771D01*
X67170112Y-57750771D02*
X67265350Y-57798390D01*
X67265350Y-57798390D02*
X67312969Y-57846009D01*
X67312969Y-57846009D02*
X67360588Y-57941247D01*
X67360588Y-57941247D02*
X67360588Y-58179342D01*
X67360588Y-58179342D02*
X67312969Y-58274580D01*
X67312969Y-58274580D02*
X67265350Y-58322200D01*
X67265350Y-58322200D02*
X67170112Y-58369819D01*
X67170112Y-58369819D02*
X66932017Y-58369819D01*
X66932017Y-58369819D02*
X66836779Y-58322200D01*
X66836779Y-58322200D02*
X66789160Y-58274580D01*
X67646303Y-57369819D02*
X67979636Y-58369819D01*
X67979636Y-58369819D02*
X68312969Y-57369819D01*
X67312969Y-99119819D02*
X66836779Y-99119819D01*
X66836779Y-99119819D02*
X66789160Y-99596009D01*
X66789160Y-99596009D02*
X66836779Y-99548390D01*
X66836779Y-99548390D02*
X66932017Y-99500771D01*
X66932017Y-99500771D02*
X67170112Y-99500771D01*
X67170112Y-99500771D02*
X67265350Y-99548390D01*
X67265350Y-99548390D02*
X67312969Y-99596009D01*
X67312969Y-99596009D02*
X67360588Y-99691247D01*
X67360588Y-99691247D02*
X67360588Y-99929342D01*
X67360588Y-99929342D02*
X67312969Y-100024580D01*
X67312969Y-100024580D02*
X67265350Y-100072200D01*
X67265350Y-100072200D02*
X67170112Y-100119819D01*
X67170112Y-100119819D02*
X66932017Y-100119819D01*
X66932017Y-100119819D02*
X66836779Y-100072200D01*
X66836779Y-100072200D02*
X66789160Y-100024580D01*
X67646303Y-99119819D02*
X67979636Y-100119819D01*
X67979636Y-100119819D02*
X68312969Y-99119819D01*
D11*
X83412238Y-99073622D02*
X83364619Y-99168860D01*
X83364619Y-99168860D02*
X83364619Y-99311717D01*
X83364619Y-99311717D02*
X83412238Y-99454574D01*
X83412238Y-99454574D02*
X83507476Y-99549812D01*
X83507476Y-99549812D02*
X83602714Y-99597431D01*
X83602714Y-99597431D02*
X83793190Y-99645050D01*
X83793190Y-99645050D02*
X83936047Y-99645050D01*
X83936047Y-99645050D02*
X84126523Y-99597431D01*
X84126523Y-99597431D02*
X84221761Y-99549812D01*
X84221761Y-99549812D02*
X84317000Y-99454574D01*
X84317000Y-99454574D02*
X84364619Y-99311717D01*
X84364619Y-99311717D02*
X84364619Y-99216479D01*
X84364619Y-99216479D02*
X84317000Y-99073622D01*
X84317000Y-99073622D02*
X84269380Y-99026003D01*
X84269380Y-99026003D02*
X83936047Y-99026003D01*
X83936047Y-99026003D02*
X83936047Y-99216479D01*
X84364619Y-98597431D02*
X83364619Y-98597431D01*
X83364619Y-98597431D02*
X84364619Y-98026003D01*
X84364619Y-98026003D02*
X83364619Y-98026003D01*
X84364619Y-97549812D02*
X83364619Y-97549812D01*
X83364619Y-97549812D02*
X83364619Y-97311717D01*
X83364619Y-97311717D02*
X83412238Y-97168860D01*
X83412238Y-97168860D02*
X83507476Y-97073622D01*
X83507476Y-97073622D02*
X83602714Y-97026003D01*
X83602714Y-97026003D02*
X83793190Y-96978384D01*
X83793190Y-96978384D02*
X83936047Y-96978384D01*
X83936047Y-96978384D02*
X84126523Y-97026003D01*
X84126523Y-97026003D02*
X84221761Y-97073622D01*
X84221761Y-97073622D02*
X84317000Y-97168860D01*
X84317000Y-97168860D02*
X84364619Y-97311717D01*
X84364619Y-97311717D02*
X84364619Y-97549812D01*
X72676377Y-94662238D02*
X72581139Y-94614619D01*
X72581139Y-94614619D02*
X72438282Y-94614619D01*
X72438282Y-94614619D02*
X72295425Y-94662238D01*
X72295425Y-94662238D02*
X72200187Y-94757476D01*
X72200187Y-94757476D02*
X72152568Y-94852714D01*
X72152568Y-94852714D02*
X72104949Y-95043190D01*
X72104949Y-95043190D02*
X72104949Y-95186047D01*
X72104949Y-95186047D02*
X72152568Y-95376523D01*
X72152568Y-95376523D02*
X72200187Y-95471761D01*
X72200187Y-95471761D02*
X72295425Y-95567000D01*
X72295425Y-95567000D02*
X72438282Y-95614619D01*
X72438282Y-95614619D02*
X72533520Y-95614619D01*
X72533520Y-95614619D02*
X72676377Y-95567000D01*
X72676377Y-95567000D02*
X72723996Y-95519380D01*
X72723996Y-95519380D02*
X72723996Y-95186047D01*
X72723996Y-95186047D02*
X72533520Y-95186047D01*
X73152568Y-95614619D02*
X73152568Y-94614619D01*
X73152568Y-94614619D02*
X73723996Y-95614619D01*
X73723996Y-95614619D02*
X73723996Y-94614619D01*
X74200187Y-95614619D02*
X74200187Y-94614619D01*
X74200187Y-94614619D02*
X74438282Y-94614619D01*
X74438282Y-94614619D02*
X74581139Y-94662238D01*
X74581139Y-94662238D02*
X74676377Y-94757476D01*
X74676377Y-94757476D02*
X74723996Y-94852714D01*
X74723996Y-94852714D02*
X74771615Y-95043190D01*
X74771615Y-95043190D02*
X74771615Y-95186047D01*
X74771615Y-95186047D02*
X74723996Y-95376523D01*
X74723996Y-95376523D02*
X74676377Y-95471761D01*
X74676377Y-95471761D02*
X74581139Y-95567000D01*
X74581139Y-95567000D02*
X74438282Y-95614619D01*
X74438282Y-95614619D02*
X74200187Y-95614619D01*
X71426377Y-61912238D02*
X71331139Y-61864619D01*
X71331139Y-61864619D02*
X71188282Y-61864619D01*
X71188282Y-61864619D02*
X71045425Y-61912238D01*
X71045425Y-61912238D02*
X70950187Y-62007476D01*
X70950187Y-62007476D02*
X70902568Y-62102714D01*
X70902568Y-62102714D02*
X70854949Y-62293190D01*
X70854949Y-62293190D02*
X70854949Y-62436047D01*
X70854949Y-62436047D02*
X70902568Y-62626523D01*
X70902568Y-62626523D02*
X70950187Y-62721761D01*
X70950187Y-62721761D02*
X71045425Y-62817000D01*
X71045425Y-62817000D02*
X71188282Y-62864619D01*
X71188282Y-62864619D02*
X71283520Y-62864619D01*
X71283520Y-62864619D02*
X71426377Y-62817000D01*
X71426377Y-62817000D02*
X71473996Y-62769380D01*
X71473996Y-62769380D02*
X71473996Y-62436047D01*
X71473996Y-62436047D02*
X71283520Y-62436047D01*
X71902568Y-62864619D02*
X71902568Y-61864619D01*
X71902568Y-61864619D02*
X72473996Y-62864619D01*
X72473996Y-62864619D02*
X72473996Y-61864619D01*
X72950187Y-62864619D02*
X72950187Y-61864619D01*
X72950187Y-61864619D02*
X73188282Y-61864619D01*
X73188282Y-61864619D02*
X73331139Y-61912238D01*
X73331139Y-61912238D02*
X73426377Y-62007476D01*
X73426377Y-62007476D02*
X73473996Y-62102714D01*
X73473996Y-62102714D02*
X73521615Y-62293190D01*
X73521615Y-62293190D02*
X73521615Y-62436047D01*
X73521615Y-62436047D02*
X73473996Y-62626523D01*
X73473996Y-62626523D02*
X73426377Y-62721761D01*
X73426377Y-62721761D02*
X73331139Y-62817000D01*
X73331139Y-62817000D02*
X73188282Y-62864619D01*
X73188282Y-62864619D02*
X72950187Y-62864619D01*
D10*
X58084819Y-102833333D02*
X58799104Y-102833333D01*
X58799104Y-102833333D02*
X58941961Y-102880952D01*
X58941961Y-102880952D02*
X59037200Y-102976190D01*
X59037200Y-102976190D02*
X59084819Y-103119047D01*
X59084819Y-103119047D02*
X59084819Y-103214285D01*
X58418152Y-101928571D02*
X59084819Y-101928571D01*
X58037200Y-102166666D02*
X58751485Y-102404761D01*
X58751485Y-102404761D02*
X58751485Y-101785714D01*
X58084819Y-55633333D02*
X58799104Y-55633333D01*
X58799104Y-55633333D02*
X58941961Y-55680952D01*
X58941961Y-55680952D02*
X59037200Y-55776190D01*
X59037200Y-55776190D02*
X59084819Y-55919047D01*
X59084819Y-55919047D02*
X59084819Y-56014285D01*
X58084819Y-55252380D02*
X58084819Y-54633333D01*
X58084819Y-54633333D02*
X58465771Y-54966666D01*
X58465771Y-54966666D02*
X58465771Y-54823809D01*
X58465771Y-54823809D02*
X58513390Y-54728571D01*
X58513390Y-54728571D02*
X58561009Y-54680952D01*
X58561009Y-54680952D02*
X58656247Y-54633333D01*
X58656247Y-54633333D02*
X58894342Y-54633333D01*
X58894342Y-54633333D02*
X58989580Y-54680952D01*
X58989580Y-54680952D02*
X59037200Y-54728571D01*
X59037200Y-54728571D02*
X59084819Y-54823809D01*
X59084819Y-54823809D02*
X59084819Y-55109523D01*
X59084819Y-55109523D02*
X59037200Y-55204761D01*
X59037200Y-55204761D02*
X58989580Y-55252380D01*
X77798333Y-90509819D02*
X77465000Y-90033628D01*
X77226905Y-90509819D02*
X77226905Y-89509819D01*
X77226905Y-89509819D02*
X77607857Y-89509819D01*
X77607857Y-89509819D02*
X77703095Y-89557438D01*
X77703095Y-89557438D02*
X77750714Y-89605057D01*
X77750714Y-89605057D02*
X77798333Y-89700295D01*
X77798333Y-89700295D02*
X77798333Y-89843152D01*
X77798333Y-89843152D02*
X77750714Y-89938390D01*
X77750714Y-89938390D02*
X77703095Y-89986009D01*
X77703095Y-89986009D02*
X77607857Y-90033628D01*
X77607857Y-90033628D02*
X77226905Y-90033628D01*
X78131667Y-89509819D02*
X78750714Y-89509819D01*
X78750714Y-89509819D02*
X78417381Y-89890771D01*
X78417381Y-89890771D02*
X78560238Y-89890771D01*
X78560238Y-89890771D02*
X78655476Y-89938390D01*
X78655476Y-89938390D02*
X78703095Y-89986009D01*
X78703095Y-89986009D02*
X78750714Y-90081247D01*
X78750714Y-90081247D02*
X78750714Y-90319342D01*
X78750714Y-90319342D02*
X78703095Y-90414580D01*
X78703095Y-90414580D02*
X78655476Y-90462200D01*
X78655476Y-90462200D02*
X78560238Y-90509819D01*
X78560238Y-90509819D02*
X78274524Y-90509819D01*
X78274524Y-90509819D02*
X78179286Y-90462200D01*
X78179286Y-90462200D02*
X78131667Y-90414580D01*
D12*
X71714286Y-91957419D02*
X71523810Y-91957419D01*
X71523810Y-91957419D02*
X71504762Y-92433609D01*
X71504762Y-92433609D02*
X71523810Y-92385990D01*
X71523810Y-92385990D02*
X71561905Y-92338371D01*
X71561905Y-92338371D02*
X71657143Y-92338371D01*
X71657143Y-92338371D02*
X71695238Y-92385990D01*
X71695238Y-92385990D02*
X71714286Y-92433609D01*
X71714286Y-92433609D02*
X71733333Y-92528847D01*
X71733333Y-92528847D02*
X71733333Y-92766942D01*
X71733333Y-92766942D02*
X71714286Y-92862180D01*
X71714286Y-92862180D02*
X71695238Y-92909800D01*
X71695238Y-92909800D02*
X71657143Y-92957419D01*
X71657143Y-92957419D02*
X71561905Y-92957419D01*
X71561905Y-92957419D02*
X71523810Y-92909800D01*
X71523810Y-92909800D02*
X71504762Y-92862180D01*
X72076190Y-91957419D02*
X72000000Y-91957419D01*
X72000000Y-91957419D02*
X71961904Y-92005038D01*
X71961904Y-92005038D02*
X71942857Y-92052657D01*
X71942857Y-92052657D02*
X71904762Y-92195514D01*
X71904762Y-92195514D02*
X71885714Y-92385990D01*
X71885714Y-92385990D02*
X71885714Y-92766942D01*
X71885714Y-92766942D02*
X71904762Y-92862180D01*
X71904762Y-92862180D02*
X71923809Y-92909800D01*
X71923809Y-92909800D02*
X71961904Y-92957419D01*
X71961904Y-92957419D02*
X72038095Y-92957419D01*
X72038095Y-92957419D02*
X72076190Y-92909800D01*
X72076190Y-92909800D02*
X72095238Y-92862180D01*
X72095238Y-92862180D02*
X72114285Y-92766942D01*
X72114285Y-92766942D02*
X72114285Y-92528847D01*
X72114285Y-92528847D02*
X72095238Y-92433609D01*
X72095238Y-92433609D02*
X72076190Y-92385990D01*
X72076190Y-92385990D02*
X72038095Y-92338371D01*
X72038095Y-92338371D02*
X71961904Y-92338371D01*
X71961904Y-92338371D02*
X71923809Y-92385990D01*
X71923809Y-92385990D02*
X71904762Y-92433609D01*
X71904762Y-92433609D02*
X71885714Y-92528847D01*
X72361904Y-91957419D02*
X72399999Y-91957419D01*
X72399999Y-91957419D02*
X72438095Y-92005038D01*
X72438095Y-92005038D02*
X72457142Y-92052657D01*
X72457142Y-92052657D02*
X72476190Y-92147895D01*
X72476190Y-92147895D02*
X72495237Y-92338371D01*
X72495237Y-92338371D02*
X72495237Y-92576466D01*
X72495237Y-92576466D02*
X72476190Y-92766942D01*
X72476190Y-92766942D02*
X72457142Y-92862180D01*
X72457142Y-92862180D02*
X72438095Y-92909800D01*
X72438095Y-92909800D02*
X72399999Y-92957419D01*
X72399999Y-92957419D02*
X72361904Y-92957419D01*
X72361904Y-92957419D02*
X72323809Y-92909800D01*
X72323809Y-92909800D02*
X72304761Y-92862180D01*
X72304761Y-92862180D02*
X72285714Y-92766942D01*
X72285714Y-92766942D02*
X72266666Y-92576466D01*
X72266666Y-92576466D02*
X72266666Y-92338371D01*
X72266666Y-92338371D02*
X72285714Y-92147895D01*
X72285714Y-92147895D02*
X72304761Y-92052657D01*
X72304761Y-92052657D02*
X72323809Y-92005038D01*
X72323809Y-92005038D02*
X72361904Y-91957419D01*
D10*
X59698095Y-72274819D02*
X59698095Y-73084342D01*
X59698095Y-73084342D02*
X59745714Y-73179580D01*
X59745714Y-73179580D02*
X59793333Y-73227200D01*
X59793333Y-73227200D02*
X59888571Y-73274819D01*
X59888571Y-73274819D02*
X60079047Y-73274819D01*
X60079047Y-73274819D02*
X60174285Y-73227200D01*
X60174285Y-73227200D02*
X60221904Y-73179580D01*
X60221904Y-73179580D02*
X60269523Y-73084342D01*
X60269523Y-73084342D02*
X60269523Y-72274819D01*
X61269523Y-73274819D02*
X60698095Y-73274819D01*
X60983809Y-73274819D02*
X60983809Y-72274819D01*
X60983809Y-72274819D02*
X60888571Y-72417676D01*
X60888571Y-72417676D02*
X60793333Y-72512914D01*
X60793333Y-72512914D02*
X60698095Y-72560533D01*
D12*
X58507620Y-66507419D02*
X58317144Y-66507419D01*
X58317144Y-66507419D02*
X58317144Y-65507419D01*
X58640954Y-66507419D02*
X58640954Y-65507419D01*
X58640954Y-65507419D02*
X58774287Y-66221704D01*
X58774287Y-66221704D02*
X58907620Y-65507419D01*
X58907620Y-65507419D02*
X58907620Y-66507419D01*
X59060001Y-65507419D02*
X59326668Y-65507419D01*
X59326668Y-65507419D02*
X59155239Y-66507419D01*
X59536191Y-65935990D02*
X59498096Y-65888371D01*
X59498096Y-65888371D02*
X59479049Y-65840752D01*
X59479049Y-65840752D02*
X59460001Y-65745514D01*
X59460001Y-65745514D02*
X59460001Y-65697895D01*
X59460001Y-65697895D02*
X59479049Y-65602657D01*
X59479049Y-65602657D02*
X59498096Y-65555038D01*
X59498096Y-65555038D02*
X59536191Y-65507419D01*
X59536191Y-65507419D02*
X59612382Y-65507419D01*
X59612382Y-65507419D02*
X59650477Y-65555038D01*
X59650477Y-65555038D02*
X59669525Y-65602657D01*
X59669525Y-65602657D02*
X59688572Y-65697895D01*
X59688572Y-65697895D02*
X59688572Y-65745514D01*
X59688572Y-65745514D02*
X59669525Y-65840752D01*
X59669525Y-65840752D02*
X59650477Y-65888371D01*
X59650477Y-65888371D02*
X59612382Y-65935990D01*
X59612382Y-65935990D02*
X59536191Y-65935990D01*
X59536191Y-65935990D02*
X59498096Y-65983609D01*
X59498096Y-65983609D02*
X59479049Y-66031228D01*
X59479049Y-66031228D02*
X59460001Y-66126466D01*
X59460001Y-66126466D02*
X59460001Y-66316942D01*
X59460001Y-66316942D02*
X59479049Y-66412180D01*
X59479049Y-66412180D02*
X59498096Y-66459800D01*
X59498096Y-66459800D02*
X59536191Y-66507419D01*
X59536191Y-66507419D02*
X59612382Y-66507419D01*
X59612382Y-66507419D02*
X59650477Y-66459800D01*
X59650477Y-66459800D02*
X59669525Y-66412180D01*
X59669525Y-66412180D02*
X59688572Y-66316942D01*
X59688572Y-66316942D02*
X59688572Y-66126466D01*
X59688572Y-66126466D02*
X59669525Y-66031228D01*
X59669525Y-66031228D02*
X59650477Y-65983609D01*
X59650477Y-65983609D02*
X59612382Y-65935990D01*
X59936191Y-65507419D02*
X59974286Y-65507419D01*
X59974286Y-65507419D02*
X60012382Y-65555038D01*
X60012382Y-65555038D02*
X60031429Y-65602657D01*
X60031429Y-65602657D02*
X60050477Y-65697895D01*
X60050477Y-65697895D02*
X60069524Y-65888371D01*
X60069524Y-65888371D02*
X60069524Y-66126466D01*
X60069524Y-66126466D02*
X60050477Y-66316942D01*
X60050477Y-66316942D02*
X60031429Y-66412180D01*
X60031429Y-66412180D02*
X60012382Y-66459800D01*
X60012382Y-66459800D02*
X59974286Y-66507419D01*
X59974286Y-66507419D02*
X59936191Y-66507419D01*
X59936191Y-66507419D02*
X59898096Y-66459800D01*
X59898096Y-66459800D02*
X59879048Y-66412180D01*
X59879048Y-66412180D02*
X59860001Y-66316942D01*
X59860001Y-66316942D02*
X59840953Y-66126466D01*
X59840953Y-66126466D02*
X59840953Y-65888371D01*
X59840953Y-65888371D02*
X59860001Y-65697895D01*
X59860001Y-65697895D02*
X59879048Y-65602657D01*
X59879048Y-65602657D02*
X59898096Y-65555038D01*
X59898096Y-65555038D02*
X59936191Y-65507419D01*
X60431429Y-65507419D02*
X60240953Y-65507419D01*
X60240953Y-65507419D02*
X60221905Y-65983609D01*
X60221905Y-65983609D02*
X60240953Y-65935990D01*
X60240953Y-65935990D02*
X60279048Y-65888371D01*
X60279048Y-65888371D02*
X60374286Y-65888371D01*
X60374286Y-65888371D02*
X60412381Y-65935990D01*
X60412381Y-65935990D02*
X60431429Y-65983609D01*
X60431429Y-65983609D02*
X60450476Y-66078847D01*
X60450476Y-66078847D02*
X60450476Y-66316942D01*
X60450476Y-66316942D02*
X60431429Y-66412180D01*
X60431429Y-66412180D02*
X60412381Y-66459800D01*
X60412381Y-66459800D02*
X60374286Y-66507419D01*
X60374286Y-66507419D02*
X60279048Y-66507419D01*
X60279048Y-66507419D02*
X60240953Y-66459800D01*
X60240953Y-66459800D02*
X60221905Y-66412180D01*
X60526667Y-66602657D02*
X60831428Y-66602657D01*
X60869524Y-65507419D02*
X61098095Y-65507419D01*
X60983809Y-66507419D02*
X60983809Y-65507419D01*
X61307619Y-65507419D02*
X61383810Y-65507419D01*
X61383810Y-65507419D02*
X61421905Y-65555038D01*
X61421905Y-65555038D02*
X61460000Y-65650276D01*
X61460000Y-65650276D02*
X61479048Y-65840752D01*
X61479048Y-65840752D02*
X61479048Y-66174085D01*
X61479048Y-66174085D02*
X61460000Y-66364561D01*
X61460000Y-66364561D02*
X61421905Y-66459800D01*
X61421905Y-66459800D02*
X61383810Y-66507419D01*
X61383810Y-66507419D02*
X61307619Y-66507419D01*
X61307619Y-66507419D02*
X61269524Y-66459800D01*
X61269524Y-66459800D02*
X61231429Y-66364561D01*
X61231429Y-66364561D02*
X61212381Y-66174085D01*
X61212381Y-66174085D02*
X61212381Y-65840752D01*
X61212381Y-65840752D02*
X61231429Y-65650276D01*
X61231429Y-65650276D02*
X61269524Y-65555038D01*
X61269524Y-65555038D02*
X61307619Y-65507419D01*
X61631429Y-65602657D02*
X61650477Y-65555038D01*
X61650477Y-65555038D02*
X61688572Y-65507419D01*
X61688572Y-65507419D02*
X61783810Y-65507419D01*
X61783810Y-65507419D02*
X61821905Y-65555038D01*
X61821905Y-65555038D02*
X61840953Y-65602657D01*
X61840953Y-65602657D02*
X61860000Y-65697895D01*
X61860000Y-65697895D02*
X61860000Y-65793133D01*
X61860000Y-65793133D02*
X61840953Y-65935990D01*
X61840953Y-65935990D02*
X61612381Y-66507419D01*
X61612381Y-66507419D02*
X61860000Y-66507419D01*
X62012381Y-65602657D02*
X62031429Y-65555038D01*
X62031429Y-65555038D02*
X62069524Y-65507419D01*
X62069524Y-65507419D02*
X62164762Y-65507419D01*
X62164762Y-65507419D02*
X62202857Y-65555038D01*
X62202857Y-65555038D02*
X62221905Y-65602657D01*
X62221905Y-65602657D02*
X62240952Y-65697895D01*
X62240952Y-65697895D02*
X62240952Y-65793133D01*
X62240952Y-65793133D02*
X62221905Y-65935990D01*
X62221905Y-65935990D02*
X61993333Y-66507419D01*
X61993333Y-66507419D02*
X62240952Y-66507419D01*
X62488571Y-65507419D02*
X62526666Y-65507419D01*
X62526666Y-65507419D02*
X62564762Y-65555038D01*
X62564762Y-65555038D02*
X62583809Y-65602657D01*
X62583809Y-65602657D02*
X62602857Y-65697895D01*
X62602857Y-65697895D02*
X62621904Y-65888371D01*
X62621904Y-65888371D02*
X62621904Y-66126466D01*
X62621904Y-66126466D02*
X62602857Y-66316942D01*
X62602857Y-66316942D02*
X62583809Y-66412180D01*
X62583809Y-66412180D02*
X62564762Y-66459800D01*
X62564762Y-66459800D02*
X62526666Y-66507419D01*
X62526666Y-66507419D02*
X62488571Y-66507419D01*
X62488571Y-66507419D02*
X62450476Y-66459800D01*
X62450476Y-66459800D02*
X62431428Y-66412180D01*
X62431428Y-66412180D02*
X62412381Y-66316942D01*
X62412381Y-66316942D02*
X62393333Y-66126466D01*
X62393333Y-66126466D02*
X62393333Y-65888371D01*
X62393333Y-65888371D02*
X62412381Y-65697895D01*
X62412381Y-65697895D02*
X62431428Y-65602657D01*
X62431428Y-65602657D02*
X62450476Y-65555038D01*
X62450476Y-65555038D02*
X62488571Y-65507419D01*
D10*
X63083333Y-60609580D02*
X63035714Y-60657200D01*
X63035714Y-60657200D02*
X62892857Y-60704819D01*
X62892857Y-60704819D02*
X62797619Y-60704819D01*
X62797619Y-60704819D02*
X62654762Y-60657200D01*
X62654762Y-60657200D02*
X62559524Y-60561961D01*
X62559524Y-60561961D02*
X62511905Y-60466723D01*
X62511905Y-60466723D02*
X62464286Y-60276247D01*
X62464286Y-60276247D02*
X62464286Y-60133390D01*
X62464286Y-60133390D02*
X62511905Y-59942914D01*
X62511905Y-59942914D02*
X62559524Y-59847676D01*
X62559524Y-59847676D02*
X62654762Y-59752438D01*
X62654762Y-59752438D02*
X62797619Y-59704819D01*
X62797619Y-59704819D02*
X62892857Y-59704819D01*
X62892857Y-59704819D02*
X63035714Y-59752438D01*
X63035714Y-59752438D02*
X63083333Y-59800057D01*
X64035714Y-60704819D02*
X63464286Y-60704819D01*
X63750000Y-60704819D02*
X63750000Y-59704819D01*
X63750000Y-59704819D02*
X63654762Y-59847676D01*
X63654762Y-59847676D02*
X63559524Y-59942914D01*
X63559524Y-59942914D02*
X63464286Y-59990533D01*
D12*
X67242857Y-60707419D02*
X67014286Y-60707419D01*
X67128572Y-60707419D02*
X67128572Y-59707419D01*
X67128572Y-59707419D02*
X67090476Y-59850276D01*
X67090476Y-59850276D02*
X67052381Y-59945514D01*
X67052381Y-59945514D02*
X67014286Y-59993133D01*
X67490476Y-59707419D02*
X67528571Y-59707419D01*
X67528571Y-59707419D02*
X67566667Y-59755038D01*
X67566667Y-59755038D02*
X67585714Y-59802657D01*
X67585714Y-59802657D02*
X67604762Y-59897895D01*
X67604762Y-59897895D02*
X67623809Y-60088371D01*
X67623809Y-60088371D02*
X67623809Y-60326466D01*
X67623809Y-60326466D02*
X67604762Y-60516942D01*
X67604762Y-60516942D02*
X67585714Y-60612180D01*
X67585714Y-60612180D02*
X67566667Y-60659800D01*
X67566667Y-60659800D02*
X67528571Y-60707419D01*
X67528571Y-60707419D02*
X67490476Y-60707419D01*
X67490476Y-60707419D02*
X67452381Y-60659800D01*
X67452381Y-60659800D02*
X67433333Y-60612180D01*
X67433333Y-60612180D02*
X67414286Y-60516942D01*
X67414286Y-60516942D02*
X67395238Y-60326466D01*
X67395238Y-60326466D02*
X67395238Y-60088371D01*
X67395238Y-60088371D02*
X67414286Y-59897895D01*
X67414286Y-59897895D02*
X67433333Y-59802657D01*
X67433333Y-59802657D02*
X67452381Y-59755038D01*
X67452381Y-59755038D02*
X67490476Y-59707419D01*
X67966666Y-60040752D02*
X67966666Y-60707419D01*
X67795238Y-60040752D02*
X67795238Y-60564561D01*
X67795238Y-60564561D02*
X67814285Y-60659800D01*
X67814285Y-60659800D02*
X67852380Y-60707419D01*
X67852380Y-60707419D02*
X67909523Y-60707419D01*
X67909523Y-60707419D02*
X67947619Y-60659800D01*
X67947619Y-60659800D02*
X67966666Y-60612180D01*
D10*
X72083333Y-73954819D02*
X71750000Y-73478628D01*
X71511905Y-73954819D02*
X71511905Y-72954819D01*
X71511905Y-72954819D02*
X71892857Y-72954819D01*
X71892857Y-72954819D02*
X71988095Y-73002438D01*
X71988095Y-73002438D02*
X72035714Y-73050057D01*
X72035714Y-73050057D02*
X72083333Y-73145295D01*
X72083333Y-73145295D02*
X72083333Y-73288152D01*
X72083333Y-73288152D02*
X72035714Y-73383390D01*
X72035714Y-73383390D02*
X71988095Y-73431009D01*
X71988095Y-73431009D02*
X71892857Y-73478628D01*
X71892857Y-73478628D02*
X71511905Y-73478628D01*
X73035714Y-73954819D02*
X72464286Y-73954819D01*
X72750000Y-73954819D02*
X72750000Y-72954819D01*
X72750000Y-72954819D02*
X72654762Y-73097676D01*
X72654762Y-73097676D02*
X72559524Y-73192914D01*
X72559524Y-73192914D02*
X72464286Y-73240533D01*
D12*
X77450714Y-74177419D02*
X77698333Y-74177419D01*
X77698333Y-74177419D02*
X77565000Y-74558371D01*
X77565000Y-74558371D02*
X77622143Y-74558371D01*
X77622143Y-74558371D02*
X77660238Y-74605990D01*
X77660238Y-74605990D02*
X77679286Y-74653609D01*
X77679286Y-74653609D02*
X77698333Y-74748847D01*
X77698333Y-74748847D02*
X77698333Y-74986942D01*
X77698333Y-74986942D02*
X77679286Y-75082180D01*
X77679286Y-75082180D02*
X77660238Y-75129800D01*
X77660238Y-75129800D02*
X77622143Y-75177419D01*
X77622143Y-75177419D02*
X77507857Y-75177419D01*
X77507857Y-75177419D02*
X77469762Y-75129800D01*
X77469762Y-75129800D02*
X77450714Y-75082180D01*
X77831666Y-74177419D02*
X78079285Y-74177419D01*
X78079285Y-74177419D02*
X77945952Y-74558371D01*
X77945952Y-74558371D02*
X78003095Y-74558371D01*
X78003095Y-74558371D02*
X78041190Y-74605990D01*
X78041190Y-74605990D02*
X78060238Y-74653609D01*
X78060238Y-74653609D02*
X78079285Y-74748847D01*
X78079285Y-74748847D02*
X78079285Y-74986942D01*
X78079285Y-74986942D02*
X78060238Y-75082180D01*
X78060238Y-75082180D02*
X78041190Y-75129800D01*
X78041190Y-75129800D02*
X78003095Y-75177419D01*
X78003095Y-75177419D02*
X77888809Y-75177419D01*
X77888809Y-75177419D02*
X77850714Y-75129800D01*
X77850714Y-75129800D02*
X77831666Y-75082180D01*
X78326904Y-74177419D02*
X78364999Y-74177419D01*
X78364999Y-74177419D02*
X78403095Y-74225038D01*
X78403095Y-74225038D02*
X78422142Y-74272657D01*
X78422142Y-74272657D02*
X78441190Y-74367895D01*
X78441190Y-74367895D02*
X78460237Y-74558371D01*
X78460237Y-74558371D02*
X78460237Y-74796466D01*
X78460237Y-74796466D02*
X78441190Y-74986942D01*
X78441190Y-74986942D02*
X78422142Y-75082180D01*
X78422142Y-75082180D02*
X78403095Y-75129800D01*
X78403095Y-75129800D02*
X78364999Y-75177419D01*
X78364999Y-75177419D02*
X78326904Y-75177419D01*
X78326904Y-75177419D02*
X78288809Y-75129800D01*
X78288809Y-75129800D02*
X78269761Y-75082180D01*
X78269761Y-75082180D02*
X78250714Y-74986942D01*
X78250714Y-74986942D02*
X78231666Y-74796466D01*
X78231666Y-74796466D02*
X78231666Y-74558371D01*
X78231666Y-74558371D02*
X78250714Y-74367895D01*
X78250714Y-74367895D02*
X78269761Y-74272657D01*
X78269761Y-74272657D02*
X78288809Y-74225038D01*
X78288809Y-74225038D02*
X78326904Y-74177419D01*
D10*
X58198095Y-91474819D02*
X58198095Y-92284342D01*
X58198095Y-92284342D02*
X58245714Y-92379580D01*
X58245714Y-92379580D02*
X58293333Y-92427200D01*
X58293333Y-92427200D02*
X58388571Y-92474819D01*
X58388571Y-92474819D02*
X58579047Y-92474819D01*
X58579047Y-92474819D02*
X58674285Y-92427200D01*
X58674285Y-92427200D02*
X58721904Y-92379580D01*
X58721904Y-92379580D02*
X58769523Y-92284342D01*
X58769523Y-92284342D02*
X58769523Y-91474819D01*
X59198095Y-91570057D02*
X59245714Y-91522438D01*
X59245714Y-91522438D02*
X59340952Y-91474819D01*
X59340952Y-91474819D02*
X59579047Y-91474819D01*
X59579047Y-91474819D02*
X59674285Y-91522438D01*
X59674285Y-91522438D02*
X59721904Y-91570057D01*
X59721904Y-91570057D02*
X59769523Y-91665295D01*
X59769523Y-91665295D02*
X59769523Y-91760533D01*
X59769523Y-91760533D02*
X59721904Y-91903390D01*
X59721904Y-91903390D02*
X59150476Y-92474819D01*
X59150476Y-92474819D02*
X59769523Y-92474819D01*
D12*
X66957419Y-91009522D02*
X66957419Y-91199998D01*
X66957419Y-91199998D02*
X65957419Y-91199998D01*
X66957419Y-90876188D02*
X65957419Y-90876188D01*
X65957419Y-90876188D02*
X66671704Y-90742855D01*
X66671704Y-90742855D02*
X65957419Y-90609522D01*
X65957419Y-90609522D02*
X66957419Y-90609522D01*
X65957419Y-90457141D02*
X65957419Y-90209522D01*
X65957419Y-90209522D02*
X66338371Y-90342855D01*
X66338371Y-90342855D02*
X66338371Y-90285712D01*
X66338371Y-90285712D02*
X66385990Y-90247617D01*
X66385990Y-90247617D02*
X66433609Y-90228569D01*
X66433609Y-90228569D02*
X66528847Y-90209522D01*
X66528847Y-90209522D02*
X66766942Y-90209522D01*
X66766942Y-90209522D02*
X66862180Y-90228569D01*
X66862180Y-90228569D02*
X66909800Y-90247617D01*
X66909800Y-90247617D02*
X66957419Y-90285712D01*
X66957419Y-90285712D02*
X66957419Y-90399998D01*
X66957419Y-90399998D02*
X66909800Y-90438093D01*
X66909800Y-90438093D02*
X66862180Y-90457141D01*
X66957419Y-89828570D02*
X66957419Y-90057141D01*
X66957419Y-89942855D02*
X65957419Y-89942855D01*
X65957419Y-89942855D02*
X66100276Y-89980951D01*
X66100276Y-89980951D02*
X66195514Y-90019046D01*
X66195514Y-90019046D02*
X66243133Y-90057141D01*
X65957419Y-89695237D02*
X65957419Y-89428570D01*
X65957419Y-89428570D02*
X66957419Y-89599999D01*
X67052657Y-89371428D02*
X67052657Y-89066666D01*
X65957419Y-89028570D02*
X65957419Y-88799999D01*
X66957419Y-88914285D02*
X65957419Y-88914285D01*
X65957419Y-88590475D02*
X65957419Y-88514284D01*
X65957419Y-88514284D02*
X66005038Y-88476189D01*
X66005038Y-88476189D02*
X66100276Y-88438094D01*
X66100276Y-88438094D02*
X66290752Y-88419046D01*
X66290752Y-88419046D02*
X66624085Y-88419046D01*
X66624085Y-88419046D02*
X66814561Y-88438094D01*
X66814561Y-88438094D02*
X66909800Y-88476189D01*
X66909800Y-88476189D02*
X66957419Y-88514284D01*
X66957419Y-88514284D02*
X66957419Y-88590475D01*
X66957419Y-88590475D02*
X66909800Y-88628570D01*
X66909800Y-88628570D02*
X66814561Y-88666665D01*
X66814561Y-88666665D02*
X66624085Y-88685713D01*
X66624085Y-88685713D02*
X66290752Y-88685713D01*
X66290752Y-88685713D02*
X66100276Y-88666665D01*
X66100276Y-88666665D02*
X66005038Y-88628570D01*
X66005038Y-88628570D02*
X65957419Y-88590475D01*
X66576466Y-88247617D02*
X66576466Y-87942856D01*
X66052657Y-87771427D02*
X66005038Y-87752379D01*
X66005038Y-87752379D02*
X65957419Y-87714284D01*
X65957419Y-87714284D02*
X65957419Y-87619046D01*
X65957419Y-87619046D02*
X66005038Y-87580951D01*
X66005038Y-87580951D02*
X66052657Y-87561903D01*
X66052657Y-87561903D02*
X66147895Y-87542856D01*
X66147895Y-87542856D02*
X66243133Y-87542856D01*
X66243133Y-87542856D02*
X66385990Y-87561903D01*
X66385990Y-87561903D02*
X66957419Y-87790475D01*
X66957419Y-87790475D02*
X66957419Y-87542856D01*
X66052657Y-87390475D02*
X66005038Y-87371427D01*
X66005038Y-87371427D02*
X65957419Y-87333332D01*
X65957419Y-87333332D02*
X65957419Y-87238094D01*
X65957419Y-87238094D02*
X66005038Y-87199999D01*
X66005038Y-87199999D02*
X66052657Y-87180951D01*
X66052657Y-87180951D02*
X66147895Y-87161904D01*
X66147895Y-87161904D02*
X66243133Y-87161904D01*
X66243133Y-87161904D02*
X66385990Y-87180951D01*
X66385990Y-87180951D02*
X66957419Y-87409523D01*
X66957419Y-87409523D02*
X66957419Y-87161904D01*
X65957419Y-86914285D02*
X65957419Y-86876190D01*
X65957419Y-86876190D02*
X66005038Y-86838094D01*
X66005038Y-86838094D02*
X66052657Y-86819047D01*
X66052657Y-86819047D02*
X66147895Y-86799999D01*
X66147895Y-86799999D02*
X66338371Y-86780952D01*
X66338371Y-86780952D02*
X66576466Y-86780952D01*
X66576466Y-86780952D02*
X66766942Y-86799999D01*
X66766942Y-86799999D02*
X66862180Y-86819047D01*
X66862180Y-86819047D02*
X66909800Y-86838094D01*
X66909800Y-86838094D02*
X66957419Y-86876190D01*
X66957419Y-86876190D02*
X66957419Y-86914285D01*
X66957419Y-86914285D02*
X66909800Y-86952380D01*
X66909800Y-86952380D02*
X66862180Y-86971428D01*
X66862180Y-86971428D02*
X66766942Y-86990475D01*
X66766942Y-86990475D02*
X66576466Y-87009523D01*
X66576466Y-87009523D02*
X66338371Y-87009523D01*
X66338371Y-87009523D02*
X66147895Y-86990475D01*
X66147895Y-86990475D02*
X66052657Y-86971428D01*
X66052657Y-86971428D02*
X66005038Y-86952380D01*
X66005038Y-86952380D02*
X65957419Y-86914285D01*
D10*
X75916667Y-64907200D02*
X76059524Y-64954819D01*
X76059524Y-64954819D02*
X76297619Y-64954819D01*
X76297619Y-64954819D02*
X76392857Y-64907200D01*
X76392857Y-64907200D02*
X76440476Y-64859580D01*
X76440476Y-64859580D02*
X76488095Y-64764342D01*
X76488095Y-64764342D02*
X76488095Y-64669104D01*
X76488095Y-64669104D02*
X76440476Y-64573866D01*
X76440476Y-64573866D02*
X76392857Y-64526247D01*
X76392857Y-64526247D02*
X76297619Y-64478628D01*
X76297619Y-64478628D02*
X76107143Y-64431009D01*
X76107143Y-64431009D02*
X76011905Y-64383390D01*
X76011905Y-64383390D02*
X75964286Y-64335771D01*
X75964286Y-64335771D02*
X75916667Y-64240533D01*
X75916667Y-64240533D02*
X75916667Y-64145295D01*
X75916667Y-64145295D02*
X75964286Y-64050057D01*
X75964286Y-64050057D02*
X76011905Y-64002438D01*
X76011905Y-64002438D02*
X76107143Y-63954819D01*
X76107143Y-63954819D02*
X76345238Y-63954819D01*
X76345238Y-63954819D02*
X76488095Y-64002438D01*
X76821429Y-63954819D02*
X77059524Y-64954819D01*
X77059524Y-64954819D02*
X77250000Y-64240533D01*
X77250000Y-64240533D02*
X77440476Y-64954819D01*
X77440476Y-64954819D02*
X77678572Y-63954819D01*
X78583333Y-64954819D02*
X78011905Y-64954819D01*
X78297619Y-64954819D02*
X78297619Y-63954819D01*
X78297619Y-63954819D02*
X78202381Y-64097676D01*
X78202381Y-64097676D02*
X78107143Y-64192914D01*
X78107143Y-64192914D02*
X78011905Y-64240533D01*
D12*
X70702382Y-71683609D02*
X70835715Y-71683609D01*
X70892858Y-72207419D02*
X70702382Y-72207419D01*
X70702382Y-72207419D02*
X70702382Y-71207419D01*
X70702382Y-71207419D02*
X70892858Y-71207419D01*
X71273810Y-71255038D02*
X71235715Y-71207419D01*
X71235715Y-71207419D02*
X71178572Y-71207419D01*
X71178572Y-71207419D02*
X71121429Y-71255038D01*
X71121429Y-71255038D02*
X71083334Y-71350276D01*
X71083334Y-71350276D02*
X71064287Y-71445514D01*
X71064287Y-71445514D02*
X71045239Y-71635990D01*
X71045239Y-71635990D02*
X71045239Y-71778847D01*
X71045239Y-71778847D02*
X71064287Y-71969323D01*
X71064287Y-71969323D02*
X71083334Y-72064561D01*
X71083334Y-72064561D02*
X71121429Y-72159800D01*
X71121429Y-72159800D02*
X71178572Y-72207419D01*
X71178572Y-72207419D02*
X71216668Y-72207419D01*
X71216668Y-72207419D02*
X71273810Y-72159800D01*
X71273810Y-72159800D02*
X71292858Y-72112180D01*
X71292858Y-72112180D02*
X71292858Y-71778847D01*
X71292858Y-71778847D02*
X71216668Y-71778847D01*
X71673810Y-72207419D02*
X71445239Y-72207419D01*
X71559525Y-72207419D02*
X71559525Y-71207419D01*
X71559525Y-71207419D02*
X71521429Y-71350276D01*
X71521429Y-71350276D02*
X71483334Y-71445514D01*
X71483334Y-71445514D02*
X71445239Y-71493133D01*
X71826191Y-71302657D02*
X71845239Y-71255038D01*
X71845239Y-71255038D02*
X71883334Y-71207419D01*
X71883334Y-71207419D02*
X71978572Y-71207419D01*
X71978572Y-71207419D02*
X72016667Y-71255038D01*
X72016667Y-71255038D02*
X72035715Y-71302657D01*
X72035715Y-71302657D02*
X72054762Y-71397895D01*
X72054762Y-71397895D02*
X72054762Y-71493133D01*
X72054762Y-71493133D02*
X72035715Y-71635990D01*
X72035715Y-71635990D02*
X71807143Y-72207419D01*
X71807143Y-72207419D02*
X72054762Y-72207419D01*
X72435714Y-72207419D02*
X72207143Y-72207419D01*
X72321429Y-72207419D02*
X72321429Y-71207419D01*
X72321429Y-71207419D02*
X72283333Y-71350276D01*
X72283333Y-71350276D02*
X72245238Y-71445514D01*
X72245238Y-71445514D02*
X72207143Y-71493133D01*
X72664285Y-71635990D02*
X72626190Y-71588371D01*
X72626190Y-71588371D02*
X72607143Y-71540752D01*
X72607143Y-71540752D02*
X72588095Y-71445514D01*
X72588095Y-71445514D02*
X72588095Y-71397895D01*
X72588095Y-71397895D02*
X72607143Y-71302657D01*
X72607143Y-71302657D02*
X72626190Y-71255038D01*
X72626190Y-71255038D02*
X72664285Y-71207419D01*
X72664285Y-71207419D02*
X72740476Y-71207419D01*
X72740476Y-71207419D02*
X72778571Y-71255038D01*
X72778571Y-71255038D02*
X72797619Y-71302657D01*
X72797619Y-71302657D02*
X72816666Y-71397895D01*
X72816666Y-71397895D02*
X72816666Y-71445514D01*
X72816666Y-71445514D02*
X72797619Y-71540752D01*
X72797619Y-71540752D02*
X72778571Y-71588371D01*
X72778571Y-71588371D02*
X72740476Y-71635990D01*
X72740476Y-71635990D02*
X72664285Y-71635990D01*
X72664285Y-71635990D02*
X72626190Y-71683609D01*
X72626190Y-71683609D02*
X72607143Y-71731228D01*
X72607143Y-71731228D02*
X72588095Y-71826466D01*
X72588095Y-71826466D02*
X72588095Y-72016942D01*
X72588095Y-72016942D02*
X72607143Y-72112180D01*
X72607143Y-72112180D02*
X72626190Y-72159800D01*
X72626190Y-72159800D02*
X72664285Y-72207419D01*
X72664285Y-72207419D02*
X72740476Y-72207419D01*
X72740476Y-72207419D02*
X72778571Y-72159800D01*
X72778571Y-72159800D02*
X72797619Y-72112180D01*
X72797619Y-72112180D02*
X72816666Y-72016942D01*
X72816666Y-72016942D02*
X72816666Y-71826466D01*
X72816666Y-71826466D02*
X72797619Y-71731228D01*
X72797619Y-71731228D02*
X72778571Y-71683609D01*
X72778571Y-71683609D02*
X72740476Y-71635990D01*
D10*
X55833333Y-60309580D02*
X55785714Y-60357200D01*
X55785714Y-60357200D02*
X55642857Y-60404819D01*
X55642857Y-60404819D02*
X55547619Y-60404819D01*
X55547619Y-60404819D02*
X55404762Y-60357200D01*
X55404762Y-60357200D02*
X55309524Y-60261961D01*
X55309524Y-60261961D02*
X55261905Y-60166723D01*
X55261905Y-60166723D02*
X55214286Y-59976247D01*
X55214286Y-59976247D02*
X55214286Y-59833390D01*
X55214286Y-59833390D02*
X55261905Y-59642914D01*
X55261905Y-59642914D02*
X55309524Y-59547676D01*
X55309524Y-59547676D02*
X55404762Y-59452438D01*
X55404762Y-59452438D02*
X55547619Y-59404819D01*
X55547619Y-59404819D02*
X55642857Y-59404819D01*
X55642857Y-59404819D02*
X55785714Y-59452438D01*
X55785714Y-59452438D02*
X55833333Y-59500057D01*
X56214286Y-59500057D02*
X56261905Y-59452438D01*
X56261905Y-59452438D02*
X56357143Y-59404819D01*
X56357143Y-59404819D02*
X56595238Y-59404819D01*
X56595238Y-59404819D02*
X56690476Y-59452438D01*
X56690476Y-59452438D02*
X56738095Y-59500057D01*
X56738095Y-59500057D02*
X56785714Y-59595295D01*
X56785714Y-59595295D02*
X56785714Y-59690533D01*
X56785714Y-59690533D02*
X56738095Y-59833390D01*
X56738095Y-59833390D02*
X56166667Y-60404819D01*
X56166667Y-60404819D02*
X56785714Y-60404819D01*
D12*
X55264286Y-63207419D02*
X55302381Y-63207419D01*
X55302381Y-63207419D02*
X55340477Y-63255038D01*
X55340477Y-63255038D02*
X55359524Y-63302657D01*
X55359524Y-63302657D02*
X55378572Y-63397895D01*
X55378572Y-63397895D02*
X55397619Y-63588371D01*
X55397619Y-63588371D02*
X55397619Y-63826466D01*
X55397619Y-63826466D02*
X55378572Y-64016942D01*
X55378572Y-64016942D02*
X55359524Y-64112180D01*
X55359524Y-64112180D02*
X55340477Y-64159800D01*
X55340477Y-64159800D02*
X55302381Y-64207419D01*
X55302381Y-64207419D02*
X55264286Y-64207419D01*
X55264286Y-64207419D02*
X55226191Y-64159800D01*
X55226191Y-64159800D02*
X55207143Y-64112180D01*
X55207143Y-64112180D02*
X55188096Y-64016942D01*
X55188096Y-64016942D02*
X55169048Y-63826466D01*
X55169048Y-63826466D02*
X55169048Y-63588371D01*
X55169048Y-63588371D02*
X55188096Y-63397895D01*
X55188096Y-63397895D02*
X55207143Y-63302657D01*
X55207143Y-63302657D02*
X55226191Y-63255038D01*
X55226191Y-63255038D02*
X55264286Y-63207419D01*
X55569048Y-64112180D02*
X55588095Y-64159800D01*
X55588095Y-64159800D02*
X55569048Y-64207419D01*
X55569048Y-64207419D02*
X55550000Y-64159800D01*
X55550000Y-64159800D02*
X55569048Y-64112180D01*
X55569048Y-64112180D02*
X55569048Y-64207419D01*
X55969047Y-64207419D02*
X55740476Y-64207419D01*
X55854762Y-64207419D02*
X55854762Y-63207419D01*
X55854762Y-63207419D02*
X55816666Y-63350276D01*
X55816666Y-63350276D02*
X55778571Y-63445514D01*
X55778571Y-63445514D02*
X55740476Y-63493133D01*
X56311904Y-63540752D02*
X56311904Y-64207419D01*
X56140476Y-63540752D02*
X56140476Y-64064561D01*
X56140476Y-64064561D02*
X56159523Y-64159800D01*
X56159523Y-64159800D02*
X56197618Y-64207419D01*
X56197618Y-64207419D02*
X56254761Y-64207419D01*
X56254761Y-64207419D02*
X56292857Y-64159800D01*
X56292857Y-64159800D02*
X56311904Y-64112180D01*
D10*
X83204819Y-102083333D02*
X83919104Y-102083333D01*
X83919104Y-102083333D02*
X84061961Y-102130952D01*
X84061961Y-102130952D02*
X84157200Y-102226190D01*
X84157200Y-102226190D02*
X84204819Y-102369047D01*
X84204819Y-102369047D02*
X84204819Y-102464285D01*
X83300057Y-101654761D02*
X83252438Y-101607142D01*
X83252438Y-101607142D02*
X83204819Y-101511904D01*
X83204819Y-101511904D02*
X83204819Y-101273809D01*
X83204819Y-101273809D02*
X83252438Y-101178571D01*
X83252438Y-101178571D02*
X83300057Y-101130952D01*
X83300057Y-101130952D02*
X83395295Y-101083333D01*
X83395295Y-101083333D02*
X83490533Y-101083333D01*
X83490533Y-101083333D02*
X83633390Y-101130952D01*
X83633390Y-101130952D02*
X84204819Y-101702380D01*
X84204819Y-101702380D02*
X84204819Y-101083333D01*
X83454819Y-54583333D02*
X84169104Y-54583333D01*
X84169104Y-54583333D02*
X84311961Y-54630952D01*
X84311961Y-54630952D02*
X84407200Y-54726190D01*
X84407200Y-54726190D02*
X84454819Y-54869047D01*
X84454819Y-54869047D02*
X84454819Y-54964285D01*
X84454819Y-53583333D02*
X84454819Y-54154761D01*
X84454819Y-53869047D02*
X83454819Y-53869047D01*
X83454819Y-53869047D02*
X83597676Y-53964285D01*
X83597676Y-53964285D02*
X83692914Y-54059523D01*
X83692914Y-54059523D02*
X83740533Y-54154761D01*
D12*
X84362180Y-59873809D02*
X84409800Y-59892857D01*
X84409800Y-59892857D02*
X84457419Y-59949999D01*
X84457419Y-59949999D02*
X84457419Y-59988095D01*
X84457419Y-59988095D02*
X84409800Y-60045238D01*
X84409800Y-60045238D02*
X84314561Y-60083333D01*
X84314561Y-60083333D02*
X84219323Y-60102380D01*
X84219323Y-60102380D02*
X84028847Y-60121428D01*
X84028847Y-60121428D02*
X83885990Y-60121428D01*
X83885990Y-60121428D02*
X83695514Y-60102380D01*
X83695514Y-60102380D02*
X83600276Y-60083333D01*
X83600276Y-60083333D02*
X83505038Y-60045238D01*
X83505038Y-60045238D02*
X83457419Y-59988095D01*
X83457419Y-59988095D02*
X83457419Y-59949999D01*
X83457419Y-59949999D02*
X83505038Y-59892857D01*
X83505038Y-59892857D02*
X83552657Y-59873809D01*
X84457419Y-59645238D02*
X84409800Y-59683333D01*
X84409800Y-59683333D02*
X84362180Y-59702380D01*
X84362180Y-59702380D02*
X84266942Y-59721428D01*
X84266942Y-59721428D02*
X83981228Y-59721428D01*
X83981228Y-59721428D02*
X83885990Y-59702380D01*
X83885990Y-59702380D02*
X83838371Y-59683333D01*
X83838371Y-59683333D02*
X83790752Y-59645238D01*
X83790752Y-59645238D02*
X83790752Y-59588095D01*
X83790752Y-59588095D02*
X83838371Y-59549999D01*
X83838371Y-59549999D02*
X83885990Y-59530952D01*
X83885990Y-59530952D02*
X83981228Y-59511904D01*
X83981228Y-59511904D02*
X84266942Y-59511904D01*
X84266942Y-59511904D02*
X84362180Y-59530952D01*
X84362180Y-59530952D02*
X84409800Y-59549999D01*
X84409800Y-59549999D02*
X84457419Y-59588095D01*
X84457419Y-59588095D02*
X84457419Y-59645238D01*
X83790752Y-59340475D02*
X84457419Y-59340475D01*
X83885990Y-59340475D02*
X83838371Y-59321428D01*
X83838371Y-59321428D02*
X83790752Y-59283333D01*
X83790752Y-59283333D02*
X83790752Y-59226190D01*
X83790752Y-59226190D02*
X83838371Y-59188094D01*
X83838371Y-59188094D02*
X83933609Y-59169047D01*
X83933609Y-59169047D02*
X84457419Y-59169047D01*
X83790752Y-58978570D02*
X84457419Y-58978570D01*
X83885990Y-58978570D02*
X83838371Y-58959523D01*
X83838371Y-58959523D02*
X83790752Y-58921428D01*
X83790752Y-58921428D02*
X83790752Y-58864285D01*
X83790752Y-58864285D02*
X83838371Y-58826189D01*
X83838371Y-58826189D02*
X83933609Y-58807142D01*
X83933609Y-58807142D02*
X84457419Y-58807142D01*
X84552657Y-58711904D02*
X84552657Y-58407142D01*
X83457419Y-58235713D02*
X83457419Y-58197618D01*
X83457419Y-58197618D02*
X83505038Y-58159522D01*
X83505038Y-58159522D02*
X83552657Y-58140475D01*
X83552657Y-58140475D02*
X83647895Y-58121427D01*
X83647895Y-58121427D02*
X83838371Y-58102380D01*
X83838371Y-58102380D02*
X84076466Y-58102380D01*
X84076466Y-58102380D02*
X84266942Y-58121427D01*
X84266942Y-58121427D02*
X84362180Y-58140475D01*
X84362180Y-58140475D02*
X84409800Y-58159522D01*
X84409800Y-58159522D02*
X84457419Y-58197618D01*
X84457419Y-58197618D02*
X84457419Y-58235713D01*
X84457419Y-58235713D02*
X84409800Y-58273808D01*
X84409800Y-58273808D02*
X84362180Y-58292856D01*
X84362180Y-58292856D02*
X84266942Y-58311903D01*
X84266942Y-58311903D02*
X84076466Y-58330951D01*
X84076466Y-58330951D02*
X83838371Y-58330951D01*
X83838371Y-58330951D02*
X83647895Y-58311903D01*
X83647895Y-58311903D02*
X83552657Y-58292856D01*
X83552657Y-58292856D02*
X83505038Y-58273808D01*
X83505038Y-58273808D02*
X83457419Y-58235713D01*
X84457419Y-57721428D02*
X84457419Y-57949999D01*
X84457419Y-57835713D02*
X83457419Y-57835713D01*
X83457419Y-57835713D02*
X83600276Y-57873809D01*
X83600276Y-57873809D02*
X83695514Y-57911904D01*
X83695514Y-57911904D02*
X83743133Y-57949999D01*
X84457419Y-57588095D02*
X83790752Y-57378571D01*
X83790752Y-57588095D02*
X84457419Y-57378571D01*
X83457419Y-57149999D02*
X83457419Y-57111904D01*
X83457419Y-57111904D02*
X83505038Y-57073808D01*
X83505038Y-57073808D02*
X83552657Y-57054761D01*
X83552657Y-57054761D02*
X83647895Y-57035713D01*
X83647895Y-57035713D02*
X83838371Y-57016666D01*
X83838371Y-57016666D02*
X84076466Y-57016666D01*
X84076466Y-57016666D02*
X84266942Y-57035713D01*
X84266942Y-57035713D02*
X84362180Y-57054761D01*
X84362180Y-57054761D02*
X84409800Y-57073808D01*
X84409800Y-57073808D02*
X84457419Y-57111904D01*
X84457419Y-57111904D02*
X84457419Y-57149999D01*
X84457419Y-57149999D02*
X84409800Y-57188094D01*
X84409800Y-57188094D02*
X84362180Y-57207142D01*
X84362180Y-57207142D02*
X84266942Y-57226189D01*
X84266942Y-57226189D02*
X84076466Y-57245237D01*
X84076466Y-57245237D02*
X83838371Y-57245237D01*
X83838371Y-57245237D02*
X83647895Y-57226189D01*
X83647895Y-57226189D02*
X83552657Y-57207142D01*
X83552657Y-57207142D02*
X83505038Y-57188094D01*
X83505038Y-57188094D02*
X83457419Y-57149999D01*
X83552657Y-56864285D02*
X83505038Y-56845237D01*
X83505038Y-56845237D02*
X83457419Y-56807142D01*
X83457419Y-56807142D02*
X83457419Y-56711904D01*
X83457419Y-56711904D02*
X83505038Y-56673809D01*
X83505038Y-56673809D02*
X83552657Y-56654761D01*
X83552657Y-56654761D02*
X83647895Y-56635714D01*
X83647895Y-56635714D02*
X83743133Y-56635714D01*
X83743133Y-56635714D02*
X83885990Y-56654761D01*
X83885990Y-56654761D02*
X84457419Y-56883333D01*
X84457419Y-56883333D02*
X84457419Y-56635714D01*
X84552657Y-56559524D02*
X84552657Y-56254762D01*
X84457419Y-56159523D02*
X83457419Y-56159523D01*
X83457419Y-56159523D02*
X83457419Y-56007142D01*
X83457419Y-56007142D02*
X83505038Y-55969047D01*
X83505038Y-55969047D02*
X83552657Y-55950000D01*
X83552657Y-55950000D02*
X83647895Y-55930952D01*
X83647895Y-55930952D02*
X83790752Y-55930952D01*
X83790752Y-55930952D02*
X83885990Y-55950000D01*
X83885990Y-55950000D02*
X83933609Y-55969047D01*
X83933609Y-55969047D02*
X83981228Y-56007142D01*
X83981228Y-56007142D02*
X83981228Y-56159523D01*
X84457419Y-55759523D02*
X83790752Y-55759523D01*
X83457419Y-55759523D02*
X83505038Y-55778571D01*
X83505038Y-55778571D02*
X83552657Y-55759523D01*
X83552657Y-55759523D02*
X83505038Y-55740476D01*
X83505038Y-55740476D02*
X83457419Y-55759523D01*
X83457419Y-55759523D02*
X83552657Y-55759523D01*
X83790752Y-55569047D02*
X84457419Y-55569047D01*
X83885990Y-55569047D02*
X83838371Y-55550000D01*
X83838371Y-55550000D02*
X83790752Y-55511905D01*
X83790752Y-55511905D02*
X83790752Y-55454762D01*
X83790752Y-55454762D02*
X83838371Y-55416666D01*
X83838371Y-55416666D02*
X83933609Y-55397619D01*
X83933609Y-55397619D02*
X84457419Y-55397619D01*
D10*
X55358333Y-92509580D02*
X55310714Y-92557200D01*
X55310714Y-92557200D02*
X55167857Y-92604819D01*
X55167857Y-92604819D02*
X55072619Y-92604819D01*
X55072619Y-92604819D02*
X54929762Y-92557200D01*
X54929762Y-92557200D02*
X54834524Y-92461961D01*
X54834524Y-92461961D02*
X54786905Y-92366723D01*
X54786905Y-92366723D02*
X54739286Y-92176247D01*
X54739286Y-92176247D02*
X54739286Y-92033390D01*
X54739286Y-92033390D02*
X54786905Y-91842914D01*
X54786905Y-91842914D02*
X54834524Y-91747676D01*
X54834524Y-91747676D02*
X54929762Y-91652438D01*
X54929762Y-91652438D02*
X55072619Y-91604819D01*
X55072619Y-91604819D02*
X55167857Y-91604819D01*
X55167857Y-91604819D02*
X55310714Y-91652438D01*
X55310714Y-91652438D02*
X55358333Y-91700057D01*
X55691667Y-91604819D02*
X56310714Y-91604819D01*
X56310714Y-91604819D02*
X55977381Y-91985771D01*
X55977381Y-91985771D02*
X56120238Y-91985771D01*
X56120238Y-91985771D02*
X56215476Y-92033390D01*
X56215476Y-92033390D02*
X56263095Y-92081009D01*
X56263095Y-92081009D02*
X56310714Y-92176247D01*
X56310714Y-92176247D02*
X56310714Y-92414342D01*
X56310714Y-92414342D02*
X56263095Y-92509580D01*
X56263095Y-92509580D02*
X56215476Y-92557200D01*
X56215476Y-92557200D02*
X56120238Y-92604819D01*
X56120238Y-92604819D02*
X55834524Y-92604819D01*
X55834524Y-92604819D02*
X55739286Y-92557200D01*
X55739286Y-92557200D02*
X55691667Y-92509580D01*
D12*
X56433333Y-96457419D02*
X56204762Y-96457419D01*
X56319048Y-96457419D02*
X56319048Y-95457419D01*
X56319048Y-95457419D02*
X56280952Y-95600276D01*
X56280952Y-95600276D02*
X56242857Y-95695514D01*
X56242857Y-95695514D02*
X56204762Y-95743133D01*
X56776190Y-95790752D02*
X56776190Y-96457419D01*
X56604762Y-95790752D02*
X56604762Y-96314561D01*
X56604762Y-96314561D02*
X56623809Y-96409800D01*
X56623809Y-96409800D02*
X56661904Y-96457419D01*
X56661904Y-96457419D02*
X56719047Y-96457419D01*
X56719047Y-96457419D02*
X56757143Y-96409800D01*
X56757143Y-96409800D02*
X56776190Y-96362180D01*
D10*
X77241666Y-94674819D02*
X77241666Y-95389104D01*
X77241666Y-95389104D02*
X77194047Y-95531961D01*
X77194047Y-95531961D02*
X77098809Y-95627200D01*
X77098809Y-95627200D02*
X76955952Y-95674819D01*
X76955952Y-95674819D02*
X76860714Y-95674819D01*
X78194047Y-94674819D02*
X77717857Y-94674819D01*
X77717857Y-94674819D02*
X77670238Y-95151009D01*
X77670238Y-95151009D02*
X77717857Y-95103390D01*
X77717857Y-95103390D02*
X77813095Y-95055771D01*
X77813095Y-95055771D02*
X78051190Y-95055771D01*
X78051190Y-95055771D02*
X78146428Y-95103390D01*
X78146428Y-95103390D02*
X78194047Y-95151009D01*
X78194047Y-95151009D02*
X78241666Y-95246247D01*
X78241666Y-95246247D02*
X78241666Y-95484342D01*
X78241666Y-95484342D02*
X78194047Y-95579580D01*
X78194047Y-95579580D02*
X78146428Y-95627200D01*
X78146428Y-95627200D02*
X78051190Y-95674819D01*
X78051190Y-95674819D02*
X77813095Y-95674819D01*
X77813095Y-95674819D02*
X77717857Y-95627200D01*
X77717857Y-95627200D02*
X77670238Y-95579580D01*
X60116666Y-83572319D02*
X60116666Y-84286604D01*
X60116666Y-84286604D02*
X60069047Y-84429461D01*
X60069047Y-84429461D02*
X59973809Y-84524700D01*
X59973809Y-84524700D02*
X59830952Y-84572319D01*
X59830952Y-84572319D02*
X59735714Y-84572319D01*
X61021428Y-83572319D02*
X60830952Y-83572319D01*
X60830952Y-83572319D02*
X60735714Y-83619938D01*
X60735714Y-83619938D02*
X60688095Y-83667557D01*
X60688095Y-83667557D02*
X60592857Y-83810414D01*
X60592857Y-83810414D02*
X60545238Y-84000890D01*
X60545238Y-84000890D02*
X60545238Y-84381842D01*
X60545238Y-84381842D02*
X60592857Y-84477080D01*
X60592857Y-84477080D02*
X60640476Y-84524700D01*
X60640476Y-84524700D02*
X60735714Y-84572319D01*
X60735714Y-84572319D02*
X60926190Y-84572319D01*
X60926190Y-84572319D02*
X61021428Y-84524700D01*
X61021428Y-84524700D02*
X61069047Y-84477080D01*
X61069047Y-84477080D02*
X61116666Y-84381842D01*
X61116666Y-84381842D02*
X61116666Y-84143747D01*
X61116666Y-84143747D02*
X61069047Y-84048509D01*
X61069047Y-84048509D02*
X61021428Y-84000890D01*
X61021428Y-84000890D02*
X60926190Y-83953271D01*
X60926190Y-83953271D02*
X60735714Y-83953271D01*
X60735714Y-83953271D02*
X60640476Y-84000890D01*
X60640476Y-84000890D02*
X60592857Y-84048509D01*
X60592857Y-84048509D02*
X60545238Y-84143747D01*
D12*
X71683609Y-80859523D02*
X71731228Y-80802380D01*
X71731228Y-80802380D02*
X71778847Y-80783333D01*
X71778847Y-80783333D02*
X71874085Y-80764285D01*
X71874085Y-80764285D02*
X72016942Y-80764285D01*
X72016942Y-80764285D02*
X72112180Y-80783333D01*
X72112180Y-80783333D02*
X72159800Y-80802380D01*
X72159800Y-80802380D02*
X72207419Y-80840475D01*
X72207419Y-80840475D02*
X72207419Y-80992856D01*
X72207419Y-80992856D02*
X71207419Y-80992856D01*
X71207419Y-80992856D02*
X71207419Y-80859523D01*
X71207419Y-80859523D02*
X71255038Y-80821428D01*
X71255038Y-80821428D02*
X71302657Y-80802380D01*
X71302657Y-80802380D02*
X71397895Y-80783333D01*
X71397895Y-80783333D02*
X71493133Y-80783333D01*
X71493133Y-80783333D02*
X71588371Y-80802380D01*
X71588371Y-80802380D02*
X71635990Y-80821428D01*
X71635990Y-80821428D02*
X71683609Y-80859523D01*
X71683609Y-80859523D02*
X71683609Y-80992856D01*
X72207419Y-80421428D02*
X71683609Y-80421428D01*
X71683609Y-80421428D02*
X71588371Y-80440475D01*
X71588371Y-80440475D02*
X71540752Y-80478571D01*
X71540752Y-80478571D02*
X71540752Y-80554761D01*
X71540752Y-80554761D02*
X71588371Y-80592856D01*
X72159800Y-80421428D02*
X72207419Y-80459523D01*
X72207419Y-80459523D02*
X72207419Y-80554761D01*
X72207419Y-80554761D02*
X72159800Y-80592856D01*
X72159800Y-80592856D02*
X72064561Y-80611904D01*
X72064561Y-80611904D02*
X71969323Y-80611904D01*
X71969323Y-80611904D02*
X71874085Y-80592856D01*
X71874085Y-80592856D02*
X71826466Y-80554761D01*
X71826466Y-80554761D02*
X71826466Y-80459523D01*
X71826466Y-80459523D02*
X71778847Y-80421428D01*
X72207419Y-80230951D02*
X71540752Y-80230951D01*
X71731228Y-80230951D02*
X71635990Y-80211904D01*
X71635990Y-80211904D02*
X71588371Y-80192856D01*
X71588371Y-80192856D02*
X71540752Y-80154761D01*
X71540752Y-80154761D02*
X71540752Y-80116666D01*
X72207419Y-79983332D02*
X71540752Y-79983332D01*
X71731228Y-79983332D02*
X71635990Y-79964285D01*
X71635990Y-79964285D02*
X71588371Y-79945237D01*
X71588371Y-79945237D02*
X71540752Y-79907142D01*
X71540752Y-79907142D02*
X71540752Y-79869047D01*
X72159800Y-79583332D02*
X72207419Y-79621428D01*
X72207419Y-79621428D02*
X72207419Y-79697618D01*
X72207419Y-79697618D02*
X72159800Y-79735713D01*
X72159800Y-79735713D02*
X72064561Y-79754761D01*
X72064561Y-79754761D02*
X71683609Y-79754761D01*
X71683609Y-79754761D02*
X71588371Y-79735713D01*
X71588371Y-79735713D02*
X71540752Y-79697618D01*
X71540752Y-79697618D02*
X71540752Y-79621428D01*
X71540752Y-79621428D02*
X71588371Y-79583332D01*
X71588371Y-79583332D02*
X71683609Y-79564285D01*
X71683609Y-79564285D02*
X71778847Y-79564285D01*
X71778847Y-79564285D02*
X71874085Y-79754761D01*
X72207419Y-79335714D02*
X72159800Y-79373809D01*
X72159800Y-79373809D02*
X72064561Y-79392856D01*
X72064561Y-79392856D02*
X71207419Y-79392856D01*
X72302657Y-79278571D02*
X72302657Y-78973809D01*
X71207419Y-78764285D02*
X71921704Y-78764285D01*
X71921704Y-78764285D02*
X72064561Y-78783332D01*
X72064561Y-78783332D02*
X72159800Y-78821428D01*
X72159800Y-78821428D02*
X72207419Y-78878570D01*
X72207419Y-78878570D02*
X72207419Y-78916666D01*
X72207419Y-78402380D02*
X71683609Y-78402380D01*
X71683609Y-78402380D02*
X71588371Y-78421427D01*
X71588371Y-78421427D02*
X71540752Y-78459523D01*
X71540752Y-78459523D02*
X71540752Y-78535713D01*
X71540752Y-78535713D02*
X71588371Y-78573808D01*
X72159800Y-78402380D02*
X72207419Y-78440475D01*
X72207419Y-78440475D02*
X72207419Y-78535713D01*
X72207419Y-78535713D02*
X72159800Y-78573808D01*
X72159800Y-78573808D02*
X72064561Y-78592856D01*
X72064561Y-78592856D02*
X71969323Y-78592856D01*
X71969323Y-78592856D02*
X71874085Y-78573808D01*
X71874085Y-78573808D02*
X71826466Y-78535713D01*
X71826466Y-78535713D02*
X71826466Y-78440475D01*
X71826466Y-78440475D02*
X71778847Y-78402380D01*
X72159800Y-78040475D02*
X72207419Y-78078570D01*
X72207419Y-78078570D02*
X72207419Y-78154761D01*
X72207419Y-78154761D02*
X72159800Y-78192856D01*
X72159800Y-78192856D02*
X72112180Y-78211903D01*
X72112180Y-78211903D02*
X72016942Y-78230951D01*
X72016942Y-78230951D02*
X71731228Y-78230951D01*
X71731228Y-78230951D02*
X71635990Y-78211903D01*
X71635990Y-78211903D02*
X71588371Y-78192856D01*
X71588371Y-78192856D02*
X71540752Y-78154761D01*
X71540752Y-78154761D02*
X71540752Y-78078570D01*
X71540752Y-78078570D02*
X71588371Y-78040475D01*
X72207419Y-77869046D02*
X71207419Y-77869046D01*
X71826466Y-77830951D02*
X72207419Y-77716665D01*
X71540752Y-77716665D02*
X71921704Y-77869046D01*
X72302657Y-77640475D02*
X72302657Y-77335713D01*
X72159800Y-77259522D02*
X72207419Y-77202379D01*
X72207419Y-77202379D02*
X72207419Y-77107141D01*
X72207419Y-77107141D02*
X72159800Y-77069046D01*
X72159800Y-77069046D02*
X72112180Y-77049998D01*
X72112180Y-77049998D02*
X72016942Y-77030951D01*
X72016942Y-77030951D02*
X71921704Y-77030951D01*
X71921704Y-77030951D02*
X71826466Y-77049998D01*
X71826466Y-77049998D02*
X71778847Y-77069046D01*
X71778847Y-77069046D02*
X71731228Y-77107141D01*
X71731228Y-77107141D02*
X71683609Y-77183332D01*
X71683609Y-77183332D02*
X71635990Y-77221427D01*
X71635990Y-77221427D02*
X71588371Y-77240474D01*
X71588371Y-77240474D02*
X71493133Y-77259522D01*
X71493133Y-77259522D02*
X71397895Y-77259522D01*
X71397895Y-77259522D02*
X71302657Y-77240474D01*
X71302657Y-77240474D02*
X71255038Y-77221427D01*
X71255038Y-77221427D02*
X71207419Y-77183332D01*
X71207419Y-77183332D02*
X71207419Y-77088093D01*
X71207419Y-77088093D02*
X71255038Y-77030951D01*
X71540752Y-76897618D02*
X72207419Y-76821427D01*
X72207419Y-76821427D02*
X71731228Y-76745237D01*
X71731228Y-76745237D02*
X72207419Y-76669046D01*
X72207419Y-76669046D02*
X71540752Y-76592856D01*
X72207419Y-76440474D02*
X71540752Y-76440474D01*
X71207419Y-76440474D02*
X71255038Y-76459522D01*
X71255038Y-76459522D02*
X71302657Y-76440474D01*
X71302657Y-76440474D02*
X71255038Y-76421427D01*
X71255038Y-76421427D02*
X71207419Y-76440474D01*
X71207419Y-76440474D02*
X71302657Y-76440474D01*
X71540752Y-76307141D02*
X71540752Y-76154760D01*
X71207419Y-76249998D02*
X72064561Y-76249998D01*
X72064561Y-76249998D02*
X72159800Y-76230951D01*
X72159800Y-76230951D02*
X72207419Y-76192856D01*
X72207419Y-76192856D02*
X72207419Y-76154760D01*
X72159800Y-75849999D02*
X72207419Y-75888094D01*
X72207419Y-75888094D02*
X72207419Y-75964285D01*
X72207419Y-75964285D02*
X72159800Y-76002380D01*
X72159800Y-76002380D02*
X72112180Y-76021427D01*
X72112180Y-76021427D02*
X72016942Y-76040475D01*
X72016942Y-76040475D02*
X71731228Y-76040475D01*
X71731228Y-76040475D02*
X71635990Y-76021427D01*
X71635990Y-76021427D02*
X71588371Y-76002380D01*
X71588371Y-76002380D02*
X71540752Y-75964285D01*
X71540752Y-75964285D02*
X71540752Y-75888094D01*
X71540752Y-75888094D02*
X71588371Y-75849999D01*
X72207419Y-75678570D02*
X71207419Y-75678570D01*
X72207419Y-75507142D02*
X71683609Y-75507142D01*
X71683609Y-75507142D02*
X71588371Y-75526189D01*
X71588371Y-75526189D02*
X71540752Y-75564285D01*
X71540752Y-75564285D02*
X71540752Y-75621428D01*
X71540752Y-75621428D02*
X71588371Y-75659523D01*
X71588371Y-75659523D02*
X71635990Y-75678570D01*
D10*
X70954819Y-57583333D02*
X71669104Y-57583333D01*
X71669104Y-57583333D02*
X71811961Y-57630952D01*
X71811961Y-57630952D02*
X71907200Y-57726190D01*
X71907200Y-57726190D02*
X71954819Y-57869047D01*
X71954819Y-57869047D02*
X71954819Y-57964285D01*
X70954819Y-57202380D02*
X70954819Y-56535714D01*
X70954819Y-56535714D02*
X71954819Y-56964285D01*
X77798333Y-85534819D02*
X77465000Y-85058628D01*
X77226905Y-85534819D02*
X77226905Y-84534819D01*
X77226905Y-84534819D02*
X77607857Y-84534819D01*
X77607857Y-84534819D02*
X77703095Y-84582438D01*
X77703095Y-84582438D02*
X77750714Y-84630057D01*
X77750714Y-84630057D02*
X77798333Y-84725295D01*
X77798333Y-84725295D02*
X77798333Y-84868152D01*
X77798333Y-84868152D02*
X77750714Y-84963390D01*
X77750714Y-84963390D02*
X77703095Y-85011009D01*
X77703095Y-85011009D02*
X77607857Y-85058628D01*
X77607857Y-85058628D02*
X77226905Y-85058628D01*
X78179286Y-84630057D02*
X78226905Y-84582438D01*
X78226905Y-84582438D02*
X78322143Y-84534819D01*
X78322143Y-84534819D02*
X78560238Y-84534819D01*
X78560238Y-84534819D02*
X78655476Y-84582438D01*
X78655476Y-84582438D02*
X78703095Y-84630057D01*
X78703095Y-84630057D02*
X78750714Y-84725295D01*
X78750714Y-84725295D02*
X78750714Y-84820533D01*
X78750714Y-84820533D02*
X78703095Y-84963390D01*
X78703095Y-84963390D02*
X78131667Y-85534819D01*
X78131667Y-85534819D02*
X78750714Y-85534819D01*
D12*
X70985714Y-86957419D02*
X71233333Y-86957419D01*
X71233333Y-86957419D02*
X71100000Y-87338371D01*
X71100000Y-87338371D02*
X71157143Y-87338371D01*
X71157143Y-87338371D02*
X71195238Y-87385990D01*
X71195238Y-87385990D02*
X71214286Y-87433609D01*
X71214286Y-87433609D02*
X71233333Y-87528847D01*
X71233333Y-87528847D02*
X71233333Y-87766942D01*
X71233333Y-87766942D02*
X71214286Y-87862180D01*
X71214286Y-87862180D02*
X71195238Y-87909800D01*
X71195238Y-87909800D02*
X71157143Y-87957419D01*
X71157143Y-87957419D02*
X71042857Y-87957419D01*
X71042857Y-87957419D02*
X71004762Y-87909800D01*
X71004762Y-87909800D02*
X70985714Y-87862180D01*
X71366666Y-86957419D02*
X71614285Y-86957419D01*
X71614285Y-86957419D02*
X71480952Y-87338371D01*
X71480952Y-87338371D02*
X71538095Y-87338371D01*
X71538095Y-87338371D02*
X71576190Y-87385990D01*
X71576190Y-87385990D02*
X71595238Y-87433609D01*
X71595238Y-87433609D02*
X71614285Y-87528847D01*
X71614285Y-87528847D02*
X71614285Y-87766942D01*
X71614285Y-87766942D02*
X71595238Y-87862180D01*
X71595238Y-87862180D02*
X71576190Y-87909800D01*
X71576190Y-87909800D02*
X71538095Y-87957419D01*
X71538095Y-87957419D02*
X71423809Y-87957419D01*
X71423809Y-87957419D02*
X71385714Y-87909800D01*
X71385714Y-87909800D02*
X71366666Y-87862180D01*
X71861904Y-86957419D02*
X71899999Y-86957419D01*
X71899999Y-86957419D02*
X71938095Y-87005038D01*
X71938095Y-87005038D02*
X71957142Y-87052657D01*
X71957142Y-87052657D02*
X71976190Y-87147895D01*
X71976190Y-87147895D02*
X71995237Y-87338371D01*
X71995237Y-87338371D02*
X71995237Y-87576466D01*
X71995237Y-87576466D02*
X71976190Y-87766942D01*
X71976190Y-87766942D02*
X71957142Y-87862180D01*
X71957142Y-87862180D02*
X71938095Y-87909800D01*
X71938095Y-87909800D02*
X71899999Y-87957419D01*
X71899999Y-87957419D02*
X71861904Y-87957419D01*
X71861904Y-87957419D02*
X71823809Y-87909800D01*
X71823809Y-87909800D02*
X71804761Y-87862180D01*
X71804761Y-87862180D02*
X71785714Y-87766942D01*
X71785714Y-87766942D02*
X71766666Y-87576466D01*
X71766666Y-87576466D02*
X71766666Y-87338371D01*
X71766666Y-87338371D02*
X71785714Y-87147895D01*
X71785714Y-87147895D02*
X71804761Y-87052657D01*
X71804761Y-87052657D02*
X71823809Y-87005038D01*
X71823809Y-87005038D02*
X71861904Y-86957419D01*
D10*
X76069819Y-79168094D02*
X75069819Y-79168094D01*
X75069819Y-79168094D02*
X75069819Y-78929999D01*
X75069819Y-78929999D02*
X75117438Y-78787142D01*
X75117438Y-78787142D02*
X75212676Y-78691904D01*
X75212676Y-78691904D02*
X75307914Y-78644285D01*
X75307914Y-78644285D02*
X75498390Y-78596666D01*
X75498390Y-78596666D02*
X75641247Y-78596666D01*
X75641247Y-78596666D02*
X75831723Y-78644285D01*
X75831723Y-78644285D02*
X75926961Y-78691904D01*
X75926961Y-78691904D02*
X76022200Y-78787142D01*
X76022200Y-78787142D02*
X76069819Y-78929999D01*
X76069819Y-78929999D02*
X76069819Y-79168094D01*
X76069819Y-77644285D02*
X76069819Y-78215713D01*
X76069819Y-77929999D02*
X75069819Y-77929999D01*
X75069819Y-77929999D02*
X75212676Y-78025237D01*
X75212676Y-78025237D02*
X75307914Y-78120475D01*
X75307914Y-78120475D02*
X75355533Y-78215713D01*
D12*
X79242857Y-82957419D02*
X79052381Y-82957419D01*
X79052381Y-82957419D02*
X79052381Y-81957419D01*
X79376191Y-82433609D02*
X79509524Y-82433609D01*
X79566667Y-82957419D02*
X79376191Y-82957419D01*
X79376191Y-82957419D02*
X79376191Y-81957419D01*
X79376191Y-81957419D02*
X79566667Y-81957419D01*
X79738096Y-82957419D02*
X79738096Y-81957419D01*
X79738096Y-81957419D02*
X79833334Y-81957419D01*
X79833334Y-81957419D02*
X79890477Y-82005038D01*
X79890477Y-82005038D02*
X79928572Y-82100276D01*
X79928572Y-82100276D02*
X79947619Y-82195514D01*
X79947619Y-82195514D02*
X79966667Y-82385990D01*
X79966667Y-82385990D02*
X79966667Y-82528847D01*
X79966667Y-82528847D02*
X79947619Y-82719323D01*
X79947619Y-82719323D02*
X79928572Y-82814561D01*
X79928572Y-82814561D02*
X79890477Y-82909800D01*
X79890477Y-82909800D02*
X79833334Y-82957419D01*
X79833334Y-82957419D02*
X79738096Y-82957419D01*
D13*
%TO.C,J4*%
X62230000Y-103830000D02*
X62230000Y-101170000D01*
X59630000Y-103830000D02*
X59630000Y-102500000D01*
X62230000Y-101170000D02*
X67370000Y-101170000D01*
X60960000Y-103830000D02*
X59630000Y-103830000D01*
X62230000Y-103830000D02*
X67370000Y-103830000D01*
X67370000Y-103830000D02*
X67370000Y-101170000D01*
%TO.C,J3*%
X62230000Y-56630000D02*
X62230000Y-53970000D01*
X59630000Y-56630000D02*
X59630000Y-55300000D01*
X62230000Y-53970000D02*
X67370000Y-53970000D01*
X60960000Y-56630000D02*
X59630000Y-56630000D01*
X62230000Y-56630000D02*
X67370000Y-56630000D01*
X67370000Y-56630000D02*
X67370000Y-53970000D01*
%TO.C,R3*%
X74695000Y-91055000D02*
X81235000Y-91055000D01*
X74695000Y-91385000D02*
X74695000Y-91055000D01*
X74695000Y-93465000D02*
X74695000Y-93795000D01*
X74695000Y-93795000D02*
X81235000Y-93795000D01*
X81235000Y-91055000D02*
X81235000Y-91385000D01*
X81235000Y-93795000D02*
X81235000Y-93465000D01*
%TO.C,U1*%
X55340000Y-71820000D02*
X55340000Y-67179000D01*
X58609000Y-71820000D02*
X58609000Y-70310000D01*
X62310000Y-71820000D02*
X62310000Y-70310000D01*
X65580000Y-67179000D02*
X55340000Y-67179000D01*
X65580000Y-70310000D02*
X55340000Y-70310000D01*
X65580000Y-71820000D02*
X55340000Y-71820000D01*
X65580000Y-71820000D02*
X65580000Y-67179000D01*
%TO.C,C1*%
X62520000Y-64055000D02*
X62520000Y-62725000D01*
X63850000Y-64055000D02*
X62520000Y-64055000D01*
X65120000Y-64055000D02*
X67720000Y-64055000D01*
X65120000Y-64055000D02*
X65120000Y-61395000D01*
X67720000Y-64055000D02*
X67720000Y-61395000D01*
X65120000Y-61395000D02*
X67720000Y-61395000D01*
%TO.C,R1*%
X74695000Y-70980000D02*
X81235000Y-70980000D01*
X74695000Y-71310000D02*
X74695000Y-70980000D01*
X74695000Y-73390000D02*
X74695000Y-73720000D01*
X74695000Y-73720000D02*
X81235000Y-73720000D01*
X81235000Y-70980000D02*
X81235000Y-71310000D01*
X81235000Y-73720000D02*
X81235000Y-73390000D01*
%TO.C,U2*%
X64080000Y-91020000D02*
X64080000Y-86379000D01*
X64080000Y-91020000D02*
X53840000Y-91020000D01*
X64080000Y-89510000D02*
X53840000Y-89510000D01*
X64080000Y-86379000D02*
X53840000Y-86379000D01*
X60810000Y-91020000D02*
X60810000Y-89510000D01*
X57109000Y-91020000D02*
X57109000Y-89510000D01*
X53840000Y-91020000D02*
X53840000Y-86379000D01*
D14*
%TO.C,SW1*%
X70785000Y-69420900D02*
X82646800Y-69420900D01*
X82646800Y-69420900D02*
X82646800Y-65179100D01*
X70785000Y-65179100D02*
X70785000Y-69420900D01*
X82646800Y-65179100D02*
X70785000Y-65179100D01*
D13*
%TO.C,C2*%
X57396000Y-61080000D02*
X58654000Y-61080000D01*
X57396000Y-62920000D02*
X58654000Y-62920000D01*
%TO.C,J2*%
X85060000Y-98620000D02*
X86390000Y-98620000D01*
X85060000Y-99950000D02*
X85060000Y-98620000D01*
X85060000Y-101220000D02*
X85060000Y-103820000D01*
X85060000Y-101220000D02*
X87720000Y-101220000D01*
X85060000Y-103820000D02*
X87720000Y-103820000D01*
X87720000Y-101220000D02*
X87720000Y-103820000D01*
%TO.C,J1*%
X85060000Y-53970000D02*
X86390000Y-53970000D01*
X85060000Y-55300000D02*
X85060000Y-53970000D01*
X85060000Y-56570000D02*
X85060000Y-59170000D01*
X85060000Y-56570000D02*
X87720000Y-56570000D01*
X85060000Y-59170000D02*
X87720000Y-59170000D01*
X87720000Y-56570000D02*
X87720000Y-59170000D01*
%TO.C,C3*%
X54896000Y-93280000D02*
X56154000Y-93280000D01*
X54896000Y-95120000D02*
X56154000Y-95120000D01*
%TO.C,J5*%
X72495000Y-96490000D02*
X72495000Y-104110000D01*
X72495000Y-104110000D02*
X82655000Y-104110000D01*
X82655000Y-96490000D02*
X72495000Y-96490000D01*
X82655000Y-102840000D02*
X72495000Y-102840000D01*
X82655000Y-104110000D02*
X82655000Y-96490000D01*
%TO.C,J6*%
X70000000Y-74617500D02*
X70000000Y-73567500D01*
X69800000Y-82967500D02*
X67900000Y-82967500D01*
X69800000Y-80267500D02*
X69800000Y-82967500D01*
X69800000Y-73767500D02*
X69800000Y-76367500D01*
X68950000Y-73567500D02*
X70000000Y-73567500D01*
X63900000Y-82967500D02*
X55100000Y-82967500D01*
X55100000Y-82967500D02*
X55100000Y-73767500D01*
X55100000Y-73767500D02*
X69800000Y-73767500D01*
%TO.C,J7*%
X72620000Y-53690000D02*
X72620000Y-61310000D01*
X72620000Y-61310000D02*
X82780000Y-61310000D01*
X82780000Y-53690000D02*
X72620000Y-53690000D01*
X82780000Y-60040000D02*
X72620000Y-60040000D01*
X82780000Y-61310000D02*
X82780000Y-53690000D01*
%TO.C,R2*%
X74695000Y-86080000D02*
X81235000Y-86080000D01*
X74695000Y-86410000D02*
X74695000Y-86080000D01*
X74695000Y-88490000D02*
X74695000Y-88820000D01*
X74695000Y-88820000D02*
X81235000Y-88820000D01*
X81235000Y-86080000D02*
X81235000Y-86410000D01*
X81235000Y-88820000D02*
X81235000Y-88490000D01*
%TO.C,D1*%
X78030000Y-80990000D02*
X81120000Y-80990000D01*
X79575462Y-75440001D02*
G75*
G03*
X78030170Y-80989999I-462J-2989999D01*
G01*
X81119830Y-80990000D02*
G75*
G03*
X79574538Y-75440000I-1544830J2560000D01*
G01*
X82075000Y-78430000D02*
G75*
G03*
X77075000Y-78430000I-2500000J0D01*
G01*
X77075000Y-78430000D02*
G75*
G03*
X82075000Y-78430000I2500000J0D01*
G01*
%TD*%
M02*
