%TF.GenerationSoftware,KiCad,Pcbnew,7.0.10*%
%TF.CreationDate,2024-02-15T23:55:06+08:00*%
%TF.ProjectId,Project 2 - Breadboard power supply,50726f6a-6563-4742-9032-202d20427265,rev?*%
%TF.SameCoordinates,Original*%
%TF.FileFunction,Soldermask,Bot*%
%TF.FilePolarity,Negative*%
%FSLAX46Y46*%
G04 Gerber Fmt 4.6, Leading zero omitted, Abs format (unit mm)*
G04 Created by KiCad (PCBNEW 7.0.10) date 2024-02-15 23:55:06*
%MOMM*%
%LPD*%
G01*
G04 APERTURE LIST*
G04 Aperture macros list*
%AMRoundRect*
0 Rectangle with rounded corners*
0 $1 Rounding radius*
0 $2 $3 $4 $5 $6 $7 $8 $9 X,Y pos of 4 corners*
0 Add a 4 corners polygon primitive as box body*
4,1,4,$2,$3,$4,$5,$6,$7,$8,$9,$2,$3,0*
0 Add four circle primitives for the rounded corners*
1,1,$1+$1,$2,$3*
1,1,$1+$1,$4,$5*
1,1,$1+$1,$6,$7*
1,1,$1+$1,$8,$9*
0 Add four rect primitives between the rounded corners*
20,1,$1+$1,$2,$3,$4,$5,0*
20,1,$1+$1,$4,$5,$6,$7,0*
20,1,$1+$1,$6,$7,$8,$9,0*
20,1,$1+$1,$8,$9,$2,$3,0*%
G04 Aperture macros list end*
%ADD10O,1.700000X1.700000*%
%ADD11R,1.700000X1.700000*%
%ADD12C,1.600000*%
%ADD13O,1.600000X1.600000*%
%ADD14O,1.905000X2.000000*%
%ADD15R,1.905000X2.000000*%
%ADD16C,1.397000*%
%ADD17R,3.000000X3.000000*%
%ADD18C,3.000000*%
%ADD19RoundRect,0.875000X-0.875000X-0.875000X0.875000X-0.875000X0.875000X0.875000X-0.875000X0.875000X0*%
%ADD20RoundRect,0.750000X-0.750000X-1.000000X0.750000X-1.000000X0.750000X1.000000X-0.750000X1.000000X0*%
%ADD21R,3.500000X3.500000*%
%ADD22R,1.800000X1.800000*%
%ADD23C,1.800000*%
G04 APERTURE END LIST*
D10*
%TO.C,J4*%
X66040000Y-102500000D03*
X63500000Y-102500000D03*
D11*
X60960000Y-102500000D03*
%TD*%
D10*
%TO.C,J3*%
X66040000Y-55300000D03*
X63500000Y-55300000D03*
D11*
X60960000Y-55300000D03*
%TD*%
D12*
%TO.C,R3*%
X74155000Y-92425000D03*
D13*
X81775000Y-92425000D03*
%TD*%
D14*
%TO.C,U1*%
X57920000Y-68550000D03*
X60460000Y-68550000D03*
D15*
X63000000Y-68550000D03*
%TD*%
D11*
%TO.C,C1*%
X63850000Y-62725000D03*
D10*
X66390000Y-62725000D03*
%TD*%
D12*
%TO.C,R1*%
X74155000Y-72350000D03*
D13*
X81775000Y-72350000D03*
%TD*%
D15*
%TO.C,U2*%
X61500000Y-87750000D03*
D14*
X58960000Y-87750000D03*
X56420000Y-87750000D03*
%TD*%
D16*
%TO.C,SW1*%
X74215900Y-67300000D03*
X76715900Y-67300000D03*
X79215900Y-67300000D03*
%TD*%
D12*
%TO.C,C2*%
X56775000Y-62000000D03*
X59275000Y-62000000D03*
%TD*%
D11*
%TO.C,J2*%
X86390000Y-99950000D03*
D10*
X86390000Y-102490000D03*
%TD*%
D11*
%TO.C,J1*%
X86390000Y-55300000D03*
D10*
X86390000Y-57840000D03*
%TD*%
D12*
%TO.C,C3*%
X54275000Y-94200000D03*
X56775000Y-94200000D03*
%TD*%
D17*
%TO.C,J5*%
X75035000Y-100300000D03*
D18*
X80115000Y-100300000D03*
%TD*%
D19*
%TO.C,J6*%
X65900000Y-83067500D03*
D20*
X62900000Y-78367500D03*
D21*
X68900000Y-78367500D03*
%TD*%
D17*
%TO.C,J7*%
X75160000Y-57500000D03*
D18*
X80240000Y-57500000D03*
%TD*%
D12*
%TO.C,R2*%
X74155000Y-87450000D03*
D13*
X81775000Y-87450000D03*
%TD*%
D22*
%TO.C,D1*%
X79575000Y-79700000D03*
D23*
X79575000Y-77160000D03*
%TD*%
M02*
